<?xml version="1.0" encoding="UTF-8"?>
<svg width="80px" height="80px" viewBox="0 0 80 80" version="1.1" xmlns="http://www.w3.org/2000/svg" xmlns:xlink="http://www.w3.org/1999/xlink">
    <title>Untitled 2</title>
    <g id="Page-1" stroke="none" stroke-width="1" fill="none" fill-rule="evenodd">
        <g id="https___mariadb.com_wp-content_uploads_2019_11_mariadb-logo-vertical_blue" transform="translate(1.000000, 8.000000)" fill="#003545" fill-rule="nonzero">
            <polygon id="Path" points="14.1305806 52.4638065 16.9637419 63.4215484 14.8250323 63.4215484 12.9379355 55.5284516 9.38012903 63.4215484 7.57354839 63.4215484 4.03587097 55.5737419 2.09341935 63.4215484 0 63.4215484 2.808 52.4638065 4.65987097 52.4638065 8.4843871 60.9481935 12.2938065 52.4638065"></polygon>
            <path d="M25.0430323,56.6984516 L25.0430323,55.4227742 L27.1087742,55.4227742 L27.1087742,63.4215484 L25.0430323,63.4215484 L25.0430323,62.1332903 C24.4970323,63.0592258 23.3748387,63.590129 22.0085806,63.590129 C19.1527742,63.590129 17.5600645,61.5772258 17.5600645,59.2623871 C17.5600645,57.0305806 19.0697419,55.2365806 21.704129,55.2365806 C23.2062581,55.2541935 24.4517419,55.7574194 25.0430323,56.6984516 Z M19.7591613,59.3705806 C19.7591613,60.8425161 20.6850968,62.1030968 22.4765806,62.1030968 C24.2051613,62.1030968 25.1461935,60.8727097 25.1461935,59.415871 C25.1461935,57.9590323 24.1749677,56.7135484 22.3784516,56.7135484 C20.6574194,56.7135484 19.7616774,57.9565161 19.7616774,59.3705806 L19.7591613,59.3705806 Z" id="Shape"></path>
            <path d="M31.766129,63.4215484 L29.7029032,63.4215484 L29.7029032,55.4227742 L31.766129,55.4227742 L31.766129,57.2142581 C32.2484096,56.0427133 33.3828025,55.2716033 34.6496129,55.2541935 C35.0889551,55.2481517 35.5259157,55.3197008 35.9403871,55.4655484 L35.5000645,56.9752258 C35.1435696,56.8806261 34.7768538,56.8299281 34.4080645,56.8242581 C32.9185161,56.8242581 31.766129,57.9464516 31.766129,59.592 L31.766129,63.4215484 Z" id="Path"></path>
            <path d="M36.972,53.3117419 C36.9638051,53.0183726 37.0788556,52.7349807 37.2892288,52.530345 C37.499602,52.3257092 37.7860662,52.2185369 38.0790968,52.2348387 C38.3776266,52.2251274 38.6670517,52.3384053 38.879678,52.5481776 C39.0923043,52.7579498 39.2094828,53.0458178 39.2038065,53.3444516 C39.2096567,53.6389676 39.0908362,53.9222538 38.8766371,54.1244731 C38.662438,54.3266924 38.3727893,54.4290303 38.0790968,54.4062581 C37.7839554,54.4190076 37.4968449,54.3082235 37.2867635,54.1005295 C37.0766822,53.8928355 36.9626242,53.6070097 36.972,53.3117419 Z M37.0625806,55.4227742 L39.1283226,55.4227742 L39.1283226,61.2677419 C39.1283226,61.6300645 39.2038065,61.8892258 39.5057419,61.8892258 C39.6385065,61.8859391 39.7707108,61.8707819 39.9007742,61.8439355 L40.2203226,63.3536129 C39.7854664,63.5250712 39.321472,63.6105214 38.8540645,63.6052258 C37.9885161,63.6052258 37.0625806,63.3536129 37.0625806,61.3885161 L37.0625806,55.4227742 Z" id="Shape"></path>
            <path d="M48.3549677,56.6984516 L48.3549677,55.4227742 L50.4282581,55.4227742 L50.4282581,63.4215484 L48.3625161,63.4215484 L48.3625161,62.1332903 C47.8165161,63.0592258 46.6943226,63.590129 45.3280645,63.590129 C42.4747742,63.590129 40.8795484,61.5772258 40.8795484,59.2623871 C40.8795484,57.0305806 42.3892258,55.2365806 45.0236129,55.2365806 C46.5181935,55.2541935 47.7636774,55.7574194 48.3549677,56.6984516 Z M43.0710968,59.3705806 C43.0710968,60.8425161 43.9970323,62.1030968 45.7885161,62.1030968 C47.5196129,62.1030968 48.4606452,60.8727097 48.4606452,59.415871 C48.4606452,57.9590323 47.4869032,56.7135484 45.6929032,56.7135484 C43.9693548,56.7135484 43.0736129,57.9565161 43.0736129,59.3705806 L43.0710968,59.3705806 Z" id="Shape"></path>
            <path d="M53.5910323,52.4638065 L58.5402581,52.4638065 C62.6994194,52.4638065 64.7777419,54.756 64.7475484,57.9414194 C64.7777419,61.2526452 62.4830323,63.4215484 58.9050968,63.4215484 L53.5910323,63.4215484 L53.5910323,52.4638065 Z M54.9572903,53.4350323 L54.9572903,62.4654194 L58.7314839,62.4654194 C62.0401935,62.4654194 63.3007742,60.2336129 63.3007742,57.9112258 C63.3007742,55.2869032 61.7231613,53.4350323 58.7314839,53.4350323 L54.9572903,53.4350323 Z" id="Shape"></path>
            <path d="M73.1866452,63.4215484 L66.8963226,63.4215484 L66.8963226,52.4638065 L72.5701935,52.4638065 C74.7390968,52.4638065 76.8048387,52.8714194 76.7746452,55.302 C76.7746452,57.0154839 75.7103226,57.4885161 74.588129,57.6696774 C76.1808387,57.8055484 77.139519,58.8220645 77.139519,60.4625806 C77.1495484,62.9208387 74.9932258,63.4215484 73.1866452,63.4215484 Z M72.716129,57.2444516 C74.8875484,57.2444516 75.3731613,56.4090968 75.3731613,55.3472903 C75.3731613,53.7520645 74.4019355,53.3897419 72.716129,53.3897419 L68.2072258,53.3897419 L68.2072258,57.2444516 L72.716129,57.2444516 Z M72.7765161,58.1703871 L68.2072258,58.1703871 L68.2072258,62.4956129 L72.9727742,62.4956129 C74.3088387,62.4956129 75.7203871,62.0552903 75.7203871,60.372 C75.7203871,58.4295484 74.0974839,58.1703871 72.7765161,58.1703871 L72.7765161,58.1703871 Z" id="Shape"></path>
            <path d="M77.6225806,0.239032258 C77.4220829,0.0738364977 77.1675401,-0.0113098511 76.908,-1.56450373e-15 C76.1959355,-1.56450373e-15 75.2750323,0.483096774 74.7793548,0.742258065 L74.5830968,0.842903226 C73.7516383,1.24541616 72.8464891,1.47320204 71.9235484,1.51219355 C70.9774839,1.5423871 70.1622581,1.59774194 69.1004516,1.70845161 C62.810129,2.35509677 60.0046452,7.176 57.3023226,11.8383871 C55.8303871,14.3746452 54.3106452,17.0090323 52.2272903,19.0219355 C51.7962395,19.4399142 51.3381532,19.8290774 50.856,20.1869032 C48.6996774,21.7896774 45.9923226,22.9345161 43.8863226,23.7447097 C41.8583226,24.5196774 39.644129,25.2166452 37.5054194,25.8909677 C35.5453548,26.5074194 33.696,27.0911613 31.9950968,27.7227097 C31.2276774,28.0070323 30.576,28.2259355 29.9998065,28.4171613 C28.449871,28.9203871 27.3327097,29.3053548 25.6997419,30.4300645 C25.0631613,30.8653548 24.4240645,31.335871 23.9912903,31.688129 C22.6950473,32.7223975 21.547769,33.9306381 20.5819355,35.2786452 C19.7513793,36.5221063 18.7915848,37.6741971 17.7185806,38.7156774 C17.373871,39.0528387 16.7624516,39.2189032 15.8465806,39.2189032 C14.7747097,39.2189032 13.473871,38.9974839 12.0975484,38.7634839 C10.6784516,38.511871 9.21154839,38.2728387 7.95348387,38.2728387 C6.93193548,38.2728387 6.14941935,38.4389032 5.56567742,38.7760645 C5.56567742,38.7760645 4.58187097,39.3497419 4.16670968,40.092 L4.57432258,40.2756774 C5.20641909,40.6183744 5.79164063,41.0412224 6.31548387,41.5337419 C6.86203321,42.0385532 7.4708317,42.4714765 8.12709677,42.822 C8.33658783,42.8988118 8.52709444,43.0198093 8.68567742,43.1767742 C8.51458065,43.4283871 8.26296774,43.7529677 7.99877419,44.1001935 C6.54696774,45.999871 5.69903226,47.2000645 6.18464516,47.8542581 C6.41739344,47.9751569 6.67735385,48.0340813 6.93948387,48.0253548 C10.1047742,48.0253548 11.8056774,47.2025806 13.9569677,46.1609032 C14.5809677,45.8589677 15.2150323,45.5494839 15.969871,45.2299355 C17.2279355,44.6839355 18.5816129,43.8133548 20.0183226,42.8924516 C21.897871,41.6670968 23.8629677,40.4090323 25.7701935,39.8026452 C27.3376092,39.3246833 28.9702762,39.0954477 30.6087097,39.1232903 C32.6216129,39.1232903 34.7401935,39.3925161 36.7832903,39.6541935 C38.3055484,39.8504516 39.8831613,40.0517419 41.4305806,40.1448387 C42.0319355,40.1800645 42.588,40.1976774 43.1289677,40.1976774 C43.8526293,40.1997977 44.575857,40.1619983 45.2953548,40.0844516 L45.4689677,40.0240645 C46.5534194,39.3572903 47.0616774,37.9256129 47.5548387,36.5417419 C47.871871,35.6510323 48.1385806,34.8509032 48.5612903,34.3426452 C48.5862214,34.3178312 48.6131509,34.2951095 48.6418065,34.2747097 C48.6825984,34.2520163 48.7336407,34.2603497 48.7650968,34.2948387 C48.7650968,34.2948387 48.7650968,34.3074194 48.7650968,34.3350968 C48.5134839,39.7472903 46.3345161,43.1843226 44.1303871,46.2389032 L42.6584516,47.8165161 C42.6584516,47.8165161 44.7191613,47.8165161 45.8916774,47.3636129 C50.1690968,46.0854194 53.3972903,43.2673548 55.7473548,38.7735484 C56.3269002,37.6199655 56.845106,36.4365749 57.2998065,35.2283226 C57.3400645,35.1276774 57.7099355,34.9414839 57.6747097,35.4623226 C57.662129,35.6158065 57.6520645,35.7869032 57.6394839,35.9655484 L57.6394839,35.9655484 C57.6394839,36.0712258 57.6394839,36.1794194 57.6193548,36.2876129 C57.5589677,37.0424516 57.3803226,38.6376774 57.3803226,38.6376774 L58.7012903,37.9306452 C61.8867097,35.9177419 64.3424516,31.8567097 66.2043871,25.5387097 C66.9793548,22.9068387 67.548,20.2925806 68.0487097,17.9903226 C68.6475484,15.2225806 69.1633548,12.849871 69.7546452,11.9289677 C70.6830968,10.4847097 72.0996774,9.50845161 73.4709677,8.55987097 C73.6571613,8.43154839 73.845871,8.30825806 74.0295484,8.1723871 C75.7530968,6.96212903 77.4665806,5.56567742 77.844,2.96148387 L77.844,2.9036129 C78.1182581,0.96116129 77.8867742,0.465483871 77.6225806,0.239032258 Z" id="Path"></path>
        </g>
    </g>
</svg>