<?xml version="1.0" encoding="UTF-8"?>
<svg width="80px" height="80px" viewBox="0 0 80 80" version="1.1" xmlns="http://www.w3.org/2000/svg" xmlns:xlink="http://www.w3.org/1999/xlink">
    <title>Persons</title>
    <g id="Page-1" stroke="none" stroke-width="1" fill="none" fill-rule="evenodd">
        <g id="Persons" transform="translate(5.000000, 9.000000)" fill="#000000" stroke="#FFFFFF" stroke-width="4">
            <g id="Person-Back-Right" transform="translate(34.678899, 0.000000)">
                <path d="M17.3645636,18.9203822 C22.7119402,18.9203822 27.5530811,21.0878348 31.0573778,24.5921315 C34.5616746,28.0964283 36.7291272,32.9375692 36.7291272,38.2849457 L36.7291272,38.2849457 L36.7291272,50.7092876 C30.2742877,52.46672 23.8193366,53.3442456 17.3645636,53.3442456 C10.9097905,53.3442456 4.45483944,52.46672 -2,50.7092876 L-2,50.7092876 L-2,38.2849457 C-2,32.9375692 0.167452607,28.0964283 3.67174936,24.5921315 C7.17604611,21.0878348 12.017187,18.9203822 17.3645636,18.9203822 Z" id="Torso"></path>
                <ellipse id="Head" cx="17.2928092" cy="10.1891241" rx="12.5478961" ry="12.1891241"></ellipse>
            </g>
            <g id="Person-Back-Left" transform="translate(0.000000, 0.000000)">
                <path d="M17.3645636,18.9203822 C22.7119402,18.9203822 27.5530811,21.0878348 31.0573778,24.5921315 C34.5616746,28.0964283 36.7291272,32.9375692 36.7291272,38.2849457 L36.7291272,38.2849457 L36.7291272,50.7092876 C30.2742877,52.46672 23.8193366,53.3442456 17.3645636,53.3442456 C10.9097905,53.3442456 4.45483944,52.46672 -2,50.7092876 L-2,50.7092876 L-2,38.2849457 C-2,32.9375692 0.167452607,28.0964283 3.67174936,24.5921315 C7.17604611,21.0878348 12.017187,18.9203822 17.3645636,18.9203822 Z" id="Torso"></path>
                <ellipse id="Head" cx="17.2928092" cy="10.1891241" rx="12.5478961" ry="12.1891241"></ellipse>
            </g>
            <g id="Person-Front" transform="translate(17.339450, 10.275229)">
                <path d="M17.3645636,18.9203822 C22.7119402,18.9203822 27.5530811,21.0878348 31.0573778,24.5921315 C34.5616746,28.0964283 36.7291272,32.9375692 36.7291272,38.2849457 L36.7291272,38.2849457 L36.7291272,50.7092876 C30.2742877,52.46672 23.8193366,53.3442456 17.3645636,53.3442456 C10.9097905,53.3442456 4.45483944,52.46672 -2,50.7092876 L-2,50.7092876 L-2,38.2849457 C-2,32.9375692 0.167452607,28.0964283 3.67174936,24.5921315 C7.17604611,21.0878348 12.017187,18.9203822 17.3645636,18.9203822 Z" id="Torso"></path>
                <ellipse id="Head" cx="17.2928092" cy="10.1891241" rx="12.5478961" ry="12.1891241"></ellipse>
            </g>
        </g>
    </g>
</svg>