<?xml version="1.0" encoding="UTF-8" standalone="yes"?>
<svg xmlns="http://www.w3.org/2000/svg" width="80px" height="80px" viewBox="0 0 18 18">
  <defs>
    <linearGradient id="ee3107cb-f796-4406-911c-5a17e68e91fb" x1="158.08447" y1="192.33629" x2="147.53897" y2="201.83781" gradientTransform="translate(-207.91531 -112.87378) rotate(-22.27503)" gradientUnits="userSpaceOnUse">
      <stop offset="0" stop-color="#5a468a" stop-opacity="0.8"/>
      <stop offset="1" stop-color="#5a468a"/>
    </linearGradient>
    <linearGradient id="e74d3aef-2017-49d8-a83e-c6414265589b" x1="1.79631" y1="12.69456" x2="14.56845" y2="12.69456" gradientUnits="userSpaceOnUse">
      <stop offset="0.00102" stop-color="#5a468a"/>
      <stop offset="1" stop-color="#5a468a" stop-opacity="0.6"/>
    </linearGradient>
    <linearGradient id="b5250439-e639-4530-8f00-c26def2b7f11" x1="8.18002" y1="11.12855" x2="8.18002" y2="17.99999" gradientUnits="userSpaceOnUse">
      <stop offset="0" stop-color="#5a468a" stop-opacity="0.6"/>
      <stop offset="1" stop-color="#5a468a" stop-opacity="0.3"/>
    </linearGradient>
    <linearGradient id="f69a20b2-df71-45a7-8f9f-27fa69181fc3" x1="2.73697" y1="12.44588" x2="14.56845" y2="12.44588" gradientUnits="userSpaceOnUse">
      <stop offset="0" stop-color="#5a468a" stop-opacity="0.8"/>
      <stop offset="1" stop-color="#5a468a" stop-opacity="0.6"/>
    </linearGradient>
  </defs>
  <g id="abb3595c-bba7-4eb6-87f2-516b155f6903">
    <g>
      <path d="M13.79791,2.85964c-.1323-.02266-.285-.05775-.45375-.10429h0c-.025-.00791-.05887-.01671-.0841-.02388-.17395-.04938-.42172-.13514-.42664-.13782-.05046-.02207-.12073-.044-.17247-.06279-.05228-.019-.12149-.04579-.173-.06676a10.868,10.868,0,0,1-1.00872-.46273,5.91657,5.91657,0,0,1-1.126-.734,10.79579,10.79579,0,0,1-2.14754,3.3599C6.12152,6.13228,3.71914,6.78463,2.97224,7.921A6.387,6.387,0,1,0,14.5249,12.38705l.00425.00154a5.06434,5.06434,0,0,0,.01035-1.12218c-.25477-1.69674-1.32117-3.12594-1.42275-5.554a8.4705,8.4705,0,0,1,.82026-2.832C13.89426,2.87506,13.848,2.86823,13.79791,2.85964Z" opacity="0.8" fill="url(#ee3107cb-f796-4406-911c-5a17e68e91fb)"/>
      <path d="M14.1221,1.85c.39688.44213-.02766.59053-.94687.33192A5.98236,5.98236,0,0,1,10.78982.9125c-.39688-.44213.02767-.59053.94837-.3315A5.98028,5.98028,0,0,1,14.1221,1.85Z" fill="#5a468a" opacity="0.6"/>
      <path d="M14.76374,1.98182c-.08021-.165-.37208-.52562-1.42572-1.08623a10.49579,10.49579,0,0,0-1.3555-.59282c-.10171-.03532-.23819-.07984-.34083-.11235C11.58538.17258,11.52807.15811,11.47156.141c-.053-.01609-.10753-.02662-.16073-.04205-.04464-.01294-.1057-.02425-.151-.03464h0A1.896,1.896,0,0,0,10.391.03044a.52543.52543,0,0,0-.3471.36372l-.02205.07a.24994.24994,0,0,0-.01062.0548.24993.24993,0,0,1,.01061-.0548.719.719,0,0,0,.30538.78065,5.77414,5.77414,0,0,0,1.15195.75653,10.86242,10.86242,0,0,0,1.00873.46273c.05154.021.12075.04774.173.06678.05173.01882.122.04071.17244.06278.00494.00269.25271.08844.42665.13783.02524.00715.05911.016.08411.02387.16879.04656.32145.08165.45375.1043a1.34074,1.34074,0,0,0,.62871.0068l0,0a.51905.51905,0,0,0,.347-.36356l0-.00006.02206-.07A.58948.58948,0,0,0,14.76374,1.98182Zm-1.58851.20008A5.98244,5.98244,0,0,1,10.78983.91249C10.39294.47037,10.81748.322,11.73819.581A5.98022,5.98022,0,0,1,14.1221,1.85C14.519,2.29209,14.09444,2.44049,13.17523,2.1819Z" fill="#5a468a" opacity="0.8"/>
      <path d="M10.60631,17.52163A6.38427,6.38427,0,0,0,14.52489,12.387l.00427.00155c.00152-.01686.0215-.18268.03237-.402l-.00791.00727a8.95348,8.95348,0,0,1-6.6582,1.80737,8.28661,8.28661,0,0,1-6.06746-2.66l-.01054-.01268a6.38452,6.38452,0,0,0,8.78889,6.39308Z" opacity="0.8" fill="url(#b5250439-e639-4530-8f00-c26def2b7f11)"/>
      <path d="M13.79791,2.85964c-.1323-.02266-.285-.05775-.45375-.10429h0c-.025-.00791-.05887-.01671-.0841-.02388-.17395-.04938-.42172-.13514-.42664-.13782-.05046-.02207-.12073-.044-.17247-.06279-.05228-.019-.12149-.04579-.173-.06676a10.868,10.868,0,0,1-1.00872-.46273,5.91657,5.91657,0,0,1-1.126-.734,10.79579,10.79579,0,0,1-2.14754,3.3599C6.12152,6.13228,3.71914,6.78463,2.97224,7.921A6.387,6.387,0,1,0,14.5249,12.38705l.00425.00154a5.06434,5.06434,0,0,0,.01035-1.12218c-.25477-1.69674-1.32117-3.12594-1.42275-5.554a8.4705,8.4705,0,0,1,.82026-2.832C13.89426,2.87506,13.848,2.86823,13.79791,2.85964Z" fill="none"/>
      <path d="M3.61289,7.28167a.31149.31149,0,0,1,.03066.04784l.058.15268A6.76518,6.76518,0,0,0,4.87419,9.38684a.327.327,0,0,1-.49166.43119,7.41563,7.41563,0,0,1-1.2778-2.07017A2.99961,2.99961,0,0,1,3.61289,7.28167ZM1.89463,10.512a6.35773,6.35773,0,0,0-.098,1.1266,7.30483,7.30483,0,0,0,.76917.96634.3269.3269,0,1,0,.47325-.45109A6.60586,6.60586,0,0,1,1.89463,10.512ZM4.3861,12.22617a.32692.32692,0,1,0,.41278-.50706A6.72567,6.72567,0,0,1,2.7701,8.9919c-.02122-.05164-.1401-.35625-.1602-.40827a.306.306,0,0,0-.025-.039,6.42821,6.42821,0,0,0-.37092.80493A7.3552,7.3552,0,0,0,4.3861,12.22617Z" fill="#fff" opacity="0.6"/>
      <g opacity="0.6">
        <path d="M12.334,9.73871C10.82946,9.4198,9.58663,8.3509,8.11582,7.90138a8.57421,8.57421,0,0,0-4.23361-.37177c-.2743.07507-.54391.16411-.81053.26144-.03414.043-.07024.0855-.09944.12993A6.387,6.387,0,1,0,14.52489,12.387l.00427.00155a5.06713,5.06713,0,0,0,.01035-1.12219,8.17956,8.17956,0,0,0-.412-1.52082A4.48154,4.48154,0,0,1,12.334,9.73871Z" fill="url(#e74d3aef-2017-49d8-a83e-c6414265589b)"/>
      </g>
      <g opacity="0.6">
        <path d="M14.52489,12.387l.00427.00155a5.06713,5.06713,0,0,0,.01035-1.12219c-.2105-1.40192-.97376-2.62277-1.29039-4.37371a3.274,3.274,0,0,0-1.66025.90165,11.61716,11.61716,0,0,0-1.567,2.1909,10.82031,10.82031,0,0,1-3.63512,3.75425A11.68015,11.68015,0,0,1,2.737,14.93185,6.38232,6.38232,0,0,0,14.52489,12.387Z" fill="url(#f69a20b2-df71-45a7-8f9f-27fa69181fc3)"/>
      </g>
      <g>
        <circle cx="9.8749" cy="6.23672" r="0.61306" fill="#5a468a"/>
        <circle cx="7.32047" cy="9.71074" r="0.81742" fill="#5a468a"/>
        <circle cx="10.69232" cy="15.53484" r="0.61306" fill="#fff" opacity="0.2"/>
      </g>
    </g>
  </g>
  <metadata>
    <rdf:RDF xmlns:rdf="http://www.w3.org/1999/02/22-rdf-syntax-ns#">
      <rdf:li>public:true</rdf:li>
      <rdf:li>sdk:false</rdf:li>
      <rdf:li>category:CXP</rdf:li>
    </rdf:RDF>
  </metadata>
</svg>