<?xml version="1.0" encoding="UTF-8" standalone="yes"?>
<svg xmlns="http://www.w3.org/2000/svg" width="80px" height="80px" viewBox="0 0 18 18">
  <defs>
    <linearGradient id="a131e81e-0cf1-4ca9-9f2c-204f0df255d8" x1="160.90083" y1="177.92992" x2="150.35533" y2="187.43143" gradientTransform="translate(-205.07956 -98.46977) rotate(-22.27503)" gradientUnits="userSpaceOnUse">
      <stop offset="0" stop-color="#fff" stop-opacity="0.8"/>
      <stop offset="1" stop-color="#fff"/>
    </linearGradient>
    <linearGradient id="affdcf41-c1c6-4a1c-a682-e3f326607dc0" x1="1.77747" y1="12.69972" x2="14.54962" y2="12.69972" gradientUnits="userSpaceOnUse">
      <stop offset="0" stop-color="#fff"/>
      <stop offset="1" stop-color="#fff" stop-opacity="0.6"/>
    </linearGradient>
    <linearGradient id="bcd58042-8755-4b70-a7ed-1804f9ccec78" x1="8.16118" y1="11.13371" x2="8.16118" y2="18.00515" gradientUnits="userSpaceOnUse">
      <stop offset="0" stop-color="#fff" stop-opacity="0.8"/>
      <stop offset="1" stop-color="#fff" stop-opacity="0.6"/>
    </linearGradient>
    <linearGradient id="b942da6c-8336-4ea6-aefc-b540e2701d87" x1="2.71814" y1="12.45104" x2="14.54962" y2="12.45104" gradientUnits="userSpaceOnUse">
      <stop offset="0" stop-color="#fff"/>
      <stop offset="1" stop-color="#fff" stop-opacity="0.6"/>
    </linearGradient>
  </defs>
  <g id="bac42036-29e6-4066-9d1b-50204ee24d78">
    <g>
      <path d="M13.77907,2.8648c-.1323-.02266-.285-.05775-.45374-.10429h0c-.025-.00791-.05887-.01671-.0841-.02388-.17395-.04939-.42172-.13514-.42664-.13782-.05046-.02207-.12073-.044-.17246-.06279-.05228-.019-.1215-.04579-.173-.06676a10.86489,10.86489,0,0,1-1.00871-.46274,5.91641,5.91641,0,0,1-1.126-.734,10.796,10.796,0,0,1-2.14753,3.3599C6.10268,6.13744,3.7003,6.78979,2.9534,7.92615a6.387,6.387,0,1,0,11.55266,4.46606l.00425.00154a5.06434,5.06434,0,0,0,.01035-1.12218c-.25476-1.69674-1.32116-3.12594-1.42275-5.554a8.4705,8.4705,0,0,1,.82026-2.832C13.87543,2.88022,13.8292,2.87339,13.77907,2.8648Z" opacity="0.8" fill="url(#a131e81e-0cf1-4ca9-9f2c-204f0df255d8)"/>
      <path d="M14.10327,1.85513c.39687.44213-.02767.59052-.94687.33192A5.98241,5.98241,0,0,1,10.771.91766c-.39687-.44213.02767-.59053.94837-.33151A5.98028,5.98028,0,0,1,14.10327,1.85513Z" fill="#fff" opacity="0.6"/>
      <path d="M14.7449,1.987c-.08021-.165-.37208-.52562-1.42572-1.08623a10.49579,10.49579,0,0,0-1.3555-.59282C11.862.27261,11.7255.22809,11.62285.19558c-.05631-.01784-.11361-.03231-.17013-.04946C11.39969.13,11.34519.11949,11.292.10407c-.04465-.01294-.10571-.02425-.151-.03464h0a1.89615,1.89615,0,0,0-.7688-.03384.52545.52545,0,0,0-.3471.36373l-.022.07a.25.25,0,0,0-.01063.0548A.25051.25051,0,0,1,10.003.46933.719.719,0,0,0,10.3084,1.25a5.77379,5.77379,0,0,0,1.152.75654,10.86121,10.86121,0,0,0,1.00873.46273c.05153.021.12075.04774.173.06677.05173.01883.122.04072.17245.06279.00493.00269.2527.08844.42665.13783.02523.00715.0591.016.08411.02387.16879.04655.32144.08165.45374.1043a1.34055,1.34055,0,0,0,.62872.00679h0a.51907.51907,0,0,0,.347-.36356l0-.00006.02206-.07A.58945.58945,0,0,0,14.7449,1.987Zm-1.5885.20007A5.98249,5.98249,0,0,1,10.771.91765c-.39689-.44212.02765-.59053.94836-.33149a5.98015,5.98015,0,0,1,2.38391,1.269C14.50013,2.29725,14.0756,2.44564,13.1564,2.18705Z" fill="#fff" opacity="0.8"/>
      <path d="M10.58747,17.52679a6.38426,6.38426,0,0,0,3.91858-5.13459l.00427.00155c.00153-.01686.0215-.18269.03237-.402l-.00791.00728a8.95348,8.95348,0,0,1-6.6582,1.80737,8.28663,8.28663,0,0,1-6.06746-2.66l-.01054-.01268a6.38452,6.38452,0,0,0,8.78889,6.39308Z" opacity="0.8" fill="url(#bcd58042-8755-4b70-a7ed-1804f9ccec78)"/>
      <path d="M13.77907,2.8648c-.1323-.02266-.285-.05775-.45374-.10429h0c-.025-.00791-.05887-.01671-.0841-.02388-.17395-.04939-.42172-.13514-.42664-.13782-.05046-.02207-.12073-.044-.17246-.06279-.05228-.019-.1215-.04579-.173-.06676a10.86489,10.86489,0,0,1-1.00871-.46274,5.91641,5.91641,0,0,1-1.126-.734,10.796,10.796,0,0,1-2.14753,3.3599C6.10268,6.13744,3.7003,6.78979,2.9534,7.92615a6.387,6.387,0,1,0,11.55266,4.46606l.00425.00154a5.06434,5.06434,0,0,0,.01035-1.12218c-.25476-1.69674-1.32116-3.12594-1.42275-5.554a8.4705,8.4705,0,0,1,.82026-2.832C13.87543,2.88022,13.8292,2.87339,13.77907,2.8648Z" fill="none"/>
      <g>
        <path d="M3.08589,7.753A7.41557,7.41557,0,0,0,4.3637,9.82319.327.327,0,0,0,4.85535,9.392,6.76518,6.76518,0,0,1,3.68274,7.48735l-.058-.15268a.31074.31074,0,0,0-.03066-.04784A2.99957,2.99957,0,0,0,3.08589,7.753Z" fill="#fff"/>
        <path d="M1.87579,10.51717a6.35953,6.35953,0,0,0-.098,1.1266,7.30474,7.30474,0,0,0,.76918.96634.3269.3269,0,0,0,.47325-.45109A6.60589,6.60589,0,0,1,1.87579,10.51717Z" fill="#fff"/>
        <path d="M4.36726,12.23132a.32691.32691,0,1,0,.41278-.507A6.72576,6.72576,0,0,1,2.75126,8.99706c-.02122-.05164-.1401-.35625-.16019-.40827a.30462.30462,0,0,0-.025-.039,6.42552,6.42552,0,0,0-.37093.80493A7.3551,7.3551,0,0,0,4.36726,12.23132Z" fill="#fff"/>
      </g>
      <g opacity="0.6">
        <path d="M12.31517,9.74386C10.81062,9.425,9.5678,8.35606,8.097,7.90654a8.5741,8.5741,0,0,0-4.23361-.37177c-.27431.07507-.54391.16411-.81054.26144-.03413.043-.07024.08549-.09944.12993A6.387,6.387,0,1,0,14.50605,12.3922l.00427.00155a5.06647,5.06647,0,0,0,.01035-1.12219,8.17935,8.17935,0,0,0-.412-1.52082A4.48136,4.48136,0,0,1,12.31517,9.74386Z" fill="url(#affdcf41-c1c6-4a1c-a682-e3f326607dc0)"/>
      </g>
      <g opacity="0.8">
        <path d="M14.50605,12.3922l.00427.00155a5.06647,5.06647,0,0,0,.01035-1.12219c-.2105-1.40192-.97375-2.62277-1.29038-4.37371A3.27407,3.27407,0,0,0,11.57,7.79949,11.61768,11.61768,0,0,0,10.003,9.9904a10.82037,10.82037,0,0,1-3.63511,3.75425A11.68013,11.68013,0,0,1,2.71814,14.937a6.38231,6.38231,0,0,0,11.78791-2.5448Z" fill="url(#b942da6c-8336-4ea6-aefc-b540e2701d87)"/>
      </g>
      <g>
        <circle cx="9.85607" cy="6.24187" r="0.61306" fill="#fff"/>
        <circle cx="7.30164" cy="9.7159" r="0.81742" fill="#fff"/>
        <circle cx="10.67348" cy="15.54" r="0.61306" fill="#5a468a" opacity="0.2"/>
      </g>
    </g>
  </g>
  <metadata>
    <rdf:RDF xmlns:rdf="http://www.w3.org/1999/02/22-rdf-syntax-ns#">
      <rdf:li>public:true</rdf:li>
      <rdf:li>sdk:false</rdf:li>
      <rdf:li>category:CXP</rdf:li>
    </rdf:RDF>
  </metadata>
</svg>