<?xml version="1.0" encoding="UTF-8" standalone="yes"?>
<svg width="80px" height="80px" viewBox="0 0 80 80" version="1.1" xmlns="http://www.w3.org/2000/svg" xmlns:xlink="http://www.w3.org/1999/xlink">
  <title>Untitled 2</title>
  <defs>
    <polygon id="path-1" points="0.00277554745 22.3929745 31.4199088 22.3929745 31.4199088 0.26830292 0.00277554745 0.26830292"/>
    <polygon id="path-3" points="0.071879562 16.5031204 16.4045529 16.5031204 16.4045529 0.184680657 0.071879562 0.184680657"/>
    <polygon id="path-5" points="0.143510036 22.1289416 75.7244069 22.1289416 75.7244069 0.131660584 0.143510036 0.131660584"/>
    <polygon id="path-7" points="0.184858577 26.5612774 71.1322993 26.5612774 71.1322993 0.293923358 0.184858577 0.293923358"/>
  </defs>
  <g id="Page-1" stroke="none" stroke-width="1" fill="none" fill-rule="evenodd">
    <g id="Cassandra_logo" transform="translate(1.000000, 19.000000)">
      <g id="layer2" transform="translate(0.094327, 0.266381)">
        <g id="g4555" transform="translate(38.748819, 20.638686) scale(-1, 1) rotate(-180.000000) translate(-38.748819, -20.638686) translate(0.033491, 0.000000)">
          <g id="g2828" transform="translate(12.810219, 12.810219)" fill="#BBE6FB" fill-rule="nonzero">
            <g id="g2830" transform="translate(0.142336, 0.142336)">
              <g id="g2836" transform="translate(0.312569, 0.172013)">
                <path d="M48.3941606,14.2335766 C48.9578102,7.66762774 38.6245894,1.41837591 25.3147719,0.276487226 C12.0049544,-0.86540146 0.758293796,3.53277372 0.195355839,10.0983668 C-0.368293796,16.6653832 9.96492701,22.9142792 23.2747445,24.0561679 C36.584562,25.1977007 47.8312226,20.8005931 48.3941606,14.2335766" id="path2838"/>
              </g>
            </g>
          </g>
          <g id="g2840" transform="translate(20.781022, 13.948905)">
            <g id="g2842-Clipped" transform="translate(0.000000, -0.000000)">
              <g id="g2858-Clipped" transform="translate(0.000000, 0.071168)">
                <mask id="mask-2" fill="white">
                  <use xlink:href="#path-1"/>
                </mask>
                <g id="path2854"/>
                <g id="g2858" opacity="0.35000604" mask="url(#mask-2)">
                  <g transform="translate(-0.355839, -0.355839)" id="g2860">
                    <g transform="translate(0.136749, 0.328547)">
                      <path d="M16.3686131,22.4178832 C11.2914964,22.500438 5.35040146,20.4846077 0.929808394,18.5968796 C0.469708029,17.2710219 0.222043796,15.8608303 0.222043796,14.399042 C0.222043796,6.61042883 7.25485401,0.295702555 15.9305748,0.295702555 C24.6062956,0.295702555 31.6391058,6.61042883 31.6391058,14.399042 C31.6391058,16.8639416 30.9331204,19.1797445 29.6951551,21.1959307 C26.1584672,21.7457026 21.2941423,22.3378193 16.3686131,22.4178832" id="path2862" fill="#FFFFFF" fill-rule="nonzero"/>
                    </g>
                  </g>
                </g>
              </g>
            </g>
          </g>
          <g id="g2864" transform="translate(23.627737, 15.941606)" fill="#FFFFFF" fill-rule="nonzero">
            <g id="g2866-Clipped" transform="translate(-0.000000, -0.000000)">
              <g id="g2866" transform="translate(-0.000000, 0.213504)">
                <g id="g2872" transform="translate(0.054372, 0.330112)">
                  <path d="M12.810219,19.9270073 C9.99944343,20.0985219 5.15468978,18.6321077 1.11484489,17.1692518 C0.501021898,15.7206296 0.160127737,14.135365 0.160127737,12.4718157 C0.160127737,5.64752737 6.3474635,0.115291971 12.8927737,0.115291971 C19.3950274,0.115291971 25.1478832,5.65642336 25.6254197,12.4718157 C25.7805657,14.6911861 25.0165785,16.7824544 23.9558212,18.5854927 C19.7675912,19.3231478 15.3228011,19.7736405 12.810219,19.9270073" id="path2874"/>
                </g>
              </g>
            </g>
          </g>
          <g id="g2876" transform="translate(23.627737, 16.795620)" fill="#373535" fill-rule="nonzero">
            <g id="g2878-Clipped" transform="translate(-0.000000, -0.000000)">
              <g id="g2878" transform="translate(-0.000000, 0.071168)">
                <g id="g2884" transform="translate(3.516334, 9.071984)">
                  <path d="M2.1350365,3.91423358 C2.47984489,4.67786496 3.00221715,5.05185219 3.5082208,5.6920073 C3.45199818,5.84359489 3.32887774,6.3392792 3.32887774,6.51114964 C3.32887774,7.27833942 3.95124088,7.90105839 4.7187865,7.90105839 C4.89990876,7.90105839 5.07284672,7.86511861 5.23119526,7.80213504 C7.53169708,9.55535584 10.5602464,10.3196989 13.6037409,9.63933394 C13.8816515,9.5767062 14.1542245,9.50091241 14.4218157,9.41764599 C11.4139051,9.83468978 8.02346715,8.76930657 5.7172719,6.90791058 C5.7877281,6.74173358 5.98308394,6.26668796 5.98308394,6.07560219 C5.98308394,5.30805657 5.48633212,5.12124088 4.7187865,5.12124088 C4.54442518,5.12124088 4.37789234,5.15468978 4.22381387,5.21340328 C3.70286496,4.51382299 3.06448905,3.18120438 2.75206204,2.34818431 C4.02739051,1.20736314 5.17959854,0.793877737 6.68124088,0.232718978 C6.67732664,0.304242701 6.73283759,0.370428832 6.73283759,0.443375912 C6.73283759,2.75739964 8.77001825,4.63801095 11.0843978,4.63801095 C13.1582299,4.63801095 14.8755109,3.1299635 15.2107117,1.15149635 C16.2454927,1.80979927 17.2461131,2.31437956 18.008677,3.29009124 C17.8307573,3.50715328 17.6389599,4.12168796 17.6389599,4.42415146 C17.6389599,5.1205292 18.2040328,5.68524635 18.9004106,5.68524635 C18.9989781,5.68524635 19.0936314,5.67101277 19.1857938,5.64966241 C19.5729471,6.44531934 19.8650912,7.28865876 20.0519069,8.15833029 C16.4330201,10.8374453 9.43116788,10.4719982 9.43116788,10.4719982 C9.43116788,10.4719982 3.85943431,10.762719 0.0875364964,8.92445255 C0.339114964,7.1057573 1.06467153,5.37673358 2.1350365,3.91423358" id="path2886"/>
                </g>
                <g id="g2888" transform="translate(18.678260, 6.201641)">
                  <path d="M4.27007299,7.82846715 C4.52592153,7.59788321 4.66541058,7.39541058 4.77536496,7.19827555 C5.11376825,6.58979015 4.43482664,6.03290146 3.73844891,6.03290146 C3.66763686,6.03290146 3.59931569,6.04250912 3.53135036,6.05389599 C2.74672445,4.82767336 1.37247263,3.25521898 0.151587591,2.46383212 C2.02365876,2.15709854 3.7889781,1.40734489 5.19383212,0.248731752 C6.21687044,2.08166058 7.00149635,4.72839416 7.00149635,6.97658759 C7.00149635,8.68781934 6.24604927,9.94215328 5.10558394,10.862354 C5.04580292,9.94571168 4.55652372,8.66362226 4.27007299,7.82846715" id="path2890"/>
                </g>
                <g id="g2892" transform="translate(5.616641, 2.420847)">
                  <path d="M2.1350365,0 C2.75882299,1.72261861 4.29320255,3.05737226 5.74467153,4.23164234 C5.5322354,4.52236314 5.21375912,5.24222628 5.08103102,5.58312044 C3.31072993,6.12150547 1.74432482,7.1292427 0.529489051,8.46328467 C0.520593066,8.42449818 0.509562044,8.3867792 0.500310219,8.3479927 C0.271505474,7.32281934 0.229516423,6.29551095 0.343385036,5.29346715 C1.19099453,5.13547445 1.83257299,4.39283759 1.83257299,3.49932482 C1.83257299,2.96947993 1.36820255,2.20157847 1.00773723,1.86744526 C1.39951642,1.0219708 1.66675182,0.614178832 2.1350365,0" id="path2894"/>
                </g>
                <g id="g2896" transform="translate(0.169237, 0.618911)">
                  <path d="M7.47262774,0.355839416 C6.72856752,1.09562956 6.21402372,2.57129562 5.73114964,3.49790146 C5.64076642,3.48402372 5.54824818,3.47441606 5.45359489,3.47441606 C4.44443431,3.47441606 3.3872354,4.32131387 3.62635949,5.30129562 C3.75873175,5.84359489 4.13307482,6.19836679 4.74262774,6.49442518 C4.60385036,7.61781022 4.56613139,9.23260949 4.82696168,10.4004745 C4.90168796,10.7346077 5.0600365,10.891177 5.16500912,11.2092974 C4.05158759,12.8386861 3.33208029,14.977281 3.33208029,17.0991515 C3.33208029,17.1767245 3.33599453,17.2532299 3.33777372,17.3300912 C1.45609489,16.3864051 0.0451916058,14.899708 0.0451916058,12.5593522 C0.0451916058,7.38260036 3.02677007,2.30441606 7.46302007,0.313850365 C7.46622263,0.327728102 7.46906934,0.341961679 7.47262774,0.355839416" id="path2898"/>
                </g>
                <g id="g2900" transform="translate(8.231028, 0.302855)">
                  <path d="M10.3193431,7.82846715 C9.74608577,6.19801095 8.19604927,5.02694343 6.36952555,5.02694343 C5.39239051,5.02694343 4.49603102,5.36392336 3.78364051,5.9240146 C2.31509124,4.78034672 0.982828467,2.77127737 0.305666058,1.02837591 C0.60955292,0.701359489 0.821277372,0.432344891 1.16217153,0.142335766 C2.18947993,-0.125255474 3.60429745,0.142335766 4.71629562,0.142335766 C9.18919708,0.142335766 13.1507573,2.13218978 15.4220803,5.62155109 C13.9118978,6.66736314 12.1305657,7.66264599 10.3193431,7.82846715" id="path2902"/>
                </g>
              </g>
            </g>
          </g>
          <g id="g2904" transform="translate(23.058394, 16.510949)" fill="#1287B1" fill-rule="nonzero">
            <g id="g2906-Clipped" transform="translate(0.000000, -0.000000)">
              <g id="g2906" transform="translate(0.213504, -0.000000)">
                <g id="g2912" transform="translate(3.757522, 8.822825)">
                  <path d="M2.1350365,3.91423358 C2.47984489,4.67786496 2.91218978,5.38456204 3.41783759,6.02471715 C3.36161496,6.17594891 3.32887774,6.3392792 3.32887774,6.51114964 C3.32887774,7.27833942 3.95124088,7.90105839 4.7187865,7.90105839 C4.89990876,7.90105839 5.07284672,7.86511861 5.23119526,7.80213504 C7.53169708,9.55535584 10.5602464,10.3196989 13.6037409,9.63933394 C13.8816515,9.5767062 14.1542245,9.50091241 14.4218157,9.41764599 C11.4139051,9.83468978 8.30600365,8.91270985 5.99980839,7.05095803 C6.0702646,6.88513686 6.10869526,6.7022354 6.10869526,6.51114964 C6.10869526,5.74360401 5.48633212,5.12124088 4.7187865,5.12124088 C4.54442518,5.12124088 4.37789234,5.15468978 4.22381387,5.21340328 C3.70286496,4.51382299 3.27692518,3.74093978 2.96449818,2.90756387 C4.0597719,1.72724453 5.40413321,0.793877737 6.90541971,0.232718978 C6.90186131,0.304242701 6.89438869,0.375054745 6.89438869,0.448001825 C6.89438869,2.76202555 8.77001825,4.63801095 11.0843978,4.63801095 C13.1582299,4.63801095 14.8755109,3.1299635 15.2107117,1.15149635 C16.2454927,1.80979927 17.1649818,2.65527372 17.9271898,3.6309854 C17.7492701,3.84804745 17.6389599,4.12168796 17.6389599,4.42415146 C17.6389599,5.1205292 18.2040328,5.68524635 18.9004106,5.68524635 C18.9989781,5.68524635 19.0936314,5.67101277 19.1857938,5.64966241 C19.5729471,6.44531934 19.8650912,7.28865876 20.0519069,8.15833029 C16.4330201,10.8374453 9.43116788,10.4719982 9.43116788,10.4719982 C9.43116788,10.4719982 3.85943431,10.762719 0.0875364964,8.92445255 C0.339114964,7.1057573 1.06467153,5.37673358 2.1350365,3.91423358" id="path2914"/>
                </g>
                <g id="g2916" transform="translate(19.229420, 6.706897)">
                  <path d="M4.27007299,7.47262774 C4.52592153,7.2420438 4.6899635,6.91146898 4.6899635,6.53997263 C4.6899635,5.84359489 4.12489051,5.2785219 3.42851277,5.2785219 C3.35770073,5.2785219 3.28937956,5.28812956 3.22141423,5.29951642 C2.43678832,4.0732938 1.39702555,3.02783759 0.175784672,2.23645073 C1.98060219,1.95427007 3.67937956,1.18850365 5.08387774,0.0298905109 C6.10691606,1.86281934 6.69156022,3.9740146 6.69156022,6.22220803 C6.69156022,7.93343978 5.93611314,9.18777372 4.79564781,10.1079745 C4.73586679,9.19133212 4.55652372,8.30778285 4.27007299,7.47262774" id="path2918"/>
                </g>
                <g id="g2920" transform="translate(5.809150, 2.362809)">
                  <path d="M2.49087591,0 C3.11466241,1.72261861 4.19854927,3.26838504 5.65001825,4.44229927 C5.43758212,4.73337591 5.26250912,5.05114051 5.12978102,5.39203467 C3.35912409,5.93041971 1.79307482,6.93815693 0.578239051,8.27219891 C0.569343066,8.23341241 0.557956204,8.19569343 0.549060219,8.15690693 C0.319899635,7.13173358 0.277910584,6.10442518 0.392135036,5.10238139 C1.23938869,4.94438869 1.88132299,4.20175182 1.88132299,3.30823905 C1.88132299,2.77839416 1.65394161,2.30192518 1.29347628,1.96779197 C1.6204927,1.27461679 2.02259124,0.614178832 2.49087591,0" id="path2922"/>
                </g>
                <g id="g2924" transform="translate(0.164362, 0.995745)">
                  <path d="M7.82846715,0.355839416 C7.08440693,1.09562956 6.45990876,1.94537409 5.97739051,2.87162409 C5.88665146,2.85774635 5.79413321,2.84849453 5.69983577,2.84849453 C4.69067518,2.84849453 3.87260036,3.66656934 3.87260036,4.67537409 C3.87260036,5.39843978 4.29391423,6.02187044 4.90346715,6.31792883 C4.76504562,7.44095803 4.81201642,8.60668796 5.07320255,9.77455292 C5.14792883,10.1083303 5.23902372,10.4342792 5.34399635,10.7527555 C4.23057482,12.3817883 3.57832117,14.3513595 3.57832117,16.4732299 C3.57832117,16.5508029 3.58187956,16.6273084 3.58365876,16.7038139 C1.70197993,15.7604836 0.291076642,14.2734307 0.291076642,11.9334307 C0.291076642,6.75632299 3.38260949,2.30441606 7.81885949,0.313850365 C7.82206204,0.327728102 7.82490876,0.341961679 7.82846715,0.355839416" id="path2926"/>
                </g>
                <g id="g2928" transform="translate(8.828056, 0.053696)">
                  <path d="M9.96350365,7.82846715 C9.39024635,6.19801095 7.84020985,5.02694343 6.01368613,5.02694343 C5.03655109,5.02694343 4.14019161,5.36392336 3.42780109,5.9240146 C1.95925182,4.78034672 0.850812044,3.22141423 0.174005474,1.47815693 C0.477536496,1.15114051 0.802062044,0.842983577 1.1429562,0.553330292 C2.17062044,0.285739051 3.24845803,0.142335766 4.3604562,0.142335766 C8.83335766,0.142335766 12.7657391,2.45173358 15.037062,5.94073905 C13.5268796,6.98690693 11.7747263,7.66264599 9.96350365,7.82846715" id="path2930"/>
                </g>
              </g>
            </g>
          </g>
          <g id="g2932" transform="translate(29.605839, 17.080292)">
            <g id="g2934-Clipped" transform="translate(-0.000000, -0.000000)">
              <g id="g2950-Clipped" transform="translate(0.071168, 0.142336)">
                <mask id="mask-4" fill="white">
                  <use xlink:href="#path-3"/>
                </mask>
                <g id="path2946"/>
                <g id="g2950" mask="url(#mask-4)">
                  <g transform="translate(-0.355839, 0.000000)" id="g2952">
                    <g transform="translate(0.079068, 0.066542)">
                      <polygon id="path2954" fill="#FFFFFF" fill-rule="nonzero" points="12.810219 8.18430657 16.681396 9.10770985 12.7956296 9.30591241 15.9579745 11.7227737 12.3696898 10.4364142 14.8082573 13.8158212 11.4402372 11.5772354 12.6177099 15.5331022 10.3047536 12.2725456 10.2520894 16.3928102 8.73016423 12.7226825 7.46124088 16.4365785 7.52991788 12.0615328 5.33687956 15.9832391 6.52360401 11.8192062 2.96627737 14.4061588 5.75285584 10.9046989 1.33653285 12.52875 4.82197993 9.94998175 0.352636861 9.81262774 4.92232664 8.63337591 0.348722628 7.64449818 4.8632573 7.31712591 1.05613139 4.87927007 4.97641423 6.3004927 2.25637774 2.85561131 5.69343066 5.62760036 4.45582117 1.00489051 7.10931569 4.76682482 6.7374635 0.323813869 8.24373175 4.35156022 9.52582117 0.118138686 9.8375365 4.36437044 11.7405657 0.741569343 10.6161131 4.88531934 14.1008485 2.18592153 11.8512318 5.62760036 15.6743704 4.13805657 12.7511496 7.01074818 16.6710766 6.70259124"/>
                    </g>
                  </g>
                </g>
              </g>
            </g>
          </g>
          <g id="g2956" transform="translate(0.854015, 17.934307)">
            <g id="g2958-Clipped" transform="translate(0.000000, 0.000000)">
              <g id="g2958" transform="translate(0.000000, 0.000000)">
                <g id="g2974-Clipped">
                  <mask id="mask-6" fill="white">
                    <use xlink:href="#path-5"/>
                  </mask>
                  <g id="path2970"/>
                  <g id="g2974" opacity="0.35000604" mask="url(#mask-6)" fill="#373535" fill-rule="nonzero">
                    <g id="g2976" transform="translate(0.143510, 0.131696)">
                      <path d="M0,0 C12.0060219,12.0056661 21.5948266,15.7120894 30.2972354,17.4041058 C31.4487318,17.6279288 31.6665055,20.1440693 31.6665055,20.1440693 C31.6665055,20.1440693 31.8277007,18.2908577 32.633677,18.0492427 C33.4392974,17.8072719 34.4865328,20.9500456 34.4865328,20.9500456 C34.4865328,20.9500456 33.5197172,18.1296624 34.4865328,17.9684672 C35.4537044,17.8072719 37.2261405,20.7080748 37.2261405,20.7080748 C37.2261405,20.7080748 36.5012956,18.210438 36.9848814,18.0492427 C37.4677555,17.8880474 39.8849726,21.6748905 39.8849726,21.6748905 C39.8849726,21.6748905 38.4345712,19.1772536 39.8045529,18.9352828 C41.1748905,18.6936679 43.1732847,20.6401095 43.1732847,20.6401095 C43.1732847,20.6401095 41.6018978,18.8591332 42.3021898,18.6132482 C45.2837682,17.5653011 47.6963595,21.4403923 47.6963595,21.4403923 C47.6963595,21.4403923 47.1373358,19.7412591 45.6869343,17.8880474 C48.8289964,17.082427 51.1629471,21.8161588 51.1629471,21.8161588 L48.8289964,17.082427 C50.0377828,16.4372901 54.8729288,21.997281 54.8729288,21.997281 C54.8729288,21.997281 52.3749361,17.6460766 50.9245347,16.7600365 C51.7301551,16.1152555 54.630958,18.6936679 54.630958,18.6936679 C54.630958,18.6936679 52.2941606,15.7932208 53.1805566,15.6320255 C54.4697628,14.5844343 59.2234215,21.0304653 59.2234215,21.0304653 C59.2234215,21.0304653 57.3705657,17.2436223 54.630958,14.2620438 C56.9207847,13.1165967 62.6081661,20.4664599 62.6081661,20.4664599 C62.6081661,20.4664599 62.4469708,18.1296624 58.3373814,14.4232391 C61.3993796,14.8260493 65.3477737,20.6276551 65.3477737,20.6276551 C65.3477737,20.6276551 63.8973723,16.2764507 60.432208,13.2148084 C63.4386953,13.5275912 68.247865,20.9500456 68.247865,20.9500456 C68.247865,20.9500456 66.3950091,15.7932208 62.6081661,12.8116423 C66.7981752,11.8850365 72.841396,18.1296624 72.841396,18.1296624 C72.841396,18.1296624 70.4643887,13.6976825 67.3618248,11.8850365 C70.8269891,10.5556204 75.5810036,16.0348358 75.5810036,16.0348358 C75.5810036,16.0348358 70.8269891,8.70205292 63.2529471,9.02444343 C60.7677646,9.13012774 53.2506569,16.563969 37.1457208,15.9540602 C15.8736405,15.1480839 11.3615967,6.12364051 0,0" id="path2978"/>
                    </g>
                  </g>
                </g>
                <g id="g2980" transform="translate(0.635565, 1.043535)" fill="#373535" fill-rule="nonzero">
                  <path d="M0,0 C12.0060219,12.0056661 21.5944708,15.7117336 30.2968796,17.4041058 C31.4487318,17.6279288 31.6665055,20.1437135 31.6665055,20.1437135 C31.6665055,20.1437135 31.8273449,18.290146 32.633677,18.0488869 C33.4392974,17.8072719 34.4865328,20.9493339 34.4865328,20.9493339 C34.4865328,20.9493339 33.5197172,18.1289507 34.4865328,17.9681113 C35.4537044,17.8072719 37.2261405,20.707719 37.2261405,20.707719 C37.2261405,20.707719 36.5012956,18.2100821 36.9841697,18.0488869 C37.4677555,17.8876916 39.8849726,21.6748905 39.8849726,21.6748905 C39.8849726,21.6748905 38.4345712,19.1768978 39.8045529,18.9352828 C41.1741788,18.693312 43.1732847,20.6397536 43.1732847,20.6397536 C43.1732847,20.6397536 41.6018978,18.8587774 42.3021898,18.6128923 C45.2837682,17.5653011 47.6956478,21.4400365 47.6956478,21.4400365 C47.6956478,21.4400365 47.1366241,19.7409033 45.6869343,17.8876916 C48.8289964,17.0817153 51.1629471,21.8161588 51.1629471,21.8161588 L48.8289964,17.0817153 C50.0377828,16.4372901 54.8722172,21.9965693 54.8722172,21.9965693 C54.8722172,21.9965693 52.3749361,17.6460766 50.9245347,16.7596807 C51.7301551,16.1148996 54.630958,18.693312 54.630958,18.693312 C54.630958,18.693312 52.2941606,15.7925091 53.1805566,15.6316697 C54.4697628,14.5837226 59.2234215,21.0301095 59.2234215,21.0301095 C59.2234215,21.0301095 57.369854,17.2429106 54.630958,14.261688 C56.9207847,13.115885 62.6081661,20.466104 62.6081661,20.466104 C62.6081661,20.466104 62.4469708,18.1289507 58.3373814,14.4225274 C61.3993796,14.8256934 65.3477737,20.6272993 65.3477737,20.6272993 C65.3477737,20.6272993 63.8973723,16.2760949 60.432208,13.2140967 C63.4386953,13.5268796 68.247865,20.9493339 68.247865,20.9493339 C68.247865,20.9493339 66.3950091,15.7925091 62.6081661,12.8112865 C66.7981752,11.8846807 72.841396,18.1289507 72.841396,18.1289507 C72.841396,18.1289507 70.4643887,13.6976825 67.3618248,11.8846807 C70.8269891,10.5552646 75.5810036,16.0344799 75.5810036,16.0344799 C75.5810036,16.0344799 70.8269891,8.70169708 63.2522354,9.02408759 C60.7677646,9.13012774 53.2506569,16.563969 37.145365,15.9537044 C15.8736405,15.1480839 11.3612409,6.12364051 0,0" id="path2982"/>
                </g>
              </g>
            </g>
          </g>
          <g id="g2986" transform="translate(0.142336, 0.142336)">
            <g id="g3002-Clipped" transform="translate(0.355839, 0.000000)">
              <mask id="mask-8" fill="white">
                <use xlink:href="#path-7"/>
              </mask>
              <g id="path2998"/>
              <g id="g3002" opacity="0.35000604" mask="url(#mask-8)" fill="#373535" fill-rule="nonzero">
                <g id="g3004" transform="translate(0.184859, 0.242042)">
                  <path d="M0,16.3686131 C6.34532847,13.1856296 12.1472901,16.8518431 19.4594343,14.791177 C25.0187135,13.2240602 31.7874909,11.292208 40.9727737,12.6219799 C50.1584124,13.9510401 58.0149909,17.9396442 61.7623358,25.0710219 C62.9305566,28.2532938 67.6842153,24.3454653 67.6842153,24.3454653 C67.6842153,24.3454653 64.2197628,25.7958668 64.3005383,25.1108759 C64.380958,24.4262409 69.497573,22.0492336 69.497573,22.0492336 C69.497573,22.0492336 64.864188,23.499635 65.1463686,22.4118339 C65.4285493,21.3240328 70.9472628,16.9728285 70.9472628,16.9728285 C70.9472628,16.9728285 64.7029927,21.7268431 64.1795529,21.0824179 C63.6554015,20.4376369 66.838385,17.8186588 66.838385,17.8186588 C66.838385,17.8186588 61.5605748,21.0824179 59.7070073,20.1198723 C58.3740328,19.4284763 65.1865785,14.9580657 65.1865785,14.9580657 C65.1865785,14.9580657 60.7545985,18.3428102 59.7070073,17.4564142 C58.6597719,16.5696624 64.7029927,9.31801095 64.7029927,9.31801095 C64.7029927,9.31801095 57.8534398,16.7312135 57.1691606,16.3686131 C56.4838139,16.0060128 59.0622263,12.4604288 59.0622263,12.4604288 C59.0622263,12.4604288 55.6781934,16.167208 54.7519434,15.522427 C53.8253376,14.877646 59.5863777,5.24898723 59.5863777,5.24898723 C59.5863777,5.24898723 53.3417518,15.1192609 50.7633394,13.4681661 C54.8124361,4.5842792 53.301542,3.315 53.301542,3.315 C53.301542,3.315 52.7848631,12.3782299 47.7415511,12.1383942 C45.2033485,12.0174088 48.9499818,5.36997263 48.9499818,5.36997263 C48.9499818,5.36997263 45.501542,11.4413047 43.2049544,11.3203193 C47.4376642,3.31001825 45.9289051,0.0519525547 45.9289051,0.0519525547 C45.9289051,0.0519525547 46.6288412,6.89332117 40.8880839,10.7004471 C43.0633303,8.76717153 39.5230839,0.0519525547 39.5230839,0.0519525547 C39.5230839,0.0519525547 42.6373905,12.8945529 37.2261405,10.4460219 C36.3710584,10.0599361 37.1656478,4.04020073 37.1656478,4.04020073 C37.1656478,4.04020073 36.0778467,10.9299635 34.4466788,10.5670073 C33.4955201,10.3559945 28.4031022,1.01876825 28.4031022,1.01876825 C28.4031022,1.01876825 32.5731843,11.1110858 31.3042609,10.6879927 C30.3797901,10.3794799 28.645073,6.21580292 28.645073,6.21580292 C28.645073,6.21580292 29.4909033,10.3253923 28.645073,10.5670073 C27.7992427,10.8089781 23.0850821,6.21580292 23.0850821,6.21580292 C23.0850821,6.21580292 26.5904562,10.3253923 25.985885,11.1715785 C25.0699544,12.4536679 23.9963869,12.5138047 22.7224818,12.0174088 C20.8689142,11.2950547 18.3716332,7.90817518 18.3716332,7.90817518 C18.3716332,7.90817518 20.8610858,11.3373996 20.4258942,12.6219799 C19.7273814,14.6858485 12.5700274,8.63337591 12.5700274,8.63337591 C12.5700274,8.63337591 16.8002464,12.6219799 15.8334307,13.4681661 C14.866615,14.3139964 9.61656022,14.0524544 7.97720803,14.0570803 C3.14277372,14.0720255 1.46748175,15.2060858 0,16.3686131" id="path3006"/>
                </g>
              </g>
            </g>
            <g id="g3008" transform="translate(0.299190, 0.967278)" fill="#373535" fill-rule="nonzero">
              <path d="M0,16.3686131 C6.34532847,13.1856296 12.1469343,16.8518431 19.4590785,14.7908212 C25.0183577,13.2244161 31.7874909,11.292208 40.9731296,12.6219799 C50.1587682,13.951396 58.014635,17.94 61.7619799,25.0706661 C62.9302007,28.2532938 67.6838595,24.3458212 67.6838595,24.3458212 C67.6838595,24.3458212 64.2194069,25.7958668 64.3001825,25.1108759 C64.3806022,24.4262409 69.4972172,22.0492336 69.4972172,22.0492336 C69.4972172,22.0492336 64.8638321,23.4992792 65.1460128,22.4114781 C65.4281934,21.3240328 70.9476186,16.9728285 70.9476186,16.9728285 C70.9476186,16.9728285 64.7026369,21.7271989 64.1791971,21.082062 C63.6557573,20.4376369 66.838385,17.8190146 66.838385,17.8190146 C66.838385,17.8190146 61.560219,21.082062 59.7070073,20.1202281 C58.373677,19.4284763 65.1862226,14.9584215 65.1862226,14.9584215 C65.1862226,14.9584215 60.7542427,18.3428102 59.7070073,17.4564142 C58.6594161,16.5696624 64.7033485,9.31801095 64.7033485,9.31801095 C64.7033485,9.31801095 57.8534398,16.7312135 57.1688047,16.3686131 C56.4841697,16.0056569 59.0625821,12.4607847 59.0625821,12.4607847 C59.0625821,12.4607847 55.6778376,16.167208 54.7515876,15.522427 C53.8249818,14.8780018 59.5860219,5.24898723 59.5860219,5.24898723 C59.5860219,5.24898723 53.341396,15.1196168 50.7629836,13.4678102 C54.8120803,4.5842792 53.3011861,3.315 53.3011861,3.315 C53.3011861,3.315 52.7845073,12.3782299 47.7411953,12.1380383 C45.2029927,12.0170529 48.9496259,5.36997263 48.9496259,5.36997263 C48.9496259,5.36997263 45.5011861,11.4416606 43.2049544,11.3206752 C47.4380201,3.31001825 45.9285493,0.0519525547 45.9285493,0.0519525547 C45.9285493,0.0519525547 46.6284854,6.89367701 40.8877281,10.7008029 C43.0629745,8.76717153 39.5227281,0.0519525547 39.5227281,0.0519525547 C39.5227281,0.0519525547 42.6377464,12.8945529 37.2264964,10.4460219 C36.3714142,10.0595803 37.1660036,4.04020073 37.1660036,4.04020073 C37.1660036,4.04020073 36.0774909,10.9296077 34.4466788,10.5670073 C33.4951642,10.3559945 28.4027464,1.01876825 28.4027464,1.01876825 C28.4027464,1.01876825 32.5728285,11.1110858 31.3039051,10.6876369 C30.3794343,10.3798358 28.6447172,6.21615876 28.6447172,6.21615876 C28.6447172,6.21615876 29.4909033,10.3253923 28.6447172,10.5670073 C27.7988869,10.8086223 23.0850821,6.21615876 23.0850821,6.21615876 C23.0850821,6.21615876 26.5904562,10.3253923 25.9855292,11.1715785 C25.0695985,12.4536679 23.996031,12.5134489 22.7224818,12.0170529 C20.8685584,11.2950547 18.3712774,7.90817518 18.3712774,7.90817518 C18.3712774,7.90817518 20.8607299,11.3377555 20.4258942,12.6219799 C19.7270255,14.6854927 12.5700274,8.63337591 12.5700274,8.63337591 C12.5700274,8.63337591 16.8002464,12.6219799 15.8330748,13.4678102 C14.8662591,14.3139964 9.61620438,14.0520985 7.97685219,14.0570803 C3.14241788,14.0723814 1.46748175,15.2060858 0,16.3686131" id="path3010"/>
            </g>
          </g>
        </g>
      </g>
    </g>
  </g>
</svg>