<?xml version="1.0" encoding="UTF-8" standalone="yes"?>
<svg width="80px" height="80px" viewBox="0 0 80 80" version="1.1" xmlns="http://www.w3.org/2000/svg" xmlns:xlink="http://www.w3.org/1999/xlink">
  <title>Untitled 2</title>
  <g id="Page-1" stroke="none" stroke-width="1" fill="none" fill-rule="evenodd">
    <g id="Apache_kafka" transform="translate(16.000000, 1.000000)" fill="#000000" fill-rule="nonzero">
      <path d="M37.7274308,43.0365194 C34.7016241,43.0365194 31.9889415,44.3770643 30.1313213,46.487614 L25.3712747,43.1178382 C25.8765728,41.7266327 26.1667033,40.2327972 26.1667033,38.6692332 C26.1667033,37.1327755 25.8866676,35.6639899 25.3980071,34.2933477 L30.1473982,30.9592775 C32.0048314,33.0591716 34.7104103,34.3924258 37.7274308,34.3924258 C43.3122555,34.3924258 47.8565737,29.8488554 47.8565737,24.2632829 C47.8565737,18.6777103 43.3122555,14.1341399 37.7274308,14.1341399 C32.142606,14.1341399 27.5982878,18.6777103 27.5982878,24.2632829 C27.5982878,25.2630366 27.7493352,26.2270848 28.0203978,27.1400985 L23.2678287,30.4758513 C21.2825287,28.0129202 18.4240331,26.2932615 15.1671689,25.7683347 L15.1671689,20.0405011 C19.755418,19.0768267 23.2124946,15.0002318 23.2124946,10.1291429 C23.2124946,4.54357041 18.6681764,0 13.0833517,0 C7.49852689,0 2.95420873,4.54357041 2.95420873,10.1291429 C2.95420873,14.9349898 6.32174122,18.9612979 10.8182028,19.9937661 L10.8182028,25.7960018 C4.68171887,26.8731486 0,32.2285983 0,38.6692332 C0,45.141274 4.72807993,50.5163523 10.9088686,51.5568589 L10.9088686,57.683622 C6.36641982,58.6820672 2.95420873,62.7330514 2.95420873,67.5716127 C2.95420873,73.1571852 7.49852689,77.7007556 13.0833517,77.7007556 C18.6681764,77.7007556 23.2124946,73.1571852 23.2124946,67.5716127 C23.2124946,62.7330514 19.8002835,58.6820672 15.2578347,57.683622 L15.2578347,51.556672 C18.3862479,51.029717 21.216494,49.3836565 23.2214677,46.925053 L28.0132941,50.3167007 C27.7472788,51.221489 27.5982878,52.1760034 27.5982878,53.1656624 C27.5982878,58.7512349 32.142606,63.2948053 37.7274308,63.2948053 C43.3122555,63.2948053 47.8565737,58.7512349 47.8565737,53.1656624 C47.8565737,47.5800898 43.3122555,43.0365194 37.7274308,43.0365194 L37.7274308,43.0365194 Z M37.7274308,19.3521889 C40.4356268,19.3521889 42.6383378,21.5558346 42.6383378,24.2632829 C42.6383378,26.9707311 40.4356268,29.1741899 37.7274308,29.1741899 C35.0192347,29.1741899 32.8165238,26.9707311 32.8165238,24.2632829 C32.8165238,21.5558346 35.0192347,19.3521889 37.7274308,19.3521889 L37.7274308,19.3521889 Z M8.17225772,10.1291429 C8.17225772,7.42169466 10.3751556,5.21823593 13.0833517,5.21823593 C15.7915477,5.21823593 17.9942587,7.42169466 17.9942587,10.1291429 C17.9942587,12.8365912 15.7915477,15.0400499 13.0833517,15.0400499 C10.3751556,15.0400499 8.17225772,12.8365912 8.17225772,10.1291429 Z M17.9942587,67.5716127 C17.9942587,70.2790609 15.7915477,72.4825197 13.0833517,72.4825197 C10.3751556,72.4825197 8.17225772,70.2790609 8.17225772,67.5716127 C8.17225772,64.8641644 10.3751556,62.6607057 13.0833517,62.6607057 C15.7915477,62.6607057 17.9942587,64.8641644 17.9942587,67.5716127 Z M13.0829778,45.5183314 C9.30586031,45.5183314 6.23313179,42.4461637 6.23313179,38.6692332 C6.23313179,34.8921157 9.30586031,31.8193872 13.0829778,31.8193872 C16.8599083,31.8193872 19.9326368,34.8921157 19.9326368,38.6692332 C19.9326368,42.4461637 16.8599083,45.5183314 13.0829778,45.5183314 Z M37.7274308,58.0767563 C35.0192347,58.0767563 32.8165238,55.8731106 32.8165238,53.1656624 C32.8165238,50.4582141 35.0192347,48.2547554 37.7274308,48.2547554 C40.4356268,48.2547554 42.6383378,50.4582141 42.6383378,53.1656624 C42.6383378,55.8731106 40.4356268,58.0767563 37.7274308,58.0767563 Z" id="Shape"/>
    </g>
  </g>
</svg>