<?xml version="1.0" encoding="UTF-8" standalone="yes"?>
<svg width="80px" height="80px" viewBox="0 0 80 80" version="1.1" xmlns="http://www.w3.org/2000/svg" xmlns:xlink="http://www.w3.org/1999/xlink">
  <title>Untitled 2</title>
  <g id="Page-1" stroke="none" stroke-width="1" fill="none" fill-rule="evenodd">
    <g id="logo-mysql" fill-rule="nonzero">
      <polygon id="Fill-1" fill="#FFFFFE" points="0 80.3415641 79.8413196 80.3415641 79.8413196 0.329218107 0 0.329218107"/>
      <path d="M50.2639348,22.4141564 C49.9992273,22.4141564 49.8125318,22.4457613 49.6241694,22.4915226 L49.6241694,22.5224691 L49.6545074,22.5224691 C49.7805269,22.7683951 49.9992273,22.9392593 50.1539178,23.1545679 C50.2796039,23.4011523 50.3889541,23.6470782 50.51364,23.8933333 C50.5289757,23.8785185 50.543978,23.8623868 50.543978,23.8623868 C50.764012,23.7089712 50.8730288,23.4623868 50.8730288,23.0920165 C50.7786809,22.9837037 50.764012,22.8767078 50.6853332,22.7683951 C50.5919854,22.6146502 50.3889541,22.5376132 50.2639348,22.4141564" id="Fill-3" fill="#5B7F93"/>
      <path d="M25.4397711,52.8289712 L23.2781042,52.8289712 C23.2020925,49.2263374 22.9913933,45.8386831 22.6470068,42.6653498 L22.6280039,42.6653498 L19.3371628,52.8289712 L17.6912421,52.8289712 L14.4204041,42.6653498 L14.4010678,42.6653498 C14.1586971,45.7129218 14.0060068,49.1005761 13.9423304,52.8289712 L11.9716929,52.8289712 C12.0990459,48.2946502 12.4177618,44.0441152 12.9278405,40.0763786 L15.6065871,40.0763786 L18.7250683,49.4465844 L18.7444046,49.4465844 L21.8818888,40.0763786 L24.4449509,40.0763786 C25.0063709,44.7232922 25.3377553,48.975144 25.4397711,52.8289712" id="Fill-4" fill="#196D80"/>
      <path d="M34.8138842,43.4202469 C33.9337484,48.1362963 32.7729026,51.5634568 31.3316802,53.7013992 C30.2088403,55.3488066 28.9789839,56.1725103 27.6394438,56.1725103 C27.2823887,56.1725103 26.8423208,56.0661728 26.3195735,55.855144 L26.3195735,54.7183539 C26.5749462,54.7552263 26.8743258,54.7749794 27.2190456,54.7749794 C27.8438087,54.7749794 28.3472197,54.6044444 28.7306122,54.2640329 C29.1893497,53.8492181 29.4187184,53.3830453 29.4187184,52.8665021 C29.4187184,52.5135802 29.2396908,51.7896296 28.8833024,50.694321 L26.5109364,43.4202469 L28.6345974,43.4202469 L30.33686,48.8605761 C30.7195858,50.0958025 30.8789437,50.9580247 30.8152672,51.4495473 C31.7464109,48.9935802 32.3968446,46.317037 32.7669017,43.4202469 L34.8138842,43.4202469" id="Fill-5" fill="#196D80"/>
      <path d="M48.148275,50.2778601 C47.6251943,49.4465844 47.3631539,48.1125926 47.3631539,46.273251 C47.3631539,43.0620576 48.3519731,41.4554733 50.3286115,41.4554733 C51.3621043,41.4554733 52.1205546,41.8396708 52.6056295,42.6074074 C53.1280434,43.4390123 53.3900839,44.7614815 53.3900839,46.575144 C53.3900839,49.8120165 52.4012646,51.4311111 50.4246263,51.4311111 C49.3914669,51.4311111 48.6326831,51.0472428 48.148275,50.2778601 M55.838795,53.1364609 L53.4650954,51.9805761 C53.6764614,51.8093827 53.877159,51.6246914 54.0588537,51.4110288 C55.0666759,50.2409877 55.5710871,48.5093004 55.5710871,46.2166255 C55.5710871,41.9976955 53.8938282,39.8870782 50.539644,39.8870782 C48.8943902,39.8870782 47.6121923,40.4220576 46.6940506,41.4936626 C45.6858951,42.6650206 45.1824841,44.3901235 45.1824841,46.6699588 C45.1824841,48.9116049 45.6285529,50.5560494 46.5213573,51.6006584 C47.3378166,52.544856 48.5686732,53.0176132 50.2142605,53.0176132 C50.8286886,53.0176132 51.3924423,52.9428807 51.9048547,52.7934156 L54.9959983,54.5698765 L55.838795,53.1364609" id="Fill-7" fill="#E6892E"/>
      <path d="M44.2820118,49.2941564 C44.2820118,50.3756379 43.8796164,51.2635391 43.0774926,51.9581893 C42.2747021,52.6498765 41.1962023,52.9965432 39.8456606,52.9965432 C38.5824657,52.9965432 37.3582768,52.5975309 36.1724271,51.8057613 L36.7271794,50.7104527 C37.7476702,51.2141564 38.671146,51.465679 39.500274,51.465679 C40.2780607,51.465679 40.8868213,51.2948148 41.3272225,50.957037 C41.7666237,50.6169547 42.0299976,50.1425514 42.0299976,49.5407407 C42.0299976,48.7835391 41.4952485,48.1362963 40.5140971,47.5934156 C39.6082906,47.1025514 37.7980113,46.0776955 37.7980113,46.0776955 C36.8171933,45.3711934 36.3254508,44.6130041 36.3254508,43.3639506 C36.3254508,42.3308642 36.692174,41.4959671 37.4246204,40.8605761 C38.1587336,40.2241975 39.1058798,39.9058436 40.2657254,39.9058436 C41.4645771,39.9058436 42.5547453,40.221893 43.5365634,40.851358 L43.0378198,41.945679 C42.1976902,41.5940741 41.369229,41.4176132 40.5524363,41.4176132 C39.8896674,41.4176132 39.3789219,41.5746502 39.022867,41.8906996 C38.6648117,42.2041152 38.4434442,42.6074074 38.4434442,43.09893 C38.4434442,43.8541564 38.9898619,44.5093004 39.9986842,45.062716 C40.9158257,45.5539095 42.7704452,46.5985185 42.7704452,46.5985185 C43.7792676,47.3037037 44.2820118,48.0556379 44.2820118,49.2941564" id="Fill-8" fill="#E6892E"/>
      <path d="M66.1793906,35.8047737 C64.9305312,35.7738272 63.963382,35.8969547 63.1522568,36.2360494 C62.9182207,36.3285597 62.544163,36.3285597 62.5121581,36.6212346 C62.6378441,36.7443621 62.6528464,36.9445267 62.7628634,37.1147325 C62.9495589,37.4228807 63.2766094,37.8380247 63.5736552,38.0546502 C63.9013724,38.3012346 64.2290897,38.5468313 64.5728094,38.7624691 C65.1809032,39.1338272 65.8676758,39.3484774 66.4597672,39.7185185 C66.8041537,39.9341564 67.1462064,40.2110288 67.4905929,40.4427984 C67.6616193,40.5662551 67.7699694,40.766749 67.9893365,40.8427984 L67.9893365,40.7963786 C67.8793196,40.658107 67.8486482,40.4576132 67.7399647,40.3028807 C67.584274,40.1497942 67.4279166,40.0102058 67.2715591,39.8567901 C66.8188226,39.2559671 66.2564025,38.7325103 65.6493088,38.3012346 C65.149565,37.9611523 64.0567297,37.49893 63.8546986,36.9306996 C63.8546986,36.9306996 63.8383627,36.9142387 63.823027,36.8990947 C64.1664133,36.8678189 64.5728094,36.7443621 64.9001932,36.6508642 C65.4299416,36.5125926 65.9136829,36.5438683 66.4597672,36.4055967 C66.7098058,36.3433745 66.959511,36.2660082 67.2102163,36.1902881 L67.2102163,36.0506996 C66.9278394,35.7738272 66.7258082,35.4034568 66.4294292,35.1417284 C65.6343065,34.4638683 64.7595048,33.8021399 63.8546986,33.2464198 C63.3702905,32.9382716 62.7461942,32.7387654 62.2311147,32.4760494 C62.0447526,32.3835391 61.7330378,32.3377778 61.6233543,32.1830453 C61.3423109,31.8439506 61.18562,31.3978601 60.9832555,30.9965432 C60.5311857,30.1501235 60.0934515,29.210535 59.7040581,28.3153909 C59.4233481,27.7148971 59.251655,27.1144033 58.9082686,26.5593416 C57.3003539,23.9394239 55.5534177,22.353251 52.8696702,20.7967078 C52.2922478,20.472428 51.6058085,20.3341564 50.8730288,20.1646091 C50.4823018,20.1484774 50.092575,20.1185185 49.7025149,20.1033745 C49.4524763,19.9950617 49.2024377,19.7020576 48.9844041,19.5634568 C48.0946001,19.0090535 45.801913,17.8074074 45.1461451,19.3942387 C44.7247468,20.3963786 45.7702414,21.3820576 46.1292968,21.8906996 C46.3943377,22.2446091 46.7380574,22.6459259 46.9244195,23.0459259 C47.0337697,23.3079835 47.0651079,23.5858436 47.1747915,23.862716 C47.4241633,24.5405761 47.657866,25.2958025 47.98625,25.9279012 C48.1572764,26.2515226 48.3443053,26.5909465 48.5626723,26.8823045 C48.6886918,27.0528395 48.906392,27.1288889 48.9533993,27.4070782 C48.735699,27.7148971 48.7186964,28.1771193 48.5940105,28.5626337 C48.0325905,30.3038683 48.2506242,32.4609053 49.046747,33.7395885 C49.2957854,34.1247737 49.8895437,34.9725103 50.6853332,34.6482305 C51.3874415,34.371358 51.2314174,33.4930041 51.4341154,32.722963 C51.4807892,32.5369547 51.4494511,32.4148148 51.5427988,32.2916872 L51.5427988,32.322963 C51.7611658,32.7535802 51.9801996,33.1687243 52.1828976,33.6013169 C52.6673057,34.3555556 53.5091022,35.1417284 54.2118773,35.6651852 C54.5852683,35.9433745 54.8819807,36.4204115 55.3500529,36.5902881 L55.3500529,36.5438683 L55.3193815,36.5438683 C55.225367,36.4055967 55.0853454,36.3433745 54.9603261,36.2360494 C54.6796162,35.9585185 54.3682348,35.6194239 54.1488676,35.3116049 C53.4937665,34.4490535 52.9156773,33.4930041 52.4019314,32.5069959 C52.1515594,32.0283128 51.9335258,31.504856 51.7304944,31.0274897 C51.6371467,30.8434568 51.6371467,30.5652675 51.4807892,30.4730864 C51.2460864,30.8118519 50.9037002,31.104856 50.7323404,31.5196708 C50.435628,32.1830453 50.4046232,32.9995062 50.2946062,33.8472428 C50.2325966,33.8633745 50.2639348,33.8472428 50.2325966,33.8778601 C49.733853,33.7547325 49.5621599,33.2464198 49.3744642,32.8161317 C48.906392,31.720823 48.8277132,29.9644444 49.2341092,28.7009053 C49.3427927,28.3779424 49.8121984,27.3609877 49.6241694,27.0528395 C49.5298215,26.7588477 49.2181068,26.5909465 49.046747,26.3588477 C48.8443824,26.0661728 48.6246819,25.6971193 48.4856604,25.3728395 C48.1109359,24.5102881 47.9225735,23.5545679 47.5181778,22.6920165 C47.3308156,22.2906996 47.0024316,21.8745679 46.7380574,21.5055144 C46.4410116,21.0893827 46.1136278,20.7967078 45.8792583,20.3041975 C45.801913,20.134321 45.6925628,19.8567901 45.8169153,19.672428 C45.8475867,19.5489712 45.9109298,19.5025514 46.0359491,19.4712757 C46.2376469,19.3020576 46.8157361,19.5173663 47.0181006,19.6098765 C47.5958565,19.8403292 48.0795978,20.057284 48.5626723,20.3802469 C48.7813727,20.5346502 49.0154088,20.8273251 49.2957854,20.9050206 L49.6241694,20.9050206 C50.1232464,21.0120165 50.6853332,20.9349794 51.1537388,21.0742387 C51.9801996,21.3359671 52.7289818,21.7211523 53.4004188,22.137284 C55.4437341,23.4162963 57.1289941,25.2348971 58.2675031,27.4070782 C58.4551987,27.7609877 58.5338775,28.0849383 58.7052373,28.4539918 C59.0329546,29.210535 59.4390172,29.9809053 59.7660677,30.7196708 C60.0934515,31.4439506 60.4061664,32.1830453 60.8749054,32.784856 C61.1082748,33.1078189 62.0447526,33.2773663 62.466151,33.4469136 C62.7775323,33.5851852 63.2619404,33.708642 63.5429838,33.8778601 C64.073399,34.2011523 64.602814,34.5715226 65.1028912,34.9264198 C65.3519296,35.1111111 66.1323833,35.4959671 66.1793906,35.8047737" id="Fill-9" fill="#196D80"/>
      <path d="M65.0612181,52.8276543 L65.4036042,52.8276543 L65.4036042,51.5302058 L65.8516734,51.5302058 L65.8516734,51.2651852 L64.5958129,51.2651852 L64.5958129,51.5302058 L65.0612181,51.5302058 L65.0612181,52.8276543 Z M67.6666201,52.8276543 L67.9893365,52.8276543 L67.9893365,51.2651852 L67.5039283,51.2651852 L67.1088673,52.3302058 L66.678801,51.2651852 L66.2110621,51.2651852 L66.2110621,52.8276543 L66.5164426,52.8276543 L66.5164426,51.6385185 L66.5337786,51.6385185 L66.9841814,52.8276543 L67.216884,52.8276543 L67.6666201,51.6385185 L67.6666201,52.8276543 L67.6666201,52.8276543 Z" id="Fill-10" fill="#E6892E"/>
      <polyline id="Fill-6" fill="#E6892E" points="63.5863238 52.8289712 57.4457096 52.8289712 57.4457096 40.0763786 59.5120285 40.0763786 59.5120285 51.2602469 63.5863238 51.2602469 63.5863238 52.8289712"/>
    </g>
  </g>
</svg>