<?xml version="1.0" encoding="UTF-8" standalone="yes"?>
<svg width="80px" height="80px" viewBox="0 0 80 80" version="1.1" xmlns="http://www.w3.org/2000/svg" xmlns:xlink="http://www.w3.org/1999/xlink">
  <title>Untitled 2</title>
  <g id="Page-1" stroke="none" stroke-width="1" fill="none" fill-rule="evenodd">
    <g id="Vault_PrimaryLogo_FullColor_RGB" transform="translate(2.000000, 1.000000)" fill="#000000" fill-rule="nonzero">
      <path d="M0,0.921818182 L38.0545455,77.3145455 L76.3927273,0.921818182 L0,0.921818182 Z M42.5454545,16.2854545 L46.9772727,16.2854545 L46.9772727,20.6818182 L42.5454545,20.6818182 L42.5454545,16.2854545 Z M33.7290909,34.0127273 L29.3445455,34.0127273 L29.3445455,29.5454545 L33.7645455,29.5454545 L33.7290909,34.0127273 Z M33.7290909,27.3709091 L29.3445455,27.3709091 L29.3445455,22.9036364 L33.7645455,22.9036364 L33.7290909,27.3709091 Z M33.7290909,20.7290909 L29.3445455,20.7290909 L29.3445455,16.2618182 L33.7645455,16.2618182 L33.7290909,20.7290909 Z M40.3709091,40.6663636 L35.9863636,40.6663636 L35.9863636,36.1872727 L40.4063636,36.1872727 L40.3709091,40.6663636 Z M40.3709091,34.0127273 L35.9863636,34.0127273 L35.9863636,29.5454545 L40.4063636,29.5454545 L40.3709091,34.0127273 Z M40.3709091,27.3709091 L35.9863636,27.3709091 L35.9863636,22.9036364 L40.4063636,22.9036364 L40.3709091,27.3709091 Z M40.3709091,20.7290909 L35.9863636,20.7290909 L35.9863636,16.2618182 L40.4063636,16.2618182 L40.3709091,20.7290909 Z M42.5454545,22.9036364 L46.9772727,22.9036364 L46.9772727,27.3236364 L42.5454545,27.3236364 L42.5454545,22.9036364 Z M42.5454545,33.9654545 L42.5454545,29.5454545 L46.9654545,29.5454545 L46.9654545,33.9654545 L42.5454545,33.9654545 Z" id="Shape"/>
    </g>
  </g>
</svg>