<?xml version="1.0" encoding="UTF-8"?>
<svg width="80px" height="80px" viewBox="0 0 80 80" version="1.1" xmlns="http://www.w3.org/2000/svg" xmlns:xlink="http://www.w3.org/1999/xlink">
    <title>Untitled 2</title>
    <g id="Page-1" stroke="none" stroke-width="1" fill="none" fill-rule="evenodd">
        <g id="Consul_PrimaryLogo_ColorWhite_RGB" transform="translate(1.000000, 2.000000)">
            <path d="M37.3218182,46.4454634 C32.8573561,46.4519768 29.2329063,42.8381042 29.2263721,38.3736421 C29.2198555,33.90918 32.8337255,30.2847277 37.2981876,30.2781903 C41.7626497,30.2716705 45.3871046,33.8855379 45.3937145,38.35 C45.4030779,40.4958309 44.5564475,42.5568426 43.0413212,44.0764056 C41.5261949,45.5959686 39.4676675,46.4486217 37.3218182,46.4454634" id="Path" fill="#8E134A"></path>
            <path d="M53.0518182,42.0845455 C51.5402617,42.0845379 50.1777692,41.1733611 49.6004318,39.7764056 C49.0230945,38.3794502 49.3447784,36.7722326 50.4153028,35.7050959 C51.4858271,34.6379593 53.0940563,34.3213712 54.4891748,34.9031334 C55.8842933,35.4848956 56.791147,36.8502693 56.7863827,38.3618182 C56.7895378,39.3521681 56.3967165,40.3026999 55.6953208,41.0018759 C54.9939251,41.701052 54.0421531,42.0908585 53.0518182,42.0845455" id="Path" fill="#CA2171"></path>
            <path d="M66.69,45.6063636 L66.69,45.6063636 C66.1508303,47.4987049 64.1976489,48.6127122 62.2943977,48.1134187 C60.3911465,47.6141251 59.2363497,45.6847795 59.6955467,43.7714585 C60.1547438,41.8581375 62.0594019,40.663061 63.9819481,41.0819589 C65.9044943,41.5008567 67.1393228,43.3799864 66.7609091,45.3109091 C66.7609091,45.3936364 66.7609091,45.4881818 66.69,45.6063636" id="Path" fill="#CA2171"></path>
            <path d="M64.0545455,35.9981818 C62.583602,36.3512388 61.044964,35.7820702 60.157892,34.5567429 C59.2708201,33.3314155 59.2105506,31.6919865 60.0052577,30.4048329 C60.7999647,29.1176792 62.2926578,28.4370714 63.7855542,28.6811704 C65.2784505,28.9252694 66.476636,30.0458547 66.82,31.5190909 C66.9139997,31.9990775 66.9139997,32.4927407 66.82,32.9727273 C66.6289674,34.4762033 65.5034046,35.6920012 64.0190909,35.9981818" id="Path" fill="#CA2171"></path>
            <path d="M77.3145455,45.1927273 C76.8415201,47.0105058 75.0055221,48.1197153 73.176368,47.6927876 C71.347214,47.2658598 70.1919519,45.4584849 70.5725093,43.6191242 C70.9530667,41.7797635 72.7306636,40.579187 74.5790556,40.9131308 C76.4274477,41.2470746 77.6725715,42.9937576 77.3854545,44.85 C77.3426272,44.9594165 77.3186514,45.0752994 77.3145455,45.1927273" id="Path" fill="#CA2171"></path>
            <path d="M74.2772727,35.8327273 C72.7352127,36.063818 71.2158505,35.2935318 70.4908155,33.9130694 C69.7657806,32.532607 69.9939612,30.844491 71.0594728,29.7060546 C72.1249844,28.5676183 73.7943244,28.2283453 75.2196952,28.8605402 C76.6450659,29.4927351 77.5141033,30.957855 77.3854545,32.5118182 C77.2247349,34.1966226 75.9477678,35.5609867 74.2772727,35.8327273" id="Path" fill="#CA2171"></path>
            <path d="M71.6772727,58.0981818 L71.6772727,58.0981818 C70.7420493,59.7893452 68.6822528,60.5033403 66.9009988,59.7537999 C65.1197449,59.0042595 64.1901595,57.0323514 64.7454682,55.1813223 C65.3007769,53.3302932 67.1623068,52.1957196 69.0619998,52.5504633 C70.9616928,52.905207 72.2883145,54.6351276 72.1381818,56.5618182 C72.1128686,57.103989 71.9545823,57.63161 71.6772727,58.0981818" id="Path" fill="#CA2171"></path>
            <path d="M70.33,23.8490909 C68.5313752,24.855105 66.2578003,24.2139903 65.2497154,22.4165254 C64.2416305,20.6190604 64.8801264,18.3447486 66.6764292,17.3345943 C68.472732,16.3244401 70.7477777,16.9603163 71.76,18.7554545 C72.1426055,19.40769 72.3003886,20.1675402 72.2090909,20.9181818 C72.106299,22.1459 71.4027584,23.2432464 70.33,23.8490909" id="Path" fill="#CA2171"></path>
            <path d="M37.4636364,75.9204423 C21.1306713,75.8914134 6.69852811,65.284762 1.79430056,49.705445 C-3.10992698,34.126128 2.64414217,17.1650402 16.0155997,7.78577109 C29.3870572,-1.59349806 47.2939003,-1.22910998 60.2727273,8.68636364 L55.6990909,14.5954545 C43.3732105,5.1773602 25.8957529,6.73039309 15.423653,18.1742977 C4.95155313,29.6182024 4.95155313,47.1645249 15.423653,58.6084295 C25.8957529,70.0523342 43.3732105,71.6053671 55.6990909,62.1872727 L60.2727273,68.2263636 C53.7353634,73.2533085 45.7101921,75.9602446 37.4636364,75.9204423 Z" id="Path" fill="#CA2171" fill-rule="nonzero"></path>
        </g>
    </g>
</svg>