<?xml version="1.0" encoding="UTF-8"?>
<svg width="80px" height="80px" viewBox="0 0 80 80" version="1.1" xmlns="http://www.w3.org/2000/svg" xmlns:xlink="http://www.w3.org/1999/xlink">
    <title>Untitled 2</title>
    <g id="Page-1" stroke="none" stroke-width="1" fill="none" fill-rule="evenodd">
        <g id="elastic-search-logo-color-horizontal" transform="translate(5.000000, 1.000000)" fill-rule="nonzero">
            <g id="group">
                <path d="M68.9355333,14.0226667 L68.9398667,14.014 C61.7855333,5.45133333 51.0302,0 38.9994222,0 C23.6897556,0 10.4470889,8.82844444 4.06408889,21.6666667 L54.8969778,21.6666667 C58.5442,21.6666667 62.0946444,20.41 64.8853111,18.0613333 C66.3355333,16.8407778 67.6918667,15.5118889 68.9355333,14.0226667" id="Fill-1" fill="#FEC514"></path>
                <path d="M0,39.0007222 C0,42.4991667 0.468,45.8863889 1.33177778,49.1118333 L49.1111111,49.1118333 C54.6953333,49.1118333 59.2222222,44.5849444 59.2222222,39.0007222 C59.2222222,33.4165 54.6953333,28.8896111 49.1111111,28.8896111 L1.33177778,28.8896111 C0.468,32.1150556 0,35.5022778 0,39.0007222" id="Fill-4" fill="#343741"></path>
                <path d="M68.9355333,63.9787778 L68.9398667,63.9874444 C61.7855333,72.5501111 51.0302,78.0014444 38.9994222,78.0014444 C23.6897556,78.0014444 10.4470889,69.173 4.06408889,56.3347778 L54.8969778,56.3347778 C58.5442,56.3347778 62.0946444,57.5914444 64.8853111,59.9401111 C66.3355333,61.1606667 67.6918667,62.4895556 68.9355333,63.9787778" id="Fill-6" fill="#00BFB3"></path>
            </g>
        </g>
    </g>
</svg>