<?xml version="1.0" encoding="UTF-8"?>
<svg width="80px" height="80px" viewBox="0 0 80 80" version="1.1" xmlns="http://www.w3.org/2000/svg" xmlns:xlink="http://www.w3.org/1999/xlink">
    <title>Untitled 2</title>
    <g id="Page-1" stroke="none" stroke-width="1" fill="none" fill-rule="evenodd">
        <g id="MongoDB_Logo_FullColorBlack_RGB">
            <rect id="Rectangle" fill="#D8D8D8" x="0" y="0" width="80" height="80"></rect>
            <path d="M10.8659764,37.0307357 C9.80915531,32.368574 7.60646685,31.1274478 7.04457766,30.2500999 C6.81288005,29.8636067 6.60762678,29.4618638 6.43022707,29.0476294 C6.40054496,29.4617984 6.34601272,29.7227248 5.99396912,30.0368029 C5.2871208,30.66703 2.28508629,33.1133878 2.03244323,38.4106085 C1.79705722,43.3495731 5.66332425,46.3950954 6.17413261,46.7098638 C6.56690282,46.9031426 7.04526794,46.7140054 7.27858311,46.5366031 C9.14234332,45.2575114 11.688792,41.8475204 10.8680472,37.0307357" id="Path" fill="#10AA50" fill-rule="nonzero"></path>
            <path d="M6.59037239,44.079891 C6.49304269,45.3023797 6.42332425,46.0126794 6.17620345,46.7112443 C6.17620345,46.7112443 6.33841962,47.875059 6.45231608,49.1079019 L6.85544051,49.1079019 C6.95159909,48.2397487 7.09841925,47.3779582 7.29514986,46.5269391 C6.773297,46.2701544 6.61039055,45.1525886 6.59037239,44.079891 Z" id="Path" fill="#B8C4C2" fill-rule="nonzero"></path>
            <path d="M7.29445958,46.5276294 L7.29445958,46.5276294 C6.76708447,46.28396 6.61453224,45.1429246 6.59106267,44.079891 C6.72148453,42.3263402 6.75950262,40.5671393 6.70495913,38.8095913 C6.67734787,37.8873751 6.71807448,30.2680472 6.47785649,29.1525522 C6.64217879,29.530359 6.83150565,29.8967907 7.04457766,30.2494096 C7.60646685,31.1274478 9.80984559,32.368574 10.8659764,37.0307357 C11.688792,41.8392371 9.15614896,45.2402543 7.29445958,46.5276294 Z" id="Path" fill="#12924F" fill-rule="nonzero"></path>
            <path d="M76.8058129,44.8419619 C76.1754292,44.8419013 75.6636306,44.3323809 75.6607456,43.7020037 C75.6578849,43.0716265 76.1650181,42.5574625 76.7953751,42.5516562 C77.4257321,42.54585 77.9422505,43.0505851 77.95099,43.6809083 C77.9592834,43.9885425 77.8418228,44.2862663 77.6257167,44.5053685 C77.4096106,44.7244706 77.1135322,44.8460191 76.8058129,44.8419619 M76.8058129,42.6551499 C76.3838665,42.652357 76.0018611,42.9042339 75.8381927,43.2931545 C75.6745242,43.6820751 75.7614845,44.1313055 76.0584631,44.4310559 C76.3554417,44.7308064 76.8038449,44.8219361 77.1942692,44.6618877 C77.5846935,44.5018393 77.8401082,44.1221903 77.8412352,43.7002361 C77.8466628,43.4231143 77.7396351,43.1556063 77.5445553,42.9587057 C77.3494754,42.7618051 77.0829732,42.652297 76.8058129,42.6551499 M77.0819255,44.4208901 L76.786485,43.7837602 L76.5483379,43.7837602 L76.5483379,44.4208901 L76.3750772,44.4208901 L76.3750772,42.9712988 L76.8023615,42.9712988 C77.1205813,42.9712988 77.2531153,43.1093551 77.2531153,43.3764941 C77.2531153,43.5891008 77.1530245,43.7216349 76.9666485,43.7623615 L77.271753,44.4188193 L77.0819255,44.4208901 Z M76.5552407,43.6339691 L76.8058129,43.6339691 C77.0087557,43.6339691 77.0860672,43.564941 77.0860672,43.3799455 C77.0860672,43.19495 77.0122071,43.1321344 76.7837239,43.1321344 L76.5552407,43.1321344 L76.5552407,43.6339691 Z" id="Shape" fill="#21313C" fill-rule="nonzero"></path>
            <path d="M59.7620708,43.7982561 C60.0720073,44.0460672 60.6911898,44.1482289 61.2372025,44.1482289 C61.9447411,44.1482289 62.6384741,44.0170754 63.3163306,43.4047956 C64.0066122,42.7773297 64.4815259,41.817148 64.4815259,40.2840327 C64.4815259,38.8109718 63.9210173,37.6154042 62.7710082,36.9154587 C62.1221435,36.5075023 61.2813806,36.3466667 60.3225795,36.3466667 C60.0464668,36.3466667 59.7620708,36.3611626 59.600545,36.4343324 C59.5343237,36.4866066 59.4874395,36.5594836 59.4673206,36.6414169 C59.4383288,36.9037239 59.4383288,38.9013987 59.4383288,40.0824705 C59.4383288,41.2932243 59.4383288,42.981653 59.4673206,43.1887375 C59.4825068,43.364069 59.5708629,43.6719346 59.7620708,43.8010173 M56.8187103,35.6908992 C57.0692825,35.6908992 58.021871,35.7343869 58.4650318,35.7343869 C59.2933697,35.7343869 59.8656131,35.6908992 61.4139146,35.6908992 C62.711644,35.6908992 63.8036694,36.0408719 64.5843778,36.7111353 C65.528683,37.5284287 66.0339691,38.6653224 66.0339691,40.0507175 C66.0339691,42.0194005 65.1366031,43.1569846 64.2344051,43.7982561 C63.3370391,44.4692098 62.1697729,44.8481744 60.5068847,44.8481744 C59.6219437,44.8481744 58.102634,44.8191826 56.8345867,44.8046866 L56.808356,44.8046866 C56.7489918,44.6880291 56.9167302,44.2331335 57.0202725,44.2213987 C57.3654133,44.182743 57.4565304,44.1689373 57.6152952,44.1033606 C57.8831244,43.9936058 57.9459401,43.8569301 57.9756222,43.3758038 C58.0198002,42.471535 58.0053043,41.3926249 58.0053043,40.1673751 C58.0053043,39.2927884 58.0198002,37.5864124 57.9908084,37.0466122 C57.9459401,36.595168 57.7554223,36.4785104 57.369555,36.3908447 C57.0959174,36.3327171 56.8194272,36.2889395 56.5412171,36.2596912 C56.5122252,36.1720254 56.7386376,35.7764941 56.8124977,35.6908992" id="Shape" fill="#21313C" fill-rule="nonzero"></path>
            <path d="M69.68901,36.430881 C69.6303361,36.4453769 69.5564759,36.5917166 69.5564759,36.6641962 C69.5412897,37.1895005 69.5267938,38.5597094 69.5267938,39.5074659 C69.5344279,39.5445068 69.563543,39.5733499 69.600654,39.5806358 C69.7918619,39.5951317 70.2640145,39.6103179 70.662307,39.6103179 C71.2228156,39.6103179 71.547248,39.537148 71.72396,39.4494823 C72.1961126,39.2161671 72.4142416,38.7053588 72.4142416,38.151753 C72.4142416,36.8830154 71.5293006,36.4018892 70.2170754,36.4018892 C70.0396835,36.3996481 69.8623415,36.4093339 69.6862489,36.430881 M73.0341144,42.2637602 C73.0341144,40.9805268 72.0898093,40.2515895 70.3641054,40.2515895 C70.2909355,40.2515895 69.742852,40.2370936 69.6123887,40.2660854 C69.5682107,40.2805813 69.5240327,40.3095731 69.5240327,40.3392552 C69.5240327,41.25802 69.5088465,42.7303906 69.5537148,43.3136785 C69.5833969,43.5614896 69.7607993,43.9114623 69.9809991,44.013624 C70.2170754,44.1447775 70.7479019,44.1737693 71.1165123,44.1737693 C72.1339873,44.1737693 73.0341144,43.6056676 73.0341144,42.2637602 M67.0245232,35.7164396 C67.1577475,35.7164396 67.5498274,35.7599273 68.5528065,35.7599273 C69.4964214,35.7599273 70.2633243,35.7309355 71.1758765,35.7309355 C72.3113896,35.7309355 73.8741871,36.1395822 73.8741871,37.830772 C73.8741871,38.6591099 73.2846866,39.3328247 72.5177838,39.6538056 C72.4736058,39.6683015 72.4736058,39.6972934 72.5177838,39.7117893 C73.609119,39.9879019 74.5672298,40.6595459 74.5672298,41.9427793 C74.5672298,43.1970209 73.7858311,43.9846322 72.6503179,44.4802543 C71.9600363,44.7867393 71.1020163,44.8882107 70.2343324,44.8882107 C69.5709718,44.8882107 67.7928065,44.8191826 66.8043233,44.8302271 C66.7007811,44.7867393 66.8988919,44.3194187 66.987248,44.2469391 C67.2137102,44.2399768 67.4384137,44.2047292 67.6561308,44.1420163 C68.009555,44.0550409 68.0516621,43.9411444 68.0958401,43.4158401 C68.1255223,42.9637057 68.1255223,41.3449955 68.1255223,40.1929155 C68.1255223,38.617693 68.1407084,37.5539691 68.1255223,37.0286649 C68.1110263,36.6207084 67.9633061,36.4888647 67.6830518,36.4163851 C67.4621617,36.3722071 67.0935513,36.3287193 66.7988011,36.2852316 C66.724941,36.2120618 66.9520436,35.7744233 67.0252134,35.7164396" id="Shape" fill="#21313C" fill-rule="nonzero"></path>
            <path d="M14.1316985,44.8419619 C14.0937175,44.7486221 14.0783432,44.6476249 14.0868302,44.5472116 C14.0835219,44.4787663 14.0990404,44.4107238 14.1316985,44.3504814 C14.3224354,44.3229738 14.5114264,44.2844841 14.6977293,44.2352044 C14.9586558,44.1703179 15.0566757,44.0281199 15.0718619,43.6954042 C15.1146594,42.9091735 15.1174205,41.4340418 15.1022343,40.3972389 L15.1022343,40.3668665 C15.1022343,40.2550409 15.1022343,40.1031789 14.964178,39.9961853 C14.7215286,39.8439519 14.4580931,39.7276961 14.182089,39.6510445 C14.0585286,39.6144596 13.9901907,39.5495731 13.9936421,39.4736421 C13.9970936,39.3977112 14.0750954,39.3079746 14.235931,39.2762216 C14.6632153,39.2327339 15.782852,38.9655949 16.2225613,38.7626521 C16.2678392,38.8216585 16.2888315,38.8957492 16.2812352,38.9697366 C16.2812352,39.0152952 16.2743324,39.0636149 16.2695005,39.1133152 C16.2570754,39.2596549 16.2432698,39.4260127 16.2432698,39.5916803 C16.2487848,39.6327306 16.2770765,39.6671144 16.3162964,39.6804315 C16.3555162,39.6937487 16.3988949,39.6837008 16.4282652,39.6544959 C17.2655767,38.9980381 18.0159128,38.7640327 18.4003996,38.7640327 C19.0333878,38.7640327 19.5262489,39.066376 19.9079746,39.68901 C19.9257732,39.7195775 19.9582052,39.7386705 19.9935695,39.7394005 C20.0256566,39.7391013 20.0555655,39.7231155 20.0736421,39.6966031 C20.8433061,39.1126249 21.6060672,38.7640327 22.1168756,38.7640327 C23.3234877,38.7640327 24.044832,39.6676113 24.044832,41.1800182 C24.044832,41.6148955 24.0406903,42.1664305 24.0365486,42.6806903 C24.0330972,43.1321344 24.0296458,43.555277 24.0296458,43.8479564 C24.0296458,43.9169846 24.1249046,44.1157856 24.2677929,44.1551317 C24.444505,44.2414169 24.6992189,44.2855949 25.0215804,44.3408174 L25.0340054,44.3408174 C25.0581653,44.4277929 25.0070845,44.7653406 24.9580745,44.8343688 C24.8780018,44.8343688 24.7675568,44.8274659 24.6295005,44.8205631 C24.3789282,44.8081381 24.035168,44.790881 23.635495,44.790881 C22.8333878,44.790881 22.4143869,44.8060672 22.0140236,44.8322979 C21.9836512,44.7322071 21.973297,44.4091553 22.0098819,44.3415077 C22.175678,44.3155805 22.3397923,44.2798534 22.5013624,44.2345141 C22.7567666,44.1502997 22.8306267,44.0343324 22.8465032,43.6954042 C22.8527157,43.4544959 22.8989646,41.3318801 22.8168211,40.8279746 C22.7408901,40.3054314 22.3474296,39.693842 21.4866485,39.693842 C21.1670481,39.693842 20.6514078,39.8270663 20.1599273,40.1998183 C20.1294418,40.2343736 20.1123053,40.2786838 20.1116076,40.3247593 L20.1116076,40.3351135 C20.1695913,40.6070845 20.1695913,40.924614 20.1695913,41.4043597 C20.1695913,41.6804723 20.1695913,41.9683197 20.1661399,42.2561671 C20.1626885,42.8415259 20.1599273,43.3937511 20.1695913,43.8113715 C20.1695913,44.0957675 20.3414714,44.1641054 20.480218,44.2186376 C20.5554587,44.2352044 20.6148229,44.2497003 20.6748774,44.2635059 C20.7901544,44.2918074 20.9102634,44.3207993 21.0890463,44.3491008 C21.1155111,44.4703646 21.1131468,44.596147 21.0821435,44.7163306 C21.0748279,44.7614342 21.0571021,44.8042125 21.0303724,44.8412716 C20.5844505,44.8260854 20.1267938,44.81297 19.4661944,44.81297 C19.2660127,44.81297 18.9395095,44.8212534 18.6509718,44.8288465 C18.4169664,44.835059 18.1960763,44.8412716 18.070445,44.8419619 C18.0364685,44.7617853 18.0213542,44.6748781 18.026267,44.5879382 C18.019215,44.5060206 18.0352358,44.4237646 18.0725159,44.3504814 L18.2499183,44.3180381 C18.4045413,44.2904269 18.5384559,44.2669573 18.6640872,44.2352044 C18.8822162,44.1661762 18.9643597,44.0474478 18.9802361,43.7692643 C19.0230336,43.1203996 19.0561671,41.2504269 18.9643597,40.782416 C18.808356,40.0313896 18.3810718,39.6503542 17.6935513,39.6503542 C17.2911172,39.6503542 16.7823797,39.8443233 16.3668302,40.1556403 C16.2860233,40.234321 16.2417347,40.3431657 16.2446503,40.4559128 C16.2446503,40.6788738 16.2446503,40.9439419 16.2446503,41.2283379 C16.2446503,42.1671208 16.2384378,43.3357675 16.2612171,43.8410536 C16.2750227,43.9970572 16.3302452,44.1820527 16.6222343,44.2497003 C16.6864305,44.2683379 16.7968756,44.2862852 16.9252679,44.3076839 C16.9991281,44.320109 17.079891,44.3332243 17.1634151,44.3484105 C17.189968,44.5137065 17.176475,44.6829606 17.124069,44.8419619 C16.9956767,44.8419619 16.8376022,44.8336785 16.6567484,44.8260854 C16.3806358,44.8136603 16.035495,44.7984741 15.6454859,44.7984741 C15.1843778,44.7984741 14.8633969,44.8136603 14.6059219,44.8260854 C14.4326612,44.8343688 14.2828701,44.8412716 14.133079,44.8419619" id="Path" fill="#21313C" fill-rule="nonzero"></path>
            <path d="M28.9347866,39.3880472 C28.6856471,39.3828737 28.4405861,39.4518272 28.2306994,39.586158 C27.7185104,39.897475 27.457584,40.5194187 27.457584,41.4333515 C27.457584,43.1438692 28.3142234,44.3387466 29.5408538,44.3387466 C29.8697482,44.3491755 30.1905462,44.2355904 30.4396004,44.0205268 C30.8164941,43.7133515 31.0166757,43.0851953 31.0166757,42.2057766 C31.0166757,40.5207993 30.1793642,39.3880472 28.933406,39.3880472 M29.1694823,44.9731153 C26.9536785,44.9731153 26.1646866,43.3475023 26.1646866,41.826812 C26.1646866,40.7644687 26.5988738,39.9340599 27.4555132,39.3576748 C28.0555116,38.9862292 28.7442152,38.7826457 29.4497366,38.7681744 C31.1402361,38.7681744 32.3213079,39.9837602 32.3213079,41.7253406 C32.3213079,42.9084832 31.8498456,43.8431244 30.9573115,44.4271026 C30.5286467,44.6894096 29.7838329,44.9731153 29.1694823,44.9731153" id="Shape" fill="#21313C" fill-rule="nonzero"></path>
            <path d="M51.493188,39.3880472 C51.2435545,39.3823888 50.9979134,39.4513702 50.7877203,39.586158 C50.2755313,39.897475 50.0146049,40.5194187 50.0146049,41.4333515 C50.0146049,43.1438692 50.8712443,44.3387466 52.0978747,44.3387466 C52.4277115,44.3498755 52.7496199,44.2362463 52.9993824,44.0205268 C53.3762761,43.7133515 53.5757675,43.0851953 53.5757675,42.2057766 C53.5757675,40.5207993 52.7391462,39.3880472 51.493188,39.3880472 M51.7292643,44.9731153 C49.5134605,44.9731153 48.7244687,43.3475023 48.7244687,41.8275023 C48.7244687,40.7637784 49.1586558,39.9340599 50.0159855,39.3576748 C50.6156298,38.9860049 51.3041751,38.7823976 52.0095186,38.7681744 C53.7000182,38.7681744 54.8810899,39.9844505 54.8810899,41.7246503 C54.8810899,42.9091735 54.4096276,43.8431244 53.5170936,44.4264124 C53.0884287,44.6894096 52.3436149,44.9731153 51.7292643,44.9731153" id="Shape" fill="#21313C" fill-rule="nonzero"></path>
            <path d="M44.0326249,39.3300636 C43.3499364,39.3300636 42.9081562,39.8691735 42.9081562,40.7037239 C42.9081562,41.5382743 43.2885014,42.5302089 44.3577475,42.5302089 C44.5413624,42.5302089 44.8740781,42.4487557 45.0390554,42.2672116 C45.2875568,42.0387284 45.4532243,41.5665758 45.4532243,41.0681926 C45.4532243,39.9796185 44.9230881,39.3300636 44.0360763,39.3300636 M43.9477203,45.0897729 C43.7548512,45.0876684 43.5646832,45.1352104 43.395495,45.2278292 C42.8550045,45.57297 42.6044323,45.9181108 42.6044323,46.3191644 C42.6044323,46.6946776 42.7500817,46.9935695 43.0634696,47.2586376 C43.4431244,47.5803088 43.9553134,47.7370027 44.6283379,47.7370027 C45.9529882,47.7370027 46.5466303,47.0246322 46.5466303,46.3191644 C46.5466303,45.8276839 46.3001998,45.4984196 45.7928429,45.3120436 C45.4021435,45.1691553 44.7491371,45.0904632 43.9497911,45.0904632 M44.0381471,48.4728429 C43.2429428,48.4728429 42.6700091,48.3051045 42.1805995,47.9282107 C41.7043052,47.5609809 41.4903179,47.0156585 41.4903179,46.6387648 C41.4954711,46.3958834 41.5881244,46.1630246 41.7512443,45.9829973 C41.8893006,45.8256131 42.2102816,45.5308629 42.9523342,45.0207448 C42.9758508,45.0107455 42.9910833,44.9876249 42.99099,44.9620708 C42.9914776,44.9333361 42.9719793,44.908103 42.9440509,44.9013261 C42.3331517,44.6673206 42.1488465,44.2800727 42.0929337,44.0729882 C42.0929337,44.0653951 42.0929337,44.0536603 42.0867212,44.040545 C42.0694641,43.9590917 42.0528974,43.8817802 42.1640327,43.8023978 C42.2496276,43.741653 42.3863034,43.6601998 42.5326431,43.5739146 C42.7392219,43.4595625 42.9373759,43.3306125 43.1255949,43.1880472 C43.1461002,43.1660122 43.1552567,43.1357296 43.1503959,43.1060247 C43.1455351,43.0763198 43.127204,43.0505352 43.1007448,43.0361853 C42.1964759,42.7324614 41.7408901,42.0608174 41.7408901,41.0343688 C41.7352577,40.3847577 42.0470477,39.7732885 42.5761308,39.3963306 C42.9399092,39.1084832 43.8531517,38.7626521 44.444723,38.7626521 L44.4792371,38.7626521 C45.0873751,38.777148 45.430445,38.9048501 45.9053588,39.0801817 C46.1755085,39.1778638 46.461763,39.2233085 46.7488828,39.2140963 C47.2520981,39.2140963 47.4722979,39.0546412 47.6614351,38.8689555 C47.692106,38.9525933 47.708442,39.0408075 47.7097548,39.1298819 C47.7213097,39.3421232 47.6636584,39.5523805 47.5454678,39.7290463 C47.4426158,39.8719346 47.200327,39.9754768 46.9787466,39.9754768 C46.9559673,39.9754768 46.9338783,39.9754768 46.9097184,39.9720254 C46.7931267,39.9638164 46.6775684,39.9446338 46.5645777,39.9147321 L46.5079746,39.9347502 C46.4900272,39.9609809 46.501762,39.9899728 46.5162579,40.027248 C46.519798,40.0345348 46.5225739,40.0421686 46.5245413,40.0500272 C46.5649419,40.2342571 46.5923902,40.4210902 46.6066848,40.6091553 C46.6066848,41.6825431 46.1835422,42.1498638 45.7258856,42.4963851 C45.2834147,42.8283837 44.7579339,43.0318881 44.2072661,43.084505 L44.2072661,43.084505 C44.1955313,43.084505 44.138238,43.089337 44.030554,43.0990009 C43.9615259,43.1052134 43.8717893,43.1134968 43.8586739,43.1134968 L43.8455586,43.1134968 C43.746158,43.1411081 43.4866122,43.2646685 43.4866122,43.4945322 C43.4866122,43.68505 43.60396,43.9218165 44.1651589,43.964614 L44.528247,43.9901544 C45.2682289,44.0419255 46.1925159,44.1061217 46.6273933,44.2531517 C47.2190716,44.4612079 47.6106066,45.0252743 47.5986194,45.6523524 C47.5986194,46.6152952 46.9138601,47.5209446 45.7673025,48.0745504 C45.2266105,48.3328097 44.6345851,48.4656556 44.035386,48.4631789" id="Shape" fill="#21313C" fill-rule="nonzero"></path>
            <path d="M40.6461035,44.3283924 C40.3216712,44.2849046 40.0849046,44.2407266 39.8053406,44.1095731 C39.7504795,44.052745 39.7143442,43.9804744 39.7017984,43.9024886 C39.6721163,43.4503542 39.6721163,42.138129 39.6721163,41.2794187 C39.6721163,40.5787829 39.5547684,39.9678837 39.2579473,39.529555 C38.9038329,39.0332425 38.4026885,38.7419437 37.7538238,38.7419437 C37.1788193,38.7419437 36.4119164,39.1354042 35.778238,39.6752044 C35.7630518,39.6897003 35.6657221,39.782198 35.6677929,39.6386194 C35.6698638,39.4950409 35.6919528,39.2037421 35.7057584,39.017366 C35.7181914,38.9169572 35.6823465,38.8165914 35.609119,38.7467757 C35.19495,38.9538601 34.0332062,39.2299728 33.6031608,39.2720799 C33.2897729,39.3328247 33.2103906,39.6344777 33.5451771,39.7387103 L33.5500091,39.7387103 C33.8179951,39.8126073 34.0737848,39.9251548 34.3093188,40.0728065 C34.4418529,40.1749682 34.4273569,40.3206176 34.4273569,40.4372752 C34.4418529,41.4140236 34.4418529,42.9160763 34.3976748,43.7326794 C34.3831789,44.0536603 34.2941326,44.1703179 34.0580563,44.2289918 L34.0801453,44.2213987 C33.9003718,44.2664504 33.7180334,44.3005668 33.5341326,44.3235604 C33.4602725,44.39604 33.4602725,44.8191826 33.5341326,44.9068483 C33.6818529,44.9068483 34.4314986,44.8633606 35.052752,44.8633606 C35.9073206,44.8633606 36.3497911,44.9068483 36.5713715,44.9068483 C36.6604178,44.8046866 36.6894096,44.4112262 36.6307357,44.3235604 C36.4265506,44.3143267 36.2237754,44.2849624 36.0253588,44.2358946 C35.7899728,44.177911 35.7306085,44.0605631 35.7161126,43.7989464 C35.6871208,43.1128065 35.6871208,41.6549319 35.6871208,40.6629973 C35.6871208,40.3868847 35.7602906,40.2550409 35.8486467,40.1798002 C36.1433969,39.9174932 36.6307357,39.742852 37.05802,39.742852 C37.4721889,39.742852 37.7483015,39.8740054 37.955386,40.0486467 C38.1965897,40.2591145 38.3478068,40.5541361 38.3778383,40.8728429 C38.4365123,41.4250681 38.4213261,42.5357312 38.4213261,43.4959128 C38.4213261,44.0212171 38.3778383,44.1530609 38.1859401,44.2110445 C38.097584,44.2545322 37.8615077,44.2987103 37.5812534,44.3277021 C37.4928974,44.4153678 37.5218892,44.8233243 37.5812534,44.91099 C37.9643597,44.91099 38.4095913,44.8675023 39.0556948,44.8675023 C39.8667757,44.8675023 40.3831063,44.91099 40.5895005,44.91099 C40.6778565,44.8088283 40.7075386,44.4277929 40.6488647,44.3277021" id="Path" fill="#21313C" fill-rule="nonzero"></path>
        </g>
    </g>
</svg>