<?xml version="1.0" encoding="UTF-8"?>
<svg width="80px" height="80px" viewBox="0 0 80 80" version="1.1" xmlns="http://www.w3.org/2000/svg" xmlns:xlink="http://www.w3.org/1999/xlink">
    <title>Untitled 2</title>
    <g id="Page-1" stroke="none" stroke-width="1" fill="none" fill-rule="evenodd">
        <g id="Nomad_PrimaryLogo_FullColor_RGB" transform="translate(6.000000, 1.000000)" fill-rule="nonzero">
            <polygon id="Path" fill="#00BC7F" points="33.7208696 0.926956522 0.316521739 20.2234783 22.8573913 33.4608696 27.4130435 30.68 38.4913043 36.8634783 38.4913043 24.0217391 49.106087 17.646087 49.106087 30.5104348 67.6791304 20.2121739 67.6791304 20.1669565"></polygon>
            <polygon id="Path" fill="#009A69" points="49.106087 30.5104348 49.106087 43.2843478 40.2208696 48.4165217 34.0034783 44.5617391 34.0034783 77.8982609 34.1730435 77.9095652 67.6791304 58.6582609 67.6791304 20.2121739 67.0573913 20.2121739"></polygon>
            <polygon id="Path" fill="#00BC7F" points="29.5156522 42.0069565 29.5156522 54.826087 19.4095652 61.2356522 19.4095652 35.586087 23.2417391 33.2234783 0.52 20.2121739 0.316521739 20.2234783 0.316521739 58.6582609 34.0034783 77.8982609 34.0034783 44.5617391"></polygon>
        </g>
    </g>
</svg>