<?xml version="1.0" encoding="UTF-8"?>
<svg width="80px" height="80px" viewBox="0 0 80 80" version="1.1" xmlns="http://www.w3.org/2000/svg" xmlns:xlink="http://www.w3.org/1999/xlink">
    <title>Untitled 2</title>
    <g id="Page-1" stroke="none" stroke-width="1" fill="none" fill-rule="evenodd">
        <g id="postgres" transform="translate(3.000000, 2.000000)">
            <path d="M56.5745854,56.7640293 C57.0997268,52.3892098 56.9423512,51.7476585 60.2008976,52.4563122 L61.0281854,52.5289756 C63.5337756,52.6429756 66.8114146,52.1259902 68.7369951,51.2314146 C72.8821463,49.3080585 75.3400976,46.0967805 71.2527805,46.9405659 C61.9294341,48.863922 61.288439,45.7069561 61.288439,45.7069561 C71.1334049,31.0995707 75.2488976,12.5568683 71.6965463,8.018 C62.0074732,-4.3624 45.2359415,1.49200976 44.9552976,1.64400976 L44.8659512,1.66050732 C43.0237854,1.27828293 40.9621463,1.0499122 38.6461854,1.01246829 C34.4270732,0.943141463 31.2256195,2.11854634 28.7971415,3.96052683 C28.7971415,3.96052683 -1.12239024,-8.36593171 0.269521951,19.4623024 C0.56555122,25.3821463 8.75501463,64.2568878 18.5224976,52.5148878 C22.0924585,48.2212585 25.5424878,44.5908683 25.5424878,44.5908683 C27.255639,45.7290146 29.3067122,46.3095805 31.4578829,46.1010439 L31.6241561,45.959239 C31.5720683,46.4923512 31.5950537,47.0137854 31.6907024,47.6310537 C29.1749171,50.4424976 29.9141561,50.9361268 24.8835122,51.9715805 C19.793922,53.0205659 22.7840585,54.8881268 24.7357756,55.3761951 C27.1025268,55.9680683 32.577678,56.806478 36.2781366,51.6273561 L36.1307707,52.2183024 C37.1178439,53.007961 37.0511122,57.8940195 37.1910634,61.3850146 C37.3312,64.8761951 37.5649463,68.134 38.2765659,70.054761 C38.9881854,71.9751512 39.8278927,76.9225659 46.4393366,75.5056293 C51.9649073,74.3215122 56.1895805,72.6172585 56.5745854,56.7638439" id="Path" stroke="#000000" stroke-width="4" fill="#000000" fill-rule="nonzero"></path>
            <path d="M71.2537073,46.9401951 C61.9294341,48.8635512 61.288439,45.7065854 61.288439,45.7065854 C71.1334049,31.0982732 75.2488976,12.5552 71.6972878,8.0168878 C62.0082146,-4.36277073 45.2359415,1.49200976 44.956039,1.64400976 L44.8659512,1.66013659 C43.0237854,1.27772683 40.9621463,1.0499122 38.6450732,1.01209756 C34.425961,0.942956098 31.2256195,2.11817561 28.7971415,3.95978537 C28.7971415,3.95978537 -1.12294634,-8.36611707 0.268595122,19.4619317 C0.56462439,25.3821463 8.75390244,64.2568878 18.5217561,52.5148878 C22.0919024,48.2212585 25.5413756,44.5908683 25.5413756,44.5908683 C27.2547122,45.7290146 29.3057854,46.3095805 31.4560293,46.1010439 L31.6230439,45.959239 C31.5711415,46.4923512 31.5948683,47.0137854 31.689961,47.6310537 C29.1736195,50.4424976 29.9130439,50.9361268 24.8827707,51.9715805 C19.7928098,53.0205659 22.7829463,54.8881268 24.7352195,55.3761951 C27.1019707,55.9680683 32.5774927,56.806478 36.2772098,51.6273561 L36.1296585,52.2183024 C37.1156195,53.007961 37.807961,57.3549756 37.691922,61.2954829 C37.5758829,65.2361756 37.4984,67.9415902 38.2752683,70.054761 C39.0521366,72.1679317 39.8264098,76.9225659 46.4391512,75.5056293 C51.964722,74.3215122 54.8280683,71.2529659 55.2264195,66.1344585 C55.5091024,62.4955415 56.1488,63.0334732 56.1892098,59.7801171 L56.7023024,58.2399122 C57.2939902,53.3071415 56.7962829,51.7157756 60.2005268,52.4559415 L61.0278146,52.5286049 C63.5334049,52.6426049 66.8127122,52.1256195 68.7373659,51.2310439 C72.8817756,49.3076878 75.3397268,46.0964098 71.2533366,46.9401951 L71.2537073,46.9401951 Z" id="Path" fill="#336791" fill-rule="nonzero"></path>
            <path d="M36.6776,49.7677659 C36.4208683,58.9463415 36.7421073,68.1888683 37.6402049,70.4351317 C38.5388585,72.6813951 40.4620293,77.0504683 47.0753268,75.6337171 C52.6003415,74.4492293 54.6106341,72.1569951 55.4829659,67.0974341 C56.1254439,63.3749171 57.3640585,53.0366927 57.5229171,50.9185171" id="Path" stroke="#FFFFFF" stroke-width="2" stroke-linecap="round" stroke-linejoin="round"></path>
            <path d="M28.7509854,3.75477073 C28.7509854,3.75477073 -1.18949268,-8.48234146 0.202419512,19.3457073 C0.49844878,25.265922 8.68828293,64.141961 18.4559512,52.3994049 C22.0253561,48.1052195 25.2535024,44.7373073 25.2535024,44.7373073" id="Path" stroke="#FFFFFF" stroke-width="2" stroke-linecap="round" stroke-linejoin="round"></path>
            <path d="M44.9232293,1.52129756 C43.8868488,1.8462439 61.5779805,-4.94593171 71.632039,7.90103415 C75.1834634,12.4395317 71.0679707,30.9826049 61.2231902,45.5912878" id="Path" stroke="#FFFFFF" stroke-width="2" stroke-linecap="round" stroke-linejoin="round"></path>
            <path d="M61.2230049,45.5912878 C61.2230049,45.5912878 61.8645561,48.7491805 71.1890146,46.8245268 C75.274478,45.9807415 72.8157854,49.1923902 68.6723024,51.1166732 C65.2717659,52.694878 57.6478537,53.0993463 57.5232878,50.9185171 C57.2027902,45.2917366 61.5359024,47.0011805 61.2231902,45.5912878 C60.9405073,44.3215317 59.0026927,43.0753171 57.7208878,39.9676585 C56.6018341,37.2552 42.3733366,16.4541854 61.6667707,19.5434927 C62.3735707,19.397239 56.6348293,1.19190244 38.5788976,0.895873171 C20.5270439,0.599843902 21.1192878,23.0956585 21.1192878,23.0956585" id="Path" stroke="#FFFFFF" stroke-width="2" stroke-linecap="round" stroke-linejoin="bevel"></path>
            <path d="M31.6241561,47.5155707 C29.1074439,50.3268293 29.8476098,50.8204585 24.8169659,51.8562829 C19.7270049,52.9054537 22.7175122,54.7726439 24.6692293,55.2605268 C27.0359805,55.8527707 32.5115024,56.6911805 36.2112195,51.510761 C37.3378732,49.9334829 36.2045463,47.4167707 34.6569268,46.7752195 C33.909161,46.4654732 32.9092976,46.0773171 31.6241561,47.5155707 L31.6241561,47.5155707 Z" id="Path" stroke="#FFFFFF" stroke-width="2" stroke-linecap="round" stroke-linejoin="round"></path>
            <path d="M31.4593659,47.4664488 C31.2057854,45.8135415 32.0024878,43.8466244 32.8562829,41.5454927 C34.1393854,38.0928683 37.0998634,34.6396878 34.7316293,23.6875317 C32.9663902,15.5260585 21.1265171,21.9890244 21.1191024,23.0956585 C21.1118732,24.201922 21.6546244,28.7048293 20.9213171,33.9484585 C19.9644585,40.7908683 25.2751902,46.5778049 31.3905951,45.9857463" id="Path" stroke="#FFFFFF" stroke-width="2" stroke-linecap="round" stroke-linejoin="round"></path>
            <path d="M28.6421756,22.9297561 C28.5887902,23.3077171 29.3341463,24.3162927 30.3060195,24.4510537 C31.2762244,24.5863707 32.1066634,23.7981951 32.1593073,23.4206049 C32.2119512,23.0426439 31.467522,22.6263122 30.495278,22.4909951 C29.5245171,22.3554927 28.6937073,22.552722 28.642361,22.9297561 L28.6421756,22.9297561 Z" id="Path" stroke="#FFFFFF" fill="#FFFFFF" fill-rule="nonzero"></path>
            <path d="M58.1939415,22.1591902 C58.2465854,22.5371512 57.5021561,23.5457268 56.5300976,23.6804878 C55.5591512,23.8158049 54.7287122,23.0276293 54.6755122,22.650039 C54.6241659,22.272078 55.3687805,21.8557463 56.3399122,21.7204293 C57.3110439,21.5851122 58.1412976,21.7821561 58.1939415,22.1593756 L58.1939415,22.1591902 Z" id="Path" stroke="#FFFFFF" fill="#FFFFFF" fill-rule="nonzero"></path>
            <path d="M61.6667707,19.5434927 C61.8267415,22.5082341 61.0281854,24.5276098 60.9275317,27.6836488 C60.7784976,32.2710829 63.1146634,37.5217561 59.5945659,42.7789171" id="Path" stroke="#FFFFFF" stroke-width="2" stroke-linecap="round" stroke-linejoin="round"></path>
        </g>
    </g>
</svg>