<?xml version="1.0" encoding="UTF-8"?>
<svg width="256px" height="256px" viewBox="0 0 256 256" version="1.1" xmlns="http://www.w3.org/2000/svg" xmlns:xlink="http://www.w3.org/1999/xlink">
    <title>cloudgram</title>
    <g id="Page-1" stroke="none" stroke-width="1" fill="none" fill-rule="evenodd">
        <g id="Icon" transform="translate(0.000000, 46.706103)">
            <path d="M60.8571429,60.8972118 C92.9330357,43.2268277 113.428571,50.3303867 113.428571,50.3303867" id="Path" stroke="#2376AE" stroke-width="8" stroke-linecap="round"></path>
            <path d="M125.142857,108.897212 C171.582589,66.4299527 200.285714,90.9411134 200.285714,90.9411134" id="Path" stroke="#2376AE" stroke-width="8" stroke-linecap="round"></path>
            <path d="M48.5714286,55.1829261 C116.623997,-8.73271467 156.185085,-7.56113014 179.062937,12.2917649 C205.843543,35.5313832 209.763393,84.3696849 209.763393,84.3696849" id="Path" stroke="#2376AE" stroke-width="8" stroke-linecap="round"></path>
            <path d="M47.7142857,80.1829261 C79.7901786,62.512542 101.033482,99.6553992 101.033482,99.6553992" id="Path" stroke="#2376AE" stroke-width="8" stroke-linecap="round"></path>
            <path d="M137.142857,31.512542 C144.018097,31.512542 150.007115,35.3069115 153.130074,40.9158143 C154.751075,40.3764714 156.484236,40.0839706 158.285714,40.0839706 C167.280066,40.0839706 174.571429,47.3753332 174.571429,56.3696849 C174.571429,65.3640365 167.280066,72.6553992 158.285714,72.6553992 C157.426615,72.6553992 156.583052,72.5888786 155.759896,72.4607073 C155.193643,72.5883178 154.604655,72.6553992 154,72.6553992 L122.857143,72.6553992 C122.25614,72.6553992 121.670616,72.5891259 121.107481,72.4634886 C120.376871,72.5896036 119.624691,72.6553992 118.857143,72.6553992 C111.598543,72.6553992 105.714286,66.7711416 105.714286,59.512542 C105.714286,52.2539425 111.598543,46.3696849 118.857143,46.3696849 C118.964204,46.3696849 119.070966,46.370965 119.177414,46.3735107 C120.780953,37.9112413 128.214657,31.512542 137.142857,31.512542 Z" id="cloud" fill="#C16ECF"></path>
            <path d="M31.4285714,43.2268277 C38.3038117,43.2268277 44.2928295,47.0211972 47.4157887,52.6301 C49.0367889,52.0907572 50.7699501,51.7982563 52.5714286,51.7982563 C61.5657802,51.7982563 68.8571429,59.089619 68.8571429,68.0839706 C68.8571429,77.0783222 61.5657802,84.3696849 52.5714286,84.3696849 C51.7123292,84.3696849 50.8687665,84.3031643 50.0456102,84.174993 C49.4793574,84.3026035 48.8903697,84.3696849 48.2857143,84.3696849 L17.1428571,84.3696849 C16.5418545,84.3696849 15.9563308,84.3034116 15.3931954,84.1777744 C14.6625855,84.3038893 13.910405,84.3696849 13.1428571,84.3696849 C5.88425757,84.3696849 0,78.4854273 0,71.2268277 C0,63.9682282 5.88425757,58.0839706 13.1428571,58.0839706 C13.2499181,58.0839706 13.3566801,58.0852507 13.4631286,58.0877965 C15.0666673,49.625527 22.5003712,43.2268277 31.4285714,43.2268277 Z" id="cloud" fill="#C16ECF"></path>
            <path d="M102.571429,96.9411134 C109.446669,96.9411134 115.435687,100.735483 118.558646,106.344386 C120.179646,105.805043 121.912807,105.512542 123.714286,105.512542 C132.708637,105.512542 140,112.803905 140,121.798256 C140,130.792608 132.708637,138.083971 123.714286,138.083971 C122.855186,138.083971 122.011624,138.01745 121.188467,137.889279 C120.622215,138.016889 120.033227,138.083971 119.428571,138.083971 L88.2857143,138.083971 C87.6847116,138.083971 87.0991879,138.017697 86.5360526,137.89206 C85.8054426,138.018175 85.0532621,138.083971 84.2857143,138.083971 C77.0271147,138.083971 71.1428571,132.199713 71.1428571,124.941113 C71.1428571,117.682514 77.0271147,111.798256 84.2857143,111.798256 C84.3927753,111.798256 84.4995373,111.799536 84.6059858,111.802082 C86.2095244,103.339813 93.6432283,96.9411134 102.571429,96.9411134 Z" id="cloud" fill="#C16ECF"></path>
            <path d="M218.571429,72.6553992 C225.446669,72.6553992 231.435687,76.4497686 234.558646,82.0586714 C236.179646,81.5193286 237.912807,81.2268277 239.714286,81.2268277 C248.708637,81.2268277 256,88.5181904 256,97.512542 C256,106.506894 248.708637,113.798256 239.714286,113.798256 C238.855186,113.798256 238.011624,113.731736 237.188467,113.603564 C236.622215,113.731175 236.033227,113.798256 235.428571,113.798256 L204.285714,113.798256 C203.684712,113.798256 203.099188,113.731983 202.536053,113.606346 C201.805443,113.732461 201.053262,113.798256 200.285714,113.798256 C193.027115,113.798256 187.142857,107.913999 187.142857,100.655399 C187.142857,93.3967996 193.027115,87.512542 200.285714,87.512542 C200.392775,87.512542 200.499537,87.5138221 200.605986,87.5163679 C202.209524,79.0540984 209.643228,72.6553992 218.571429,72.6553992 Z" id="cloud" fill="#C16ECF"></path>
        </g>
    </g>
</svg>