<?xml version="1.0" encoding="UTF-8"?>
<svg width="592px" height="455px" viewBox="0 0 592 455" version="1.1" xmlns="http://www.w3.org/2000/svg" xmlns:xlink="http://www.w3.org/1999/xlink">
    <g stroke="none" stroke-width="1" fill="none" fill-rule="evenodd">
        <path d="M42,266 L41.823,265.997 L41.5,266 C18.8093811,266 0.372037621,247.789563 0.00555981432,225.186278 L0,224.5 C0,201.580183 18.5801829,183 41.5,183 C43.3650915,183 45.2014466,183.123035 47.0013919,183.361431 C47.074734,166.028418 61.1491106,152 78.5,152 C82.7940626,152 86.8874447,152.859215 90.6176014,154.415101 C102.767277,141.246946 120.17055,133 139.5,133 C161.599362,133 181.18095,143.779872 193.273287,160.36814 C219.587317,163.470107 240,185.851235 240,213 C240,239.524621 220.515095,261.498299 195.078011,265.388307 C194.130373,265.781739 193.090676,266 192,266 L42,266 Z" id="Cloud" fill="#2376AE"></path>
        <path d="M394,322 L393.823,321.997 L393.5,322 C370.809381,322 352.372038,303.789563 352.00556,281.186278 L352,280.5 C352,257.580183 370.580183,239 393.5,239 C395.365091,239 397.201447,239.123035 399.001392,239.361431 C399.074734,222.028418 413.149111,208 430.5,208 C434.794063,208 438.887445,208.859215 442.617601,210.415101 C454.767277,197.246946 472.17055,189 491.5,189 C513.599362,189 533.18095,199.779872 545.273287,216.36814 C571.587317,219.470107 592,241.851235 592,269 C592,295.524621 572.515095,317.498299 547.078011,321.388307 C546.130373,321.781739 545.090676,322 544,322 L394,322 Z" id="Cloud" fill="#2376AE"></path>
        <path d="M124,455 L123.823,454.997 L123.5,455 C100.809381,455 82.3720376,436.789563 82.0055598,414.186278 L82,413.5 C82,390.580183 100.580183,372 123.5,372 C125.365091,372 127.201447,372.123035 129.001392,372.361431 C129.074734,355.028418 143.149111,341 160.5,341 C164.794063,341 168.887445,341.859215 172.617601,343.415101 C184.767277,330.246946 202.17055,322 221.5,322 C243.599362,322 263.18095,332.779872 275.273287,349.36814 C301.587317,352.470107 322,374.851235 322,402 C322,428.524621 302.515095,450.498299 277.078011,454.388307 C276.130373,454.781739 275.090676,455 274,455 L124,455 Z" id="Cloud" fill="#2376AE"></path>
        <path d="M340,133 L339.823,132.997 L339.5,133 C316.809381,133 298.372038,114.789563 298.00556,92.1862784 L298,91.5 C298,68.5801829 316.580183,50 339.5,50 C341.365091,50 343.201447,50.1230348 345.001392,50.3614309 C345.074734,33.0284185 359.149111,19 376.5,19 C380.794063,19 384.887445,19.8592152 388.617601,21.4151008 C400.767277,8.24694575 418.17055,0 437.5,0 C459.599362,0 479.18095,10.7798721 491.273287,27.3681399 C517.587317,30.4701067 538,52.8512346 538,80 C538,106.524621 518.515095,128.498299 493.078011,132.388307 C492.130373,132.781739 491.090676,133 490,133 L340,133 Z" id="Cloud" fill="#2376AE"></path>
        <path d="M311.596938,178.200686 L304.478938,239.798686 L325.403062,239.799314 L284.403062,322.799314 L291.519938,261.199686 L270.596938,261.200686 L311.596938,178.200686 Z" id="Thunder" fill="#DFC860" transform="translate(298.000000, 250.500000) rotate(99.000000) translate(-298.000000, -250.500000) "></path>
        <path d="M160.596938,232.200686 L153.478938,293.798686 L174.403062,293.799314 L133.403062,376.799314 L140.519938,315.199686 L119.596938,315.200686 L160.596938,232.200686 Z" id="Thunder" fill="#DFC860" transform="translate(147.000000, 304.500000) rotate(142.000000) translate(-147.000000, -304.500000) "></path>
        <path d="M351.889906,268.923342 L344.771906,330.521342 L365.696031,330.52197 L324.696031,413.52197 L331.812906,351.922342 L310.889906,351.923342 L351.889906,268.923342 Z" id="Thunder" fill="#DFC860" transform="translate(338.292969, 341.222656) rotate(47.000000) translate(-338.292969, -341.222656) "></path>
        <path d="M447.35475,90.9233425 L440.23675,152.521342 L461.160875,152.52197 L420.160875,235.52197 L427.27775,173.922342 L406.35475,173.923342 L447.35475,90.9233425 Z" id="Thunder" fill="#DFC860" transform="translate(433.757813, 163.222656) rotate(150.000000) translate(-433.757813, -163.222656) "></path>
    </g>
</svg>
