<?xml version="1.0" encoding="UTF-8" standalone="yes"?>
<svg width="80px" height="80px" viewBox="0 0 48 48" version="1.1" xmlns="http://www.w3.org/2000/svg" xmlns:xlink="http://www.w3.org/1999/xlink">
  <title>Icon-Resource/Mobile/Res_Amazon-API-Gateway_Endpoint_48_Dark</title>
  <g id="Icon-Resource/Mobile/Res_Amazon-API-Gateway_Endpoint_48" stroke="none" stroke-width="1" fill="none" fill-rule="evenodd">
    <path d="M25.909,24.954 L27.818,24.954 L27.818,23.045 L25.909,23.045 L25.909,24.954 Z M23.046,24.954 L24.955,24.954 L24.955,23.045 L23.046,23.045 L23.046,24.954 Z M20.181,24.954 L22.09,24.954 L22.09,23.045 L20.181,23.045 L20.181,24.954 Z M37.318,31.004 L30.727,36.801 L30.727,11.332 L37.318,17.13 L37.318,31.004 Z M30.948,8.927 C30.744,8.838 29.854,8.577 29.242,8.919 L28.727,9.205 L28.727,38.929 L29.242,39.214 C29.47,39.342 29.738,39.385 29.993,39.385 C30.425,39.385 30.822,39.261 30.951,39.205 L38.568,32.568 C39.029,32.297 39.318,31.812 39.318,31.285 L39.318,16.849 C39.318,16.321 39.029,15.835 38.567,15.565 L31.211,9.094 L30.948,8.927 Z M17.272,36.801 L10.681,31.004 L10.681,17.13 L17.272,11.332 L17.272,36.801 Z M17.052,8.927 L9.432,15.565 C8.97,15.835 8.681,16.321 8.681,16.849 L8.681,31.285 C8.681,31.812 8.97,32.297 9.431,32.568 L16.789,39.039 L17.049,39.205 C17.178,39.261 17.575,39.385 18.007,39.385 C18.261,39.385 18.529,39.342 18.758,39.214 L19.272,38.929 L19.272,9.205 L18.758,8.919 C18.145,8.577 17.256,8.838 17.052,8.927 L17.052,8.927 Z M44,32.285 L32.284,44 L15.716,44 L4,32.285 L4,15.715 L15.716,4 L32.284,4 L44,15.715 L44,32.285 Z M33.112,2 L14.887,2 L2,14.887 L2,33.113 L14.887,46 L33.112,46 L46,33.113 L46,14.887 L33.112,2 Z" id="AWS-MOBILEAmazon-API-Gateway_endpoint_Resource-Icon_light-bg" fill="#FF5252"/>
  </g>
</svg>