<?xml version="1.0" encoding="UTF-8"?>
<svg width="80px" height="80px" viewBox="0 0 80 80" version="1.1" xmlns="http://www.w3.org/2000/svg" xmlns:xlink="http://www.w3.org/1999/xlink">
    <!-- Generator: Sketch 64 (93537) - https://sketch.com -->
    <title>Icon-Architecture/64/Arch_Amazon-API-Gateway_64</title>
    <desc>Created with Sketch.</desc>
    <defs>
        <linearGradient x1="0%" y1="100%" x2="100%" y2="0%" id="linearGradient-1">
            <stop stop-color="#4D27A8" offset="0%"></stop>
            <stop stop-color="#A166FF" offset="100%"></stop>
        </linearGradient>
    </defs>
    <g id="Icon-Architecture/64/Arch_Amazon-API-Gateway_64" stroke="none" stroke-width="1" fill="none" fill-rule="evenodd">
        <g id="Icon-Architecture-BG/64/Networking-Content-Delivery" fill="url(#linearGradient-1)">
            <rect id="Rectangle" x="0" y="0" width="80" height="80"></rect>
        </g>
        <path d="M34.065,55.6323642 L37,55.6323642 L37,53.6152989 L34.065,53.6152989 L34.065,55.6323642 Z M39,55.6323642 L42,55.6323642 L42,53.6152989 L39,53.6152989 L39,55.6323642 Z M27,14.6294611 L14,21.082053 L14,61.1934132 L27,65.589607 L27,14.6294611 Z M29,27.3934502 L29,53.6152989 L32,53.6152989 L32,55.6323642 L29,55.6323642 L29,66.9914674 C29,67.3162149 28.845,67.6207917 28.584,67.8103959 C28.412,67.9354539 28.207,68 28,68 C27.894,68 27.786,67.9828549 27.682,67.9475563 L12.682,62.8756456 C12.274,62.7374767 12,62.3522172 12,61.9195567 L12,20.4537371 C12,20.0704947 12.217,19.7185168 12.559,19.5490833 L27.559,12.1040954 C27.868,11.9497899 28.235,11.9679435 28.528,12.152505 C28.821,12.3360579 29,12.6597969 29,13.0087492 L29,25.376385 L32,25.376385 L32,27.3934502 L29,27.3934502 Z M44,55.6323642 L47,55.6323642 L47,53.6152989 L44,53.6152989 L44,55.6323642 Z M44.065,27.3934502 L47,27.3934502 L47,25.376385 L44.065,25.376385 L44.065,27.3934502 Z M39.065,27.3934502 L42,27.3934502 L42,25.376385 L39.065,25.376385 L39.065,27.3934502 Z M34.065,27.3934502 L37,27.3934502 L37,25.376385 L34.065,25.376385 L34.065,27.3934502 Z M66,21.082053 L53,14.6294611 L53,65.589607 L66,61.1934132 L66,21.082053 Z M68,61.9195567 C68,62.3522172 67.726,62.7374767 67.318,62.8756456 L52.318,67.9475563 C52.214,67.9828549 52.106,68 52,68 C51.793,68 51.588,67.9354539 51.416,67.8103959 C51.155,67.6207917 51,67.3162149 51,66.9914674 L51,55.6323642 L49.065,55.6323642 L49.065,53.6152989 L51,53.6152989 L51,27.3934502 L49.065,27.3934502 L49.065,25.376385 L51,25.376385 L51,13.0087492 C51,12.6597969 51.179,12.3360579 51.472,12.152505 C51.765,11.9679435 52.131,11.9497899 52.441,12.1040954 L67.441,19.5490833 C67.783,19.7185168 68,20.0704947 68,20.4537371 L68,61.9195567 Z M42.934,33.8067093 L41.066,33.0825829 L36.066,46.1935072 L37.934,46.9176337 L42.934,33.8067093 Z M49.707,40.2088745 C50.098,39.8145383 50.098,39.1761371 49.707,38.7828094 L45.707,34.7486788 L44.293,36.174744 L47.586,39.4958419 L44.293,42.8169399 L45.707,44.2430051 L49.707,40.2088745 Z M34.293,44.2430051 L30.293,40.2088745 C29.902,39.8145383 29.902,39.1761371 30.293,38.7828094 L34.293,34.7486788 L35.707,36.174744 L32.414,39.4958419 L35.707,42.8169399 L34.293,44.2430051 Z" id="Amazon-API-Gateway_Icon_64_Squid" fill="#FFFFFF"></path>
    </g>
</svg>