<?xml version="1.0" encoding="UTF-8"?>
<svg width="80px" height="80px" viewBox="0 0 80 80" version="1.1" xmlns="http://www.w3.org/2000/svg" xmlns:xlink="http://www.w3.org/1999/xlink">
    <!-- Generator: Sketch 64 (93537) - https://sketch.com -->
    <title>Icon-Architecture/64/Arch_AWS-AppSync_64</title>
    <desc>Created with Sketch.</desc>
    <defs>
        <linearGradient x1="0%" y1="100%" x2="100%" y2="0%" id="linearGradient-1">
            <stop stop-color="#BD0816" offset="0%"></stop>
            <stop stop-color="#FF5252" offset="100%"></stop>
        </linearGradient>
    </defs>
    <g id="Icon-Architecture/64/Arch_AWS-AppSync_64" stroke="none" stroke-width="1" fill="none" fill-rule="evenodd">
        <g id="Icon-Architecture-BG/64/Mobile" fill="url(#linearGradient-1)">
            <rect id="Rectangle" x="0" y="0" width="80" height="80"></rect>
        </g>
        <path d="M66.5202995,27.9808368 L61.0136554,26.5893498 C66.4776815,36.1163772 65.6104544,48.5996882 58.6260554,56.6019905 C53.8538286,62.0707647 46.7723001,65 39.6521181,65 C35.5092504,65 31.3534983,64.0082274 27.6308641,61.9485462 L28.5833272,60.1914057 C37.9117172,65.353632 50.1886792,63.2408559 57.1393804,55.2766217 C63.5984876,47.8773973 64.3636297,36.2946959 59.2395566,27.4819451 L57.8103663,33.2622761 L55.8876,32.7764077 L57.8698333,24.762084 C58.002643,24.2261261 58.5398282,23.8955352 59.0710667,24.0337823 L67,26.0373632 L66.5202995,27.9808368 Z M20.7584612,51.5870274 L22.1896337,45.7996838 L24.1124,46.2855522 L22.1301667,54.299876 C22.0181705,54.7556907 21.6137949,55.0592332 21.1697746,55.0592332 C21.0904853,55.0592332 21.0092137,55.0502171 20.9289333,55.0291795 L13,53.0255985 L13.4797005,51.082125 L18.9774246,52.4706066 C13.5560164,43.1048675 14.4410836,31.5031321 21.4591807,23.4617599 C29.116548,14.6890808 42.1170252,12.441063 52.370127,18.116206 L51.4176639,19.8733465 C41.9693488,14.645002 29.9946773,16.710694 22.9458557,24.7871287 C16.4708905,32.206389 15.684935,42.9425774 20.7584612,51.5870274 L20.7584612,51.5870274 Z M31.3961163,43.7199668 C32.6627634,43.7199668 33.6935247,44.7618289 33.6935247,46.0431189 C33.6935247,47.3234072 32.6627634,48.3652692 31.3961163,48.3652692 C30.1284781,48.3652692 29.0977168,47.3234072 29.0977168,46.0431189 C29.0977168,44.7618289 30.1284781,43.7199668 31.3961163,43.7199668 L31.3961163,43.7199668 Z M38.8641803,34.8491122 C39.2279201,34.9512948 39.6045445,35.0234238 40,35.0234238 C40.3716687,35.0234238 40.7264885,34.960311 41.070406,34.869148 L44.7682622,42.8534181 C44.1408854,43.4284458 43.6849717,44.1817922 43.4817928,45.0413285 L35.547904,45.0413285 C35.3486895,44.1968191 34.9056604,43.4524888 34.2951325,42.8804664 L38.8641803,34.8491122 Z M40,28.3745404 C41.2676382,28.3745404 42.2983995,29.4164025 42.2983995,30.6966907 C42.2983995,31.9779807 41.2676382,33.0198428 40,33.0198428 C38.7333529,33.0198428 37.7025916,31.9779807 37.7025916,30.6966907 C37.7025916,29.4164025 38.7333529,28.3745404 40,28.3745404 L40,28.3745404 Z M49.93198,46.0431189 C49.93198,47.3234072 48.9012187,48.3652692 47.6335805,48.3652692 C46.3669334,48.3652692 45.3361721,47.3234072 45.3361721,46.0431189 C45.3361721,44.7618289 46.3669334,43.7199668 47.6335805,43.7199668 C48.9012187,43.7199668 49.93198,44.7618289 49.93198,46.0431189 L49.93198,46.0431189 Z M31.3961163,50.3688502 C33.4130387,50.3688502 35.0989281,48.9463077 35.547904,47.0449094 L43.4817928,47.0449094 C43.9317598,48.9463077 45.6166581,50.3688502 47.6335805,50.3688502 C49.9934293,50.3688502 51.9142133,48.428382 51.9142133,46.0431189 C51.9142133,43.656854 49.9934293,41.7163859 47.6335805,41.7163859 C47.2420894,41.7163859 46.8694296,41.787513 46.5086631,41.8876921 L42.820718,33.9254614 C43.7077674,33.1320434 44.2806328,31.9859951 44.2806328,30.6966907 C44.2806328,28.3114276 42.3598488,26.3709595 40,26.3709595 C37.6401512,26.3709595 35.7203583,28.3114276 35.7203583,30.6966907 C35.7203583,31.9619521 36.2694369,33.0899682 37.1277439,33.8813826 L32.5646428,41.9017171 C32.1909919,41.7935238 31.8044564,41.7163859 31.3961163,41.7163859 C29.0362675,41.7163859 27.1154834,43.656854 27.1154834,46.0431189 C27.1154834,48.428382 29.0362675,50.3688502 31.3961163,50.3688502 L31.3961163,50.3688502 Z" id="AWS-AppSync-Icon_64_Squid" fill="#FFFFFF"></path>
    </g>
</svg>