<?xml version="1.0" encoding="UTF-8"?>
<svg width="80px" height="80px" viewBox="0 0 80 80" version="1.1" xmlns="http://www.w3.org/2000/svg" xmlns:xlink="http://www.w3.org/1999/xlink">
    <!-- Generator: Sketch 64 (93537) - https://sketch.com -->
    <title>Icon-Architecture/64/Arch_AWS-Compute-Optimizer_64</title>
    <desc>Created with Sketch.</desc>
    <defs>
        <linearGradient x1="0%" y1="100%" x2="100%" y2="0%" id="linearGradient-1">
            <stop stop-color="#B0084D" offset="0%"></stop>
            <stop stop-color="#FF4F8B" offset="100%"></stop>
        </linearGradient>
    </defs>
    <g id="Icon-Architecture/64/Arch_AWS-Compute-Optimizer_64" stroke="none" stroke-width="1" fill="none" fill-rule="evenodd">
        <g id="Icon-Architecture-BG/64/Management-Governance" fill="url(#linearGradient-1)">
            <rect id="Rectangle" x="0" y="0" width="80" height="80"></rect>
        </g>
        <path d="M43.857,48.092924 L43.857,46.087924 C47.857,45.570924 51.001,42.200924 51.001,38.259924 C51.001,34.318924 47.857,30.948924 43.857,30.431924 L43.857,28.426924 C48.955,28.958924 53.001,33.234924 53.001,38.259924 C53.001,43.284924 48.955,47.560924 43.857,48.092924 L43.857,48.092924 Z M32.051,65.857924 L28.762,63.833924 L33.641,59.768924 L32.36,58.232924 L26.965,62.727924 L20.001,58.441924 L20.001,50.535924 L25.555,46.832924 L24.446,45.168924 L18.853,48.896924 L14.001,47.279924 L14,40.547924 L19.542,36.984924 L18.46,35.301924 L14,38.168924 L14.001,33.618924 L19.034,31.101924 L25.001,33.659924 L25.001,38.519924 L20.376,42.219924 L21.626,43.780924 L25.926,40.340924 L28.001,42.414924 L28.001,45.000924 L30.001,45.000924 L30.001,42.000924 C30.001,41.735924 29.895,41.480924 29.708,41.293924 L27.001,38.586924 L27.001,33.618924 L32.448,30.894924 C32.787,30.725924 33.001,30.379924 33.001,30.000924 L33.001,24.000924 L31.001,24.000924 L31.001,29.382924 L25.968,31.898924 L20.001,29.341924 L20.001,21.260924 L26.001,17.403924 L26.001,24.000924 L28.001,24.000924 L28.001,16.117924 L31.087,14.133924 L39.001,17.650924 L39.001,37.925924 L35.601,35.217924 L34.355,36.782924 L39.001,40.482924 L39.001,44.484924 L26.564,53.328924 L27.722,54.958924 L39.001,46.938924 L39.001,62.382924 L32.051,65.857924 Z M40.407,16.086924 L31.407,12.086924 C31.099,11.948924 30.743,11.976924 30.46,12.158924 L18.46,19.873924 C18.173,20.057924 18.001,20.374924 18.001,20.714924 L18.001,29.382924 L12.553,32.105924 C12.214,32.275924 12.001,32.621924 12.001,33.000924 L12,39.688924 L12.001,48.000924 C12.001,48.430924 12.276,48.812924 12.684,48.948924 L18.001,50.720924 L18.001,59.000924 C18.001,59.347924 18.18,59.669924 18.476,59.851924 L31.476,67.851924 C31.636,67.950924 31.818,68.000924 32.001,68.000924 C32.154,68.000924 32.306,67.965924 32.448,67.894924 L40.448,63.894924 C40.787,63.725924 41.001,63.379924 41.001,63.000924 L41.001,17.000924 C41.001,16.605924 40.768,16.246924 40.407,16.086924 L40.407,16.086924 Z M45.973,15.000924 L43.857,15.000924 L43.857,13.000924 L47.001,13.000924 C47.27,13.000924 47.529,13.109924 47.717,13.302924 C47.906,13.496924 48.007,13.757924 48.001,14.027924 L47.907,17.488924 C49.721,17.969924 51.457,18.683924 53.084,19.620924 L55.181,17.262924 C55.364,17.057924 55.624,16.936924 55.899,16.928924 C56.164,16.917924 56.44,17.026924 56.634,17.219924 L63.378,23.949924 C63.574,24.143924 63.679,24.409924 63.672,24.684924 C63.665,24.959924 63.544,25.219924 63.339,25.403924 L60.989,27.503924 C61.925,29.119924 62.642,30.843924 63.128,32.650924 L65.937,32.471924 C66.21,32.457924 66.483,32.551924 66.684,32.740924 C66.886,32.929924 67.001,33.192924 67.001,33.468924 L67.011,42.995924 C67.011,43.271924 66.898,43.535924 66.697,43.724924 C66.496,43.913924 66.223,44.015924 65.95,43.994924 L63.151,43.823924 C62.596,45.903924 61.735,47.879924 60.583,49.709924 L58.889,48.644924 C60.073,46.765924 60.919,44.717924 61.403,42.555924 C61.51,42.076924 61.928,41.745924 62.44,41.776924 L65.01,41.933924 L65.002,34.535924 L62.422,34.698924 C61.938,34.736924 61.493,34.401924 61.383,33.922924 C60.892,31.759924 60.043,29.715924 58.859,27.846924 C58.597,27.433924 58.672,26.892924 59.037,26.566924 L61.216,24.617924 L55.971,19.383924 L54.026,21.570924 C53.702,21.935924 53.159,22.012924 52.747,21.751924 C50.873,20.571924 48.827,19.728924 46.667,19.243924 C46.2,19.139924 45.873,18.719924 45.885,18.241924 L45.973,15.000924 Z M63.256,64.000924 L48.29,64.000924 C48.004,63.999924 47.792,63.952924 47.639,63.856924 C46.939,63.414924 46.104,62.562924 46.104,61.013924 C46.104,59.089924 47.328,58.370924 48.354,58.107924 C48.817,57.988924 49.131,57.557924 49.103,57.079924 L49.064,56.447924 C49.064,54.762924 50.262,52.883924 51.735,52.257924 C52.413,51.969924 53.04,51.855924 53.607,51.855924 C55.225,51.855924 56.369,52.784924 56.868,53.286924 C57.423,53.846924 57.86,54.567924 58.163,55.428924 C58.286,55.778924 58.592,56.030924 58.959,56.085924 C59.323,56.140924 59.692,55.987924 59.911,55.689924 C60.263,55.212924 60.866,55.012924 61.407,55.190924 C62.039,55.398924 62.401,56.066924 62.404,56.937924 C62.334,57.469924 62.696,57.962924 63.225,58.053924 C64.06,58.197924 66.001,58.777924 66.001,61.048924 C66.001,63.608924 63.661,63.958924 63.256,64.000924 L63.256,64.000924 Z M64.348,56.268924 C64.102,54.569924 63.037,53.620924 62.031,53.290924 C61.172,53.008924 60.257,53.096924 59.485,53.493924 C59.152,52.885924 58.751,52.344924 58.286,51.876924 C56.285,49.862924 53.543,49.314924 50.954,50.416924 C48.757,51.348924 47.096,53.901924 47.066,56.432924 C45.196,57.208924 44.104,58.870924 44.104,61.013924 C44.104,63.603924 45.65,64.966924 46.571,65.548924 C47.045,65.847924 47.623,65.999924 48.289,66.000924 L63.302,66.000924 C63.327,66.000924 63.351,65.999924 63.376,65.997924 C64.975,65.880924 68.001,64.696924 68.001,61.048924 C68.001,58.327924 66.232,56.840924 64.348,56.268924 L64.348,56.268924 Z" id="AWS-Compute-Optimizer_Icon_64_Squid" fill="#FFFFFF"></path>
    </g>
</svg>