<?xml version="1.0" encoding="UTF-8"?>
<svg width="80px" height="80px" viewBox="0 0 80 80" version="1.1" xmlns="http://www.w3.org/2000/svg" xmlns:xlink="http://www.w3.org/1999/xlink">
    <!-- Generator: Sketch 64 (93537) - https://sketch.com -->
    <title>Icon-Architecture/64/Arch_Amazon-EC2-M5n_64</title>
    <desc>Created with Sketch.</desc>
    <defs>
        <linearGradient x1="0%" y1="100%" x2="100%" y2="0%" id="linearGradient-1">
            <stop stop-color="#C8511B" offset="0%"></stop>
            <stop stop-color="#FF9900" offset="100%"></stop>
        </linearGradient>
    </defs>
    <g id="Icon-Architecture/64/Arch_Amazon-EC2-M5n_64" stroke="none" stroke-width="1" fill="none" fill-rule="evenodd">
        <g id="Icon-Architecture-BG/64/Compute" fill="url(#linearGradient-1)">
            <rect id="Rectangle" x="0" y="0" width="80" height="80"></rect>
        </g>
        <path d="M49.366,43.75 L49.366,39.682 C49.366,39.258 49.28,38.946 49.108,38.746 C48.936,38.546 48.666,38.446 48.298,38.446 C47.666,38.446 47.046,38.65 46.438,39.058 L46.438,43.75 L45.25,43.75 L45.25,37.666 L46.246,37.666 L46.366,38.338 C47.126,37.77 47.927,37.486 48.766,37.486 C49.35,37.486 49.794,37.64 50.098,37.948 C50.402,38.256 50.554,38.702 50.554,39.286 L50.554,43.75 L49.366,43.75 Z M38.146,42.49 C39.034,42.778 39.794,42.922 40.426,42.922 C41.034,42.922 41.5,42.784 41.824,42.508 C42.148,42.232 42.31,41.834 42.31,41.314 C42.31,40.746 42.158,40.334 41.854,40.078 C41.55,39.822 41.053,39.694 40.366,39.694 C39.87,39.694 39.25,39.734 38.506,39.814 L38.506,39.022 L38.734,35.434 L43.114,35.434 L43.114,36.418 L39.742,36.418 L39.586,38.854 C40.026,38.774 40.422,38.734 40.774,38.734 C41.637,38.734 42.314,38.962 42.802,39.418 C43.29,39.874 43.534,40.502 43.534,41.302 C43.534,42.086 43.25,42.72 42.681,43.204 C42.114,43.688 41.366,43.93 40.438,43.93 C39.622,43.93 38.858,43.77 38.146,43.45 L38.146,42.49 Z M35.194,43.75 L35.194,37.21 L32.853,41.626 L31.738,41.626 L29.386,37.198 L29.386,43.75 L28.258,43.75 L28.258,35.434 L29.626,35.434 L32.314,40.534 L34.99,35.434 L36.322,35.434 L36.322,43.75 L35.194,43.75 Z M26,53 L52,53 L52,28 L26,28 L26,53 Z M54,28 L58,28 L58,30 L54,30 L54,34 L58,34 L58,36 L54,36 L54,39 L58,39 L58,41 L54,41 L54,45 L58,45 L58,47 L54,47 L54,51 L58,51 L58,53 L54,53 L54,53.136 C54,54.164 53.164,55 52.136,55 L52,55 L52,59 L50,59 L50,55 L46,55 L46,59 L44,59 L44,55 L40,55 L40,59 L38,59 L38,55 L34,55 L34,59 L32,59 L32,55 L28,55 L28,59 L26,59 L26,55 L25.864,55 C24.836,55 24,54.164 24,53.136 L24,53 L20,53 L20,51 L24,51 L24,47 L20,47 L20,45 L24,45 L24,41 L20,41 L20,39 L24,39 L24,36 L20,36 L20,34 L24,34 L24,30 L20,30 L20,28 L24,28 L24,27.864 C24,26.836 24.836,26 25.864,26 L26,26 L26,22 L28,22 L28,26 L32,26 L32,22 L34,22 L34,26 L38,26 L38,22 L40,22 L40,26 L44,26 L44,22 L46,22 L46,26 L50,26 L50,22 L52,22 L52,26 L52.136,26 C53.164,26 54,26.836 54,27.864 L54,28 Z M41,65.876 C41,65.944 40.944,66 40.876,66 L14.124,66 C14.055,66 14,65.944 14,65.876 L14,39.124 C14,39.056 14.055,39 14.124,39 L18,39 L18,37 L14.124,37 C12.953,37 12,37.953 12,39.124 L12,65.876 C12,67.047 12.953,68 14.124,68 L40.876,68 C42.047,68 43,67.047 43,65.876 L43,61 L41,61 L41,65.876 Z M65.876,12 L39.124,12 C37.953,12 37,12.953 37,14.124 L37,20 L39,20 L39,14.124 C39,14.056 39.055,14 39.124,14 L65.876,14 C65.944,14 66,14.056 66,14.124 L66,40.876 C66,40.944 65.944,41 65.876,41 L60,41 L60,43 L65.876,43 C67.047,43 68,42.047 68,40.876 L68,14.124 C68,12.953 67.047,12 65.876,12 L65.876,12 Z" id="Amazon-EC2-M5n_Icon_64px_Squid" fill="#FFFFFF"></path>
    </g>
</svg>