<?xml version="1.0" encoding="UTF-8"?>
<svg width="80px" height="80px" viewBox="0 0 80 80" version="1.1" xmlns="http://www.w3.org/2000/svg" xmlns:xlink="http://www.w3.org/1999/xlink">
    <!-- Generator: Sketch 64 (93537) - https://sketch.com -->
    <title>Icon-Architecture/64/Arch_Amazon-EC2-R5n_64</title>
    <desc>Created with Sketch.</desc>
    <defs>
        <linearGradient x1="0%" y1="100%" x2="100%" y2="0%" id="linearGradient-1">
            <stop stop-color="#C8511B" offset="0%"></stop>
            <stop stop-color="#FF9900" offset="100%"></stop>
        </linearGradient>
    </defs>
    <g id="Icon-Architecture/64/Arch_Amazon-EC2-R5n_64" stroke="none" stroke-width="1" fill="none" fill-rule="evenodd">
        <g id="Icon-Architecture-BG/64/Compute" fill="url(#linearGradient-1)">
            <rect id="Rectangle" x="0" y="0" width="80" height="80"></rect>
        </g>
        <path d="M48.802,45 L48.802,40.254 C48.802,39.759 48.701,39.396 48.501,39.162 C48.3,38.929 47.986,38.812 47.556,38.812 C46.819,38.812 46.095,39.05 45.386,39.526 L45.386,45 L44,45 L44,37.902 L45.162,37.902 L45.302,38.686 C46.189,38.023 47.122,37.692 48.102,37.692 C48.783,37.692 49.301,37.872 49.656,38.231 C50.011,38.59 50.188,39.111 50.188,39.792 L50.188,45 L48.802,45 Z M36.534,43.53 C37.571,43.866 38.457,44.034 39.195,44.034 C39.904,44.034 40.448,43.873 40.825,43.551 C41.203,43.229 41.392,42.765 41.392,42.158 C41.392,41.496 41.215,41.015 40.861,40.716 C40.505,40.417 39.927,40.268 39.124,40.268 C38.545,40.268 37.823,40.315 36.954,40.408 L36.954,39.484 L37.22,35.298 L42.33,35.298 L42.33,36.446 L38.397,36.446 L38.214,39.288 C38.728,39.195 39.19,39.148 39.6,39.148 C40.609,39.148 41.397,39.414 41.966,39.946 C42.535,40.478 42.821,41.211 42.821,42.144 C42.821,43.059 42.489,43.798 41.826,44.363 C41.163,44.928 40.291,45.21 39.208,45.21 C38.256,45.21 37.364,45.023 36.534,44.65 L36.534,43.53 Z M29.562,39.96 L31.536,39.96 C32.133,39.96 32.588,39.811 32.902,39.512 C33.214,39.213 33.37,38.77 33.37,38.182 C33.37,37.604 33.221,37.167 32.922,36.873 C32.623,36.579 32.18,36.432 31.592,36.432 L29.562,36.432 L29.562,39.96 Z M28.176,45 L28.176,35.298 L31.718,35.298 C32.66,35.298 33.412,35.557 33.972,36.075 C34.532,36.593 34.812,37.291 34.812,38.168 C34.812,38.812 34.637,39.37 34.287,39.841 C33.937,40.313 33.445,40.655 32.81,40.87 L35.386,45 L33.832,45 L31.452,41.094 L29.562,41.094 L29.562,45 L28.176,45 Z M26,53 L52,53 L52,28 L26,28 L26,53 Z M54,28 L58,28 L58,30 L54,30 L54,34 L58,34 L58,36 L54,36 L54,39 L58,39 L58,41 L54,41 L54,45 L58,45 L58,47 L54,47 L54,51 L58,51 L58,53 L54,53 L54,53.136 C54,54.164 53.164,55 52.136,55 L52,55 L52,59 L50,59 L50,55 L46,55 L46,59 L44,59 L44,55 L40,55 L40,59 L38,59 L38,55 L34,55 L34,59 L32,59 L32,55 L28,55 L28,59 L26,59 L26,55 L25.865,55 C24.836,55 24,54.164 24,53.136 L24,53 L20,53 L20,51 L24,51 L24,47 L20,47 L20,45 L24,45 L24,41 L20,41 L20,39 L24,39 L24,36 L20,36 L20,34 L24,34 L24,30 L20,30 L20,28 L24,28 L24,27.864 C24,26.836 24.836,26 25.865,26 L26,26 L26,22 L28,22 L28,26 L32,26 L32,22 L34,22 L34,26 L38,26 L38,22 L40,22 L40,26 L44,26 L44,22 L46,22 L46,26 L50,26 L50,22 L52,22 L52,26 L52.136,26 C53.164,26 54,26.836 54,27.864 L54,28 Z M41,65.876 C41,65.944 40.945,66 40.876,66 L14.124,66 C14.056,66 14,65.944 14,65.876 L14,39.124 C14,39.056 14.056,39 14.124,39 L18,39 L18,37 L14.124,37 C12.953,37 12,37.953 12,39.124 L12,65.876 C12,67.047 12.953,68 14.124,68 L40.876,68 C42.047,68 43,67.047 43,65.876 L43,61 L41,61 L41,65.876 Z M65.876,12 L39.124,12 C37.953,12 37,12.953 37,14.124 L37,20 L39,20 L39,14.124 C39,14.056 39.056,14 39.124,14 L65.876,14 C65.945,14 66,14.056 66,14.124 L66,40.876 C66,40.944 65.945,41 65.876,41 L60,41 L60,43 L65.876,43 C67.047,43 68,42.047 68,40.876 L68,14.124 C68,12.953 67.047,12 65.876,12 L65.876,12 Z" id="Amazon-EC2-R5n_Icon_64px_Squid" fill="#FFFFFF"></path>
    </g>
</svg>