<?xml version="1.0" encoding="UTF-8" standalone="yes"?>
<svg width="80px" height="80px" viewBox="0 0 80 80" version="1.1" xmlns="http://www.w3.org/2000/svg" xmlns:xlink="http://www.w3.org/1999/xlink">
  <title>Icon-Architecture/64/Arch_Amazon-Elastic-Container-Registry_64</title>
  <desc>Created with Sketch.</desc>
  <defs>
    <linearGradient x1="0%" y1="100%" x2="100%" y2="0%" id="linearGradient-1">
      <stop stop-color="#C8511B" offset="0%"/>
      <stop stop-color="#FF9900" offset="100%"/>
    </linearGradient>
  </defs>
  <g id="Icon-Architecture/64/Arch_Amazon-Elastic-Container-Registry_64" stroke="none" stroke-width="1" fill="none" fill-rule="evenodd">
    <g id="Icon-Architecture-BG/64/Compute" fill="url(#linearGradient-1)">
      <rect id="Rectangle" x="0" y="0" width="80" height="80"/>
    </g>
    <g id="Icon-Service/64/Amazon-Elastic-Container-Registry" transform="translate(8.000000, 8.000000)" fill="#FFFFFF">
      <path d="M30.7880741,29.5776945 C30.2933845,29.8655125 29.9855777,30.4000317 29.9855777,30.973662 L29.9855777,58.7195186 L8.99874588,46.9841655 L8.99874588,19.7076428 L32.5569643,6.05885147 L53.484833,16.4283226 L30.7880741,29.5776945 Z M55.9203049,16.4022485 C55.9203049,15.8276153 55.6134974,15.2920933 55.0598448,14.9751927 L33.3464689,4.21460994 C32.8507799,3.92879764 32.2351662,3.92779479 31.7404766,4.21561279 L7.80249647,18.0840283 C7.30780687,18.3718463 7,18.9063655 7,19.4799958 L7,47.2158239 C7,47.7894542 7.30780687,48.3239734 7.81748707,48.6198142 L29.573836,60.7853901 C29.8216805,60.9287976 30.1005056,61 30.3783312,61 C30.6551575,61 30.9339826,60.9287976 31.1808277,60.7853901 C31.6765167,60.4985749 31.9843236,59.9640557 31.9843236,59.3894226 L31.9843236,31.201309 L55.1178084,17.798216 C55.6134974,17.5114008 55.9203049,16.9768817 55.9203049,16.4022485 L55.9203049,16.4022485 Z M55.9692742,47.0473451 L36.9811883,58.6613533 L36.9811883,48.2617967 L46.881976,41.872638 L46.9499334,41.424364 C46.9679221,41.3070305 46.9749177,41.3070305 46.9749177,40.7664942 L47.0058983,28.3602344 L56.0002547,23.1484218 L55.9692742,47.0473451 Z M57.1965042,21.0715191 C56.6998158,20.7816953 56.0842021,20.7826982 55.5885131,21.0715191 L46.0135209,26.6182835 C45.713709,26.7817481 45.0081517,27.1658398 45.0081517,27.9580914 L44.9761718,40.7173546 L35.8508975,46.606091 C35.3062392,46.9310145 34.9824424,47.4454766 34.9824424,47.9890214 L34.9824424,59.3081917 C34.9824424,59.8748021 35.2872511,60.3912699 35.7979307,60.6871107 C36.0647633,60.8405468 36.361577,60.9187691 36.6573914,60.9187691 C36.948209,60.9187691 37.2390265,60.8445582 37.5018616,60.692125 L57.1675223,48.6639396 C57.6622119,48.3761216 57.9680201,47.8416024 57.9680201,47.2709807 L58,22.4664837 C58,21.8928534 57.6921931,21.3583342 57.1965042,21.0715191 L57.1965042,21.0715191 Z" id="Amazon-Elastic-Container-Registry_Icon_64_Squid"/>
    </g>
  </g>
</svg>