<?xml version="1.0" encoding="UTF-8" standalone="yes"?>
<svg width="80px" height="80px" viewBox="0 0 80 80" version="1.1" xmlns="http://www.w3.org/2000/svg" xmlns:xlink="http://www.w3.org/1999/xlink">
  <title>Icon-Architecture/64/Arch_Amazon-Elastic-Container-Kubernetes_64</title>
  <desc>Created with Sketch.</desc>
  <defs>
    <linearGradient x1="0%" y1="100%" x2="100%" y2="0%" id="linearGradient-1">
      <stop stop-color="#C8511B" offset="0%"/>
      <stop stop-color="#FF9900" offset="100%"/>
    </linearGradient>
  </defs>
  <g id="Icon-Architecture/64/Arch_Amazon-Elastic-Container-Kubernetes_64" stroke="none" stroke-width="1" fill="none" fill-rule="evenodd">
    <g id="Icon-Architecture-BG/64/Compute" fill="url(#linearGradient-1)">
      <rect id="Rectangle" x="0" y="0" width="80" height="80"/>
    </g>
    <g id="Icon-Service/64/Amazon-Elastic-Container-Kubernetes" transform="translate(8.000000, 8.000000)" fill="#FFFFFF">
      <path d="M38.842,24.1990168 L32.013,32.1200132 L39.441,40.7840092 L36.669,40.7840092 L30,33.0000169 L30,41.0000169 L28,41.0000169 L28,24.0000169 L30,24.0000169 L30,31.0000169 L36.181,24.1990168 L38.842,24.1990168 Z M56,40.2340095 L48,35.4330117 L48,24.0000169 C48,23.6440171 47.812,23.3150172 47.504,23.1360173 L36,16.4260204 L36,6.75202478 L56,18.5710194 L56,40.2340095 Z M57.509,17.13902 L35.509,4.13902598 C35.199,3.95602606 34.818,3.95402606 34.504,4.13102598 C34.193,4.3090259 34,4.64102575 34,5.00002559 L34,17.0000201 C34,17.3550199 34.189,17.6840198 34.496,17.8640197 L46,24.5740166 L46,36.0000114 C46,36.3510113 46.185,36.6770111 46.486,36.857011 L56.486,42.8570083 C56.644,42.9520082 56.822,43 57,43 C57.17,43 57.34,42.9570082 57.493,42.8700083 C57.807,42.6930084 58,42.3600085 58,42 L58,18.0000196 C58,17.6460198 57.814,17.31902 57.509,17.13902 L57.509,17.13902 Z M32.445,58.863001 L9,46.3990067 L9,18.5710194 L29,6.75202478 L29,16.4510204 L18.463,23.1560173 C18.175,23.3400172 18,23.6580171 18,24.0000169 L18,41.0000091 C18,41.373009 18.208,41.7150088 18.538,41.8870087 L31.991,48.8870055 C32.28,49.0370055 32.624,49.0380055 32.912,48.8880055 L45.964,42.1440086 L53.996,46.9640064 L32.445,58.863001 Z M56.515,46.1420068 L46.515,40.1420095 C46.217,39.9640096 45.849,39.9520096 45.541,40.1120095 L32.455,46.8730065 L20,40.3930094 L20,24.5490167 L30.537,17.8440197 C30.825,17.6600198 31,17.3420199 31,17.0000201 L31,5.00002559 C31,4.64102575 30.808,4.3090259 30.496,4.13102598 C30.184,3.95402606 29.802,3.95602606 29.491,4.13902598 L7.491,17.13902 C7.187,17.31902 7,17.6460198 7,18.0000196 L7,47 C7,47.3690062 7.204,47.7090061 7.53,47.883006 L31.984,60.8830001 C32.131,60.961 32.292,61 32.453,61 C32.62,61 32.786,60.958 32.937,60.8750001 L56.484,47.875006 C56.797,47.7020061 56.993,47.3750062 57.0001416,47.0180064 C57.006,46.6600066 56.821,46.3260067 56.515,46.1420068 L56.515,46.1420068 Z" id="Amazon-Elastic-Container-Kubernetes_Icon_64_Squid"/>
    </g>
  </g>
</svg>