<?xml version="1.0" encoding="UTF-8" standalone="yes"?>
<svg width="80px" height="80px" viewBox="0 0 48 48" version="1.1" xmlns="http://www.w3.org/2000/svg" xmlns:xlink="http://www.w3.org/1999/xlink">
  <title>Icon-Resource/Analytics/Res_Amazon-EMR_EMR-Engine-MapR-M3_48_Dark</title>
  <g id="Icon-Resource/Analytics/Res_Amazon-EMR_EMR-Engine-MapR-M3_48" stroke="none" stroke-width="1" fill="none" fill-rule="evenodd">
    <path d="M43.878,17.822 C43.878,17.316 43.455,16.902 42.936,16.902 L40.682,16.902 C40.162,16.902 39.739,17.316 39.739,17.822 L39.739,19.416 C39.739,19.968 39.292,20.416 38.739,20.416 L34.435,20.416 C33.882,20.416 33.435,19.968 33.435,19.416 L33.435,17.703 C33.435,17.193 33.011,16.779 32.49,16.779 L27.429,16.779 C26.876,16.779 26.429,16.332 26.429,15.779 L26.429,13.849 C26.429,13.58 26.202,13.361 25.924,13.361 L16.684,13.361 C16.404,13.361 16.178,13.58 16.178,13.849 L16.178,15.779 C16.178,16.332 15.731,16.779 15.178,16.779 L9.307,16.779 C8.786,16.779 8.362,17.193 8.362,17.703 L8.362,33.547 C8.362,33.822 8.594,34.045 8.879,34.045 L19.867,34.045 C20.42,34.045 20.867,34.492 20.867,35.045 L20.867,35.67 C20.867,37.179 22.114,38.408 23.648,38.408 L30.655,38.408 C32.173,38.408 33.408,37.179 33.408,35.67 L33.408,33.301 C33.408,32.748 33.856,32.301 34.408,32.301 L38.772,32.301 C39.324,32.301 39.772,32.748 39.772,33.301 L39.772,34.869 C39.772,35.377 40.194,35.791 40.714,35.791 L42.936,35.791 C43.455,35.791 43.878,35.377 43.878,34.869 L43.878,17.822 Z M45.878,17.822 L45.878,34.869 C45.878,36.48 44.558,37.791 42.936,37.791 L40.714,37.791 C39.092,37.791 37.772,36.48 37.772,34.869 L37.772,34.301 L35.408,34.301 L35.408,35.67 C35.408,38.283 33.276,40.408 30.655,40.408 L23.648,40.408 C21.139,40.408 19.075,38.482 18.882,36.045 L8.879,36.045 C7.491,36.045 6.362,34.924 6.362,33.547 L6.362,26.449 L4,26.449 L4,35.045 L2,35.045 L2,15.851 L4,15.851 L4,24.449 L6.362,24.449 L6.362,17.703 C6.362,16.092 7.684,14.779 9.307,14.779 L14.178,14.779 L14.178,13.849 C14.178,12.478 15.302,11.361 16.684,11.361 L20.321,11.361 L20.321,9 L15.215,9 L15.215,7 L27.429,7 L27.429,9 L22.321,9 L22.321,11.361 L25.924,11.361 C27.305,11.361 28.429,12.478 28.429,13.849 L28.429,14.779 L32.49,14.779 C34.113,14.779 35.435,16.092 35.435,17.703 L35.435,18.416 L37.739,18.416 L37.739,17.822 C37.739,16.213 39.06,14.902 40.682,14.902 L42.936,14.902 C44.558,14.902 45.878,16.213 45.878,17.822 L45.878,17.822 Z M40.142,25.875 L41.362,24.218 L41.362,23.328 L38.344,23.328 L38.344,24.297 L40.201,24.297 L38.945,26.006 L38.945,26.748 C39.132,26.713 39.289,26.696 39.416,26.696 C40.068,26.696 40.394,26.98 40.394,27.551 C40.394,28.214 40.085,28.546 39.469,28.546 C39.313,28.546 39.123,28.519 38.901,28.467 C38.681,28.415 38.475,28.347 38.282,28.266 L38.282,29.182 C38.718,29.385 39.149,29.488 39.574,29.488 C40.185,29.488 40.67,29.313 41.03,28.965 C41.392,28.615 41.571,28.14 41.571,27.542 C41.571,27.065 41.444,26.679 41.191,26.385 C40.94,26.093 40.589,25.923 40.142,25.875 L40.142,25.875 Z M34.636,26.713 L33.388,23.328 L31.992,23.328 L31.992,29.374 L33.082,29.374 L33.082,25.16 L34.094,27.882 L35.133,27.882 L36.153,25.134 L36.153,29.374 L37.244,29.374 L37.244,23.328 L35.883,23.328 L34.636,26.713 Z M27.961,25.23 C27.961,24.904 27.901,24.657 27.782,24.488 C27.663,24.32 27.49,24.236 27.264,24.236 L26.696,24.236 L26.696,26.224 L27.264,26.224 C27.49,26.224 27.663,26.14 27.782,25.971 C27.901,25.802 27.961,25.555 27.961,25.23 L27.961,25.23 Z M28.258,26.948 L29.48,29.374 L28.223,29.374 L27.167,27.132 L26.696,27.132 L26.696,29.374 L25.501,29.374 L25.501,23.328 L27.411,23.328 C27.947,23.328 28.372,23.499 28.69,23.839 C29.007,24.178 29.165,24.642 29.165,25.23 C29.165,25.637 29.087,25.989 28.93,26.286 C28.773,26.582 28.549,26.803 28.258,26.948 L28.258,26.948 Z M23.399,27.14 C23.399,26.611 23.348,26.238 23.245,26.019 C23.144,25.801 22.971,25.692 22.727,25.692 C22.524,25.692 22.337,25.756 22.169,25.885 L22.169,28.353 C22.354,28.493 22.543,28.562 22.735,28.562 C22.974,28.562 23.144,28.453 23.245,28.231 C23.348,28.01 23.399,27.646 23.399,27.14 L23.399,27.14 Z M24.214,25.387 C24.467,25.777 24.593,26.344 24.593,27.089 C24.593,27.833 24.462,28.413 24.197,28.829 C23.932,29.245 23.567,29.452 23.102,29.452 C22.94,29.452 22.773,29.42 22.605,29.352 C22.436,29.285 22.29,29.194 22.169,29.078 L22.169,31.172 L20.973,31.172 L20.973,24.916 L21.95,24.916 L22.038,25.291 C22.183,25.145 22.354,25.028 22.552,24.937 C22.75,24.847 22.94,24.802 23.119,24.802 C23.596,24.802 23.961,24.997 24.214,25.387 L24.214,25.387 Z M18.861,27.515 C18.733,27.474 18.582,27.455 18.408,27.455 C18.239,27.455 18.109,27.509 18.019,27.616 C17.93,27.723 17.885,27.879 17.885,28.083 C17.885,28.258 17.921,28.395 17.993,28.497 C18.066,28.598 18.163,28.65 18.286,28.65 C18.477,28.65 18.67,28.557 18.861,28.371 L18.861,27.515 Z M19.62,25.147 C19.848,25.377 19.96,25.744 19.96,26.251 L19.96,29.374 L19.036,29.374 L18.932,28.972 C18.832,29.124 18.69,29.248 18.504,29.343 C18.317,29.439 18.128,29.488 17.938,29.488 C17.575,29.488 17.291,29.37 17.081,29.135 C16.872,28.899 16.768,28.574 16.768,28.162 C16.768,27.725 16.896,27.381 17.151,27.128 C17.407,26.875 17.754,26.748 18.19,26.748 C18.37,26.748 18.593,26.783 18.861,26.853 L18.861,26.451 C18.861,26.148 18.822,25.944 18.744,25.836 C18.665,25.728 18.519,25.676 18.303,25.676 C17.953,25.676 17.526,25.768 17.021,25.954 L17.021,25.16 C17.19,25.05 17.41,24.963 17.684,24.898 C17.957,24.835 18.236,24.802 18.521,24.802 C19.027,24.802 19.393,24.918 19.62,25.147 L19.62,25.147 Z M14.465,23.328 L15.825,23.328 L15.825,29.374 L14.734,29.374 L14.734,25.134 L13.715,27.882 L12.676,27.882 L11.664,25.16 L11.664,29.374 L10.574,29.374 L10.574,23.328 L11.97,23.328 L13.217,26.713 L14.465,23.328 Z" id="Fill-10" fill="#A166FF"/>
  </g>
</svg>