<?xml version="1.0" encoding="UTF-8" standalone="yes"?>
<svg width="80px" height="80px" viewBox="0 0 48 48" version="1.1" xmlns="http://www.w3.org/2000/svg" xmlns:xlink="http://www.w3.org/1999/xlink">
  <title>Icon-Resource/Analytics/Res_Amazon-EMR_EMR-Engine-MapR-M5_48_Dark</title>
  <g id="Icon-Resource/Analytics/Res_Amazon-EMR_EMR-Engine-MapR-M5_48" stroke="none" stroke-width="1" fill="none" fill-rule="evenodd">
    <path d="M43.879,17.824 C43.879,17.316 43.456,16.904 42.936,16.904 L40.682,16.904 C40.162,16.904 39.739,17.316 39.739,17.824 L39.739,19.418 C39.739,19.97 39.292,20.418 38.739,20.418 L34.436,20.418 C33.883,20.418 33.436,19.97 33.436,19.418 L33.436,17.703 C33.436,17.195 33.012,16.781 32.49,16.781 L27.43,16.781 C26.877,16.781 26.43,16.334 26.43,15.781 L26.43,13.851 C26.43,13.582 26.203,13.363 25.924,13.363 L16.684,13.363 C16.405,13.363 16.179,13.582 16.179,13.851 L16.179,15.781 C16.179,16.334 15.732,16.781 15.179,16.781 L9.307,16.781 C8.786,16.781 8.362,17.195 8.362,17.703 L8.362,33.547 C8.362,33.822 8.594,34.047 8.879,34.047 L19.868,34.047 C20.421,34.047 20.868,34.494 20.868,35.047 L20.868,35.672 C20.868,37.181 22.115,38.41 23.648,38.41 L30.655,38.41 C32.174,38.41 33.409,37.181 33.409,35.672 L33.409,33.302 C33.409,32.75 33.857,32.302 34.409,32.302 L38.772,32.302 C39.324,32.302 39.772,32.75 39.772,33.302 L39.772,34.871 C39.772,35.379 40.194,35.791 40.714,35.791 L42.936,35.791 C43.456,35.791 43.879,35.379 43.879,34.871 L43.879,17.824 Z M45.879,17.824 L45.879,34.871 C45.879,36.482 44.559,37.791 42.936,37.791 L40.714,37.791 C39.092,37.791 37.772,36.482 37.772,34.871 L37.772,34.302 L35.409,34.302 L35.409,35.672 C35.409,38.285 33.276,40.41 30.655,40.41 L23.648,40.41 C21.14,40.41 19.076,38.484 18.883,36.047 L8.879,36.047 C7.491,36.047 6.362,34.926 6.362,33.547 L6.362,26.449 L4,26.449 L4,35.047 L2,35.047 L2,15.853 L4,15.853 L4,24.449 L6.362,24.449 L6.362,17.703 C6.362,16.092 7.684,14.781 9.307,14.781 L14.179,14.781 L14.179,13.851 C14.179,12.478 15.303,11.363 16.684,11.363 L20.322,11.363 L20.322,9 L15.215,9 L15.215,7 L27.43,7 L27.43,9 L22.322,9 L22.322,11.363 L25.924,11.363 C27.306,11.363 28.43,12.478 28.43,13.851 L28.43,14.781 L32.49,14.781 C34.114,14.781 35.436,16.092 35.436,17.703 L35.436,18.418 L37.739,18.418 L37.739,17.824 C37.739,16.215 39.06,14.904 40.682,14.904 L42.936,14.904 C44.559,14.904 45.879,16.215 45.879,17.824 L45.879,17.824 Z M40.917,25.916 C40.679,25.757 40.397,25.677 40.071,25.677 C39.873,25.677 39.681,25.697 39.494,25.738 L39.573,24.299 L41.449,24.299 L41.449,23.33 L38.605,23.33 L38.465,25.913 L38.465,26.645 C38.826,26.587 39.143,26.557 39.416,26.557 C39.777,26.557 40.042,26.637 40.21,26.793 C40.379,26.95 40.464,27.2 40.464,27.544 C40.464,27.869 40.388,28.118 40.236,28.29 C40.085,28.462 39.864,28.548 39.573,28.548 C39.167,28.548 38.731,28.457 38.265,28.276 L38.265,29.176 C38.491,29.286 38.72,29.366 38.949,29.415 C39.18,29.465 39.431,29.49 39.704,29.49 C40.083,29.49 40.418,29.41 40.712,29.25 C41.006,29.09 41.237,28.86 41.406,28.56 C41.574,28.261 41.658,27.913 41.658,27.517 C41.658,27.169 41.595,26.855 41.467,26.575 C41.339,26.296 41.155,26.076 40.917,25.916 L40.917,25.916 Z M34.635,26.715 L33.388,23.33 L31.991,23.33 L31.991,29.376 L33.082,29.376 L33.082,25.162 L34.095,27.884 L35.132,27.884 L36.153,25.136 L36.153,29.376 L37.243,29.376 L37.243,23.33 L35.883,23.33 L34.635,26.715 Z M27.961,25.232 C27.961,24.906 27.901,24.658 27.782,24.49 C27.663,24.321 27.49,24.237 27.263,24.237 L26.695,24.237 L26.695,26.226 L27.263,26.226 C27.49,26.226 27.663,26.141 27.782,25.973 C27.901,25.804 27.961,25.557 27.961,25.232 L27.961,25.232 Z M28.258,26.95 L29.48,29.376 L28.223,29.376 L27.167,27.134 L26.695,27.134 L26.695,29.376 L25.501,29.376 L25.501,23.33 L27.411,23.33 C27.946,23.33 28.372,23.5 28.69,23.841 C29.007,24.18 29.165,24.644 29.165,25.232 C29.165,25.639 29.087,25.991 28.93,26.287 C28.773,26.584 28.549,26.805 28.258,26.95 L28.258,26.95 Z M23.398,27.142 C23.398,26.613 23.347,26.24 23.245,26.021 C23.144,25.803 22.971,25.694 22.726,25.694 C22.523,25.694 22.336,25.758 22.168,25.887 L22.168,28.355 C22.355,28.495 22.543,28.564 22.735,28.564 C22.974,28.564 23.144,28.455 23.245,28.233 C23.347,28.012 23.398,27.648 23.398,27.142 L23.398,27.142 Z M24.214,25.389 C24.467,25.778 24.594,26.345 24.594,27.091 C24.594,27.835 24.461,28.415 24.196,28.831 C23.932,29.247 23.567,29.454 23.102,29.454 C22.939,29.454 22.773,29.422 22.605,29.354 C22.436,29.287 22.29,29.196 22.168,29.08 L22.168,31.174 L20.973,31.174 L20.973,24.918 L21.95,24.918 L22.037,25.293 C22.183,25.147 22.355,25.029 22.552,24.939 C22.75,24.849 22.939,24.803 23.118,24.803 C23.596,24.803 23.961,24.999 24.214,25.389 L24.214,25.389 Z M18.86,27.517 C18.733,27.476 18.582,27.457 18.407,27.457 C18.238,27.457 18.109,27.511 18.02,27.618 C17.93,27.725 17.884,27.881 17.884,28.085 C17.884,28.26 17.92,28.397 17.993,28.499 C18.066,28.601 18.163,28.652 18.285,28.652 C18.478,28.652 18.669,28.559 18.86,28.373 L18.86,27.517 Z M19.62,25.149 C19.847,25.378 19.961,25.746 19.961,26.253 L19.961,29.376 L19.035,29.376 L18.931,28.974 C18.832,29.126 18.69,29.25 18.504,29.345 C18.317,29.441 18.128,29.49 17.937,29.49 C17.576,29.49 17.29,29.372 17.081,29.137 C16.871,28.901 16.767,28.576 16.767,28.164 C16.767,27.727 16.896,27.383 17.151,27.13 C17.406,26.877 17.753,26.75 18.19,26.75 C18.369,26.75 18.594,26.785 18.86,26.855 L18.86,26.453 C18.86,26.15 18.821,25.945 18.743,25.838 C18.664,25.731 18.519,25.677 18.303,25.677 C17.954,25.677 17.525,25.77 17.021,25.956 L17.021,25.162 C17.189,25.051 17.409,24.964 17.683,24.9 C17.957,24.837 18.235,24.803 18.521,24.803 C19.027,24.803 19.394,24.92 19.62,25.149 L19.62,25.149 Z M14.464,23.33 L15.825,23.33 L15.825,29.376 L14.734,29.376 L14.734,25.136 L13.714,27.884 L12.676,27.884 L11.664,25.162 L11.664,29.376 L10.573,29.376 L10.573,23.33 L11.97,23.33 L13.216,26.715 L14.464,23.33 Z" id="Fill-14" fill="#A166FF"/>
  </g>
</svg>