<?xml version="1.0" encoding="UTF-8" standalone="yes"?>
<svg width="80px" height="80px" viewBox="0 0 48 48" version="1.1" xmlns="http://www.w3.org/2000/svg" xmlns:xlink="http://www.w3.org/1999/xlink">
  <title>Icon-Resource/Analytics/Res_Amazon-EMR_EMR-Engine-MapR-M7_48_Dark</title>
  <g id="Icon-Resource/Analytics/Res_Amazon-EMR_EMR-Engine-MapR-M7_48" stroke="none" stroke-width="1" fill="none" fill-rule="evenodd">
    <path d="M43.9785,34.9346 C43.9785,35.4446 43.5535,35.8596 43.0315,35.8596 L40.8035,35.8596 C40.2815,35.8596 39.8565,35.4446 39.8565,34.9346 L39.8565,33.3616 C39.8565,32.8086 39.4095,32.3616 38.8565,32.3616 L34.4835,32.3616 C33.9305,32.3616 33.4835,32.8086 33.4835,33.3616 L33.4835,35.7376 C33.4835,37.2516 32.2445,38.4836 30.7205,38.4836 L23.6975,38.4836 C22.1595,38.4836 20.9085,37.2516 20.9085,35.7376 L20.9085,35.1106 C20.9085,34.5576 20.4605,34.1106 19.9085,34.1106 L8.8935,34.1106 C8.6065,34.1106 8.3735,33.8846 8.3735,33.6076 L8.3735,17.7266 C8.3735,17.2146 8.7985,16.7986 9.3225,16.7986 L15.2075,16.7986 C15.7595,16.7986 16.2075,16.3516 16.2075,15.7986 L16.2075,13.8646 C16.2075,13.5926 16.4355,13.3726 16.7155,13.3726 L25.9785,13.3726 C26.2585,13.3726 26.4875,13.5926 26.4875,13.8646 L26.4875,15.7986 C26.4875,16.3516 26.9345,16.7986 27.4875,16.7986 L32.5605,16.7986 C33.0835,16.7986 33.5095,17.2146 33.5095,17.7266 L33.5095,19.4436 C33.5095,19.9966 33.9575,20.4436 34.5095,20.4436 L38.8245,20.4436 C39.3765,20.4436 39.8245,19.9966 39.8245,19.4436 L39.8245,17.8466 C39.8245,17.3366 40.2495,16.9216 40.7715,16.9216 L43.0315,16.9216 C43.5535,16.9216 43.9785,17.3366 43.9785,17.8466 L43.9785,34.9346 Z M43.0315,14.9216 L40.7715,14.9216 C39.1465,14.9216 37.8245,16.2346 37.8245,17.8466 L37.8245,18.4436 L35.5095,18.4436 L35.5095,17.7266 C35.5095,16.1126 34.1865,14.7986 32.5605,14.7986 L28.4875,14.7986 L28.4875,13.8646 C28.4875,12.4906 27.3625,11.3726 25.9785,11.3726 L22.3655,11.3726 L22.3655,8.9996 L27.4875,8.9996 L27.4875,6.9996 L15.2445,6.9996 L15.2445,8.9996 L20.3655,8.9996 L20.3655,11.3726 L16.7155,11.3726 C15.3325,11.3726 14.2075,12.4906 14.2075,13.8646 L14.2075,14.7986 L9.3225,14.7986 C7.6965,14.7986 6.3735,16.1126 6.3735,17.7266 L6.3735,24.4906 L3.9995,24.4906 L3.9995,15.8716 L1.9995,15.8716 L1.9995,35.1106 L3.9995,35.1106 L3.9995,26.4906 L6.3735,26.4906 L6.3735,33.6076 C6.3735,34.9876 7.5035,36.1106 8.8935,36.1106 L18.9225,36.1106 C19.1155,38.5536 21.1835,40.4836 23.6975,40.4836 L30.7205,40.4836 C33.3465,40.4836 35.4835,38.3546 35.4835,35.7376 L35.4835,34.3616 L37.8565,34.3616 L37.8565,34.9346 C37.8565,36.5466 39.1785,37.8596 40.8035,37.8596 L43.0315,37.8596 C44.6565,37.8596 45.9785,36.5466 45.9785,34.9346 L45.9785,17.8466 C45.9785,16.2346 44.6565,14.9216 43.0315,14.9216 L43.0315,14.9216 Z M38.8735,29.4266 L40.5955,24.3536 L38.2175,24.3536 L38.2175,23.3656 L41.7945,23.3656 L41.7945,24.2486 L40.1155,29.4266 L38.8735,29.4266 Z M36.2325,29.4266 L36.2325,25.1756 L35.2095,27.9306 L34.1675,27.9306 L33.1545,25.2026 L33.1545,29.4266 L32.0615,29.4266 L32.0615,23.3656 L33.4605,23.3656 L34.7095,26.7586 L35.9605,23.3656 L37.3265,23.3656 L37.3265,29.4266 L36.2325,29.4266 Z M26.7525,26.2686 L27.3215,26.2686 C27.5475,26.2686 27.7215,26.1846 27.8415,26.0156 C27.9605,25.8456 28.0205,25.5986 28.0205,25.2726 C28.0205,24.9466 27.9605,24.6976 27.8415,24.5296 C27.7215,24.3596 27.5475,24.2746 27.3215,24.2746 L26.7525,24.2746 L26.7525,26.2686 Z M28.2835,29.4266 L27.2245,27.1786 L26.7525,27.1786 L26.7525,29.4266 L25.5545,29.4266 L25.5545,23.3656 L27.4695,23.3656 C28.0065,23.3656 28.4325,23.5366 28.7505,23.8776 C29.0685,24.2176 29.2275,24.6826 29.2275,25.2726 C29.2275,25.6806 29.1485,26.0336 28.9915,26.3306 C28.8345,26.6276 28.6095,26.8486 28.3185,26.9956 L29.5415,29.4266 L28.2835,29.4266 Z M22.7735,25.7366 C22.5695,25.7366 22.3825,25.7996 22.2135,25.9276 L22.2135,28.4036 C22.4005,28.5426 22.5895,28.6126 22.7825,28.6126 C23.0215,28.6126 23.1915,28.5026 23.2935,28.2806 C23.3955,28.0586 23.4475,27.6946 23.4475,27.1876 C23.4475,26.6576 23.3955,26.2826 23.2935,26.0636 C23.1915,25.8446 23.0185,25.7366 22.7735,25.7366 L22.7735,25.7366 Z M21.0155,31.2286 L21.0155,24.9566 L21.9955,24.9566 L22.0825,25.3326 C22.2275,25.1876 22.4005,25.0706 22.5985,24.9786 C22.7965,24.8886 22.9865,24.8436 23.1665,24.8436 C23.6445,24.8436 24.0105,25.0386 24.2645,25.4296 C24.5185,25.8206 24.6445,26.3886 24.6445,27.1346 C24.6445,27.8806 24.5125,28.4626 24.2475,28.8796 C23.9815,29.2966 23.6165,29.5046 23.1505,29.5046 C22.9865,29.5046 22.8205,29.4716 22.6505,29.4046 C22.4825,29.3366 22.3365,29.2466 22.2135,29.1286 L22.2135,31.2286 L21.0155,31.2286 Z M18.3215,28.7006 C18.5135,28.7006 18.7075,28.6076 18.8995,28.4206 L18.8995,27.5636 C18.7705,27.5226 18.6195,27.5016 18.4445,27.5016 C18.2755,27.5016 18.1455,27.5556 18.0545,27.6636 C17.9645,27.7716 17.9195,27.9276 17.9195,28.1316 C17.9195,28.3066 17.9555,28.4456 18.0295,28.5466 C18.1025,28.6496 18.1995,28.7006 18.3215,28.7006 L18.3215,28.7006 Z M19.0745,29.4266 L18.9695,29.0236 C18.8705,29.1756 18.7275,29.2996 18.5405,29.3956 C18.3535,29.4926 18.1645,29.5396 17.9715,29.5396 C17.6105,29.5396 17.3255,29.4216 17.1145,29.1856 C16.9055,28.9506 16.8005,28.6246 16.8005,28.2106 C16.8005,27.7736 16.9275,27.4276 17.1845,27.1746 C17.4415,26.9206 17.7895,26.7936 18.2255,26.7936 C18.4065,26.7936 18.6305,26.8296 18.8995,26.8996 L18.8995,26.4966 C18.8995,26.1936 18.8605,25.9886 18.7815,25.8796 C18.7025,25.7726 18.5545,25.7186 18.3385,25.7186 C17.9895,25.7186 17.5615,25.8116 17.0535,25.9976 L17.0535,25.2026 C17.2225,25.0916 17.4445,25.0036 17.7185,24.9396 C17.9935,24.8756 18.2725,24.8436 18.5575,24.8436 C19.0655,24.8436 19.4325,24.9586 19.6605,25.1896 C19.8875,25.4196 20.0005,25.7886 20.0005,26.2946 L20.0005,29.4266 L19.0745,29.4266 Z M14.7625,29.4266 L14.7625,25.1756 L13.7395,27.9306 L12.6995,27.9306 L11.6845,25.2026 L11.6845,29.4266 L10.5905,29.4266 L10.5905,23.3656 L11.9905,23.3656 L13.2415,26.7586 L14.4925,23.3656 L15.8555,23.3656 L15.8555,29.4266 L14.7625,29.4266 Z" id="Fill-1" fill="#A166FF"/>
  </g>
</svg>