<?xml version="1.0" encoding="UTF-8"?>
<svg width="80px" height="80px" viewBox="0 0 80 80" version="1.1" xmlns="http://www.w3.org/2000/svg" xmlns:xlink="http://www.w3.org/1999/xlink">
    <title>Icon-Architecture/64/Arch_Infrequent-Access-Storage-Class_64</title>
    <defs>
        <linearGradient x1="0%" y1="100%" x2="100%" y2="0%" id="linearGradient-1">
            <stop stop-color="#1B660F" offset="0%"></stop>
            <stop stop-color="#6CAE3E" offset="100%"></stop>
        </linearGradient>
    </defs>
    <g id="Icon-Architecture/64/Arch_Infrequent-Access-Storage-Class_64" stroke="none" stroke-width="1" fill="none" fill-rule="evenodd">
        <g id="Rectangle" fill="url(#linearGradient-1)">
            <rect x="0" y="0" width="80" height="80"></rect>
        </g>
        <g id="Icon-Service/64/Infrequent-Access-Storage-Class_64" transform="translate(8.000000, 8.000000)" fill="#FFFFFF">
            <path d="M7,12.478 L7,12.912 C7.843,15.867 17.648,19 30.5,19 C43.33,19 53.13,15.878 54,12.927 L54,12.478 C53.927,11.16 46.364,6 30.5,6 C14.634,6 7.072,11.161 7,12.478 L7,12.478 Z M53.22,32.189 L52.836,34.893 C56.196,35.719 56.8,35.214 56.8060132,35.209 C56.807,35.186 56.761,34.309 53.22,32.189 L53.22,32.189 Z M55.897,13.292 L53.521,30.054 C56.868,31.964 58.511,33.456 58.77,34.84 C58.884,35.451 58.732,36.024 58.334,36.499 C57.849,37.077 57.049,37.365 55.866,37.365 C54.985,37.365 53.888,37.203 52.555,36.883 L52.376,38.14 L50.396,37.86 L50.609,36.355 C44.444,34.534 35.986,30.681 31.928,28.76 C31.511,29.106 30.983,29.322 30.401,29.322 C29.077,29.322 27.999,28.244 27.999,26.919 C27.999,25.594 29.077,24.516 30.401,24.516 C31.727,24.516 32.805,25.594 32.805,26.919 C32.805,26.934 32.801,26.947 32.801,26.961 C36.25,28.59 44.774,32.501 50.893,34.353 L53.441,16.374 C49.022,19.399 39.556,21 30.5,21 C21.43,21 11.947,19.394 7.538,16.359 L12.632,53.565 C12.638,53.61 12.641,53.656 12.641,53.701 C12.641,55.217 19.419,58 30.494,58 C36.405,58 42.198,57.108 45.612,55.672 L46.388,57.516 C42.744,59.048 36.654,60 30.494,60 C22.861,60 10.775,58.309 10.642,53.777 L5.094,13.253 L5,12.5 C5,9.034 14.934,4 30.5,4 C46.066,4 56,9.034 56,12.5 L55.897,13.292 Z M54,43.414 L54,56.586 L57.293,53.293 L58.707,54.707 L53.707,59.707 C53.512,59.902 53.256,60 53,60 C52.744,60 52.488,59.902 52.293,59.707 L47.293,54.707 L48.707,53.293 L52,56.586 L52,43.414 L48.707,46.707 L47.293,45.293 L52.293,40.293 C52.684,39.902 53.316,39.902 53.707,40.293 L58.707,45.293 L57.293,46.707 L54,43.414 Z" id="Infrequent-Access-Storage-Class_Icon_64_Squid"></path>
        </g>
    </g>
</svg>