<?xml version="1.0" encoding="UTF-8"?>
<svg width="80px" height="80px" viewBox="0 0 80 80" version="1.1" xmlns="http://www.w3.org/2000/svg" xmlns:xlink="http://www.w3.org/1999/xlink">
    <!-- Generator: Sketch 64 (93537) - https://sketch.com -->
    <title>Icon-Architecture/64/Arch_AWS-Managed-Services_64</title>
    <desc>Created with Sketch.</desc>
    <defs>
        <linearGradient x1="0%" y1="100%" x2="100%" y2="0%" id="linearGradient-1">
            <stop stop-color="#B0084D" offset="0%"></stop>
            <stop stop-color="#FF4F8B" offset="100%"></stop>
        </linearGradient>
    </defs>
    <g id="Icon-Architecture/64/Arch_AWS-Managed-Services_64" stroke="none" stroke-width="1" fill="none" fill-rule="evenodd">
        <g id="Icon-Architecture-BG/64/Management-Governance" fill="url(#linearGradient-1)">
            <rect id="Rectangle" x="0" y="0" width="80" height="80"></rect>
        </g>
        <path d="M43.98,37.216 C43.98,34.9 42.096,33.016 39.78,33.016 C37.463,33.016 35.58,34.9 35.58,37.216 C35.58,39.532 37.463,41.416 39.78,41.416 C42.096,41.416 43.98,39.532 43.98,37.216 L43.98,37.216 Z M45.98,37.216 C45.98,40.634 43.199,43.416 39.78,43.416 C36.361,43.416 33.58,40.634 33.58,37.216 C33.58,33.797 36.361,31.016 39.78,31.016 C43.199,31.016 45.98,33.797 45.98,37.216 L45.98,37.216 Z M47.187,46.779 L49.344,44.623 L48.522,43.89 C48.158,43.565 48.082,43.023 48.342,42.61 C48.957,41.637 49.396,40.576 49.648,39.457 C49.755,38.979 50.209,38.647 50.68,38.678 L51.78,38.741 L51.78,35.691 L50.678,35.754 C50.209,35.771 49.753,35.452 49.646,34.976 C49.393,33.857 48.954,32.797 48.339,31.825 C48.079,31.411 48.155,30.87 48.519,30.545 L49.344,29.809 L47.187,27.652 L46.448,28.481 C46.123,28.844 45.581,28.921 45.167,28.66 C44.197,28.048 43.137,27.608 42.02,27.356 C41.543,27.248 41.214,26.811 41.243,26.323 L41.305,25.216 L38.255,25.216 L38.318,26.322 C38.346,26.81 38.017,27.246 37.54,27.354 C36.42,27.607 35.36,28.046 34.389,28.658 C33.977,28.918 33.434,28.843 33.11,28.478 L32.373,27.652 L30.216,29.809 L31.043,30.547 C31.408,30.872 31.484,31.414 31.222,31.827 C30.609,32.798 30.168,33.857 29.915,34.977 C29.806,35.453 29.327,35.771 28.882,35.754 L27.78,35.691 L27.78,38.741 L28.878,38.678 C29.327,38.647 29.803,38.979 29.911,39.456 C30.164,40.578 30.603,41.64 31.216,42.612 C31.477,43.026 31.401,43.567 31.037,43.892 L30.216,44.623 L32.373,46.78 L33.105,45.96 C33.43,45.593 33.972,45.518 34.385,45.78 C35.359,46.395 36.42,46.836 37.541,47.089 C38.017,47.196 38.346,47.633 38.318,48.121 L38.255,49.216 L41.305,49.216 L41.243,48.122 C41.214,47.634 41.543,47.197 42.021,47.09 C43.143,46.837 44.205,46.397 45.177,45.782 C45.588,45.521 46.131,45.595 46.458,45.962 L47.187,46.779 Z M47.853,48.943 C47.659,49.137 47.406,49.245 47.118,49.235 C46.842,49.227 46.583,49.107 46.4,48.901 L45.509,47.903 C44.8,48.284 44.056,48.591 43.286,48.824 L43.362,50.159 C43.377,50.434 43.28,50.703 43.09,50.903 C42.902,51.103 42.639,51.216 42.364,51.216 L37.197,51.216 C36.921,51.216 36.659,51.103 36.47,50.903 C36.281,50.703 36.183,50.434 36.199,50.159 L36.275,48.822 C35.505,48.59 34.762,48.282 34.053,47.901 L33.161,48.901 C32.978,49.107 32.718,49.227 32.443,49.235 C32.172,49.243 31.902,49.137 31.708,48.943 L28.053,45.289 C27.859,45.094 27.752,44.828 27.76,44.553 C27.768,44.278 27.889,44.019 28.094,43.835 L29.095,42.943 C28.715,42.234 28.408,41.491 28.176,40.721 L26.836,40.798 C26.56,40.815 26.292,40.715 26.093,40.527 C25.893,40.338 25.78,40.074 25.78,39.799 L25.78,34.632 C25.78,34.357 25.893,34.094 26.093,33.905 C26.292,33.716 26.559,33.618 26.836,33.633 L28.181,33.71 C28.414,32.942 28.721,32.201 29.102,31.495 L28.094,30.596 C27.889,30.413 27.768,30.154 27.76,29.879 C27.752,29.604 27.859,29.338 28.053,29.143 L31.708,25.489 C31.902,25.295 32.175,25.193 32.443,25.197 C32.718,25.205 32.978,25.325 33.161,25.531 L34.059,26.537 C34.765,26.158 35.506,25.851 36.275,25.62 L36.199,24.273 C36.183,23.998 36.281,23.729 36.47,23.529 C36.659,23.329 36.921,23.216 37.197,23.216 L42.364,23.216 C42.639,23.216 42.902,23.329 43.09,23.529 C43.28,23.729 43.377,23.998 43.362,24.273 L43.286,25.622 C44.052,25.853 44.792,26.16 45.5,26.54 L46.4,25.53 C46.584,25.325 46.842,25.205 47.118,25.197 C47.403,25.191 47.659,25.295 47.853,25.489 L51.506,29.143 C51.701,29.338 51.807,29.604 51.799,29.879 C51.792,30.154 51.67,30.413 51.465,30.596 L50.46,31.493 C50.84,32.201 51.148,32.942 51.379,33.71 L52.723,33.633 C52.997,33.619 53.267,33.716 53.466,33.905 C53.667,34.094 53.78,34.357 53.78,34.632 L53.78,39.799 C53.78,40.074 53.667,40.338 53.466,40.527 C53.267,40.715 52.996,40.814 52.723,40.798 L51.382,40.721 C51.151,41.49 50.843,42.233 50.463,42.941 L51.465,43.836 C51.67,44.019 51.792,44.278 51.799,44.553 C51.807,44.828 51.701,45.094 51.506,45.289 L47.853,48.943 Z M58.297,55.213 C58.289,54.733 58.092,54.285 57.746,53.952 C57.398,53.617 56.949,53.451 56.501,53.451 C56.028,53.451 55.556,53.635 55.204,54.002 C54.517,54.716 54.539,55.857 55.253,56.545 C55.966,57.232 57.109,57.21 57.796,56.495 L57.796,56.494 C58.129,56.149 58.307,55.694 58.297,55.213 L58.297,55.213 Z M59.132,52.51 C59.864,53.214 60.278,54.159 60.297,55.174 C60.318,56.188 59.941,57.15 59.238,57.881 C58.535,58.612 57.588,59.026 56.575,59.046 C56.548,59.047 56.523,59.047 56.498,59.047 C55.511,59.047 54.58,58.672 53.867,57.986 C52.358,56.534 52.311,54.125 53.762,52.616 C55.214,51.106 57.624,51.06 59.132,52.51 L59.132,52.51 Z M63.435,55.905 L61.541,55.035 C61.285,54.918 61.09,54.698 61.004,54.43 L60.616,53.212 C60.532,52.947 60.561,52.66 60.697,52.418 L61.716,50.604 L59.254,48.813 L57.86,50.325 C57.671,50.529 57.408,50.646 57.13,50.648 L55.828,50.655 L55.822,50.655 C55.543,50.655 55.276,50.539 55.086,50.333 L53.682,48.808 L51.216,50.596 L52.24,52.418 C52.376,52.662 52.405,52.952 52.319,53.218 L51.926,54.423 C51.839,54.688 51.646,54.905 51.392,55.021 L49.49,55.894 L50.428,58.792 L52.459,58.385 C52.735,58.327 53.023,58.394 53.25,58.562 L54.296,59.337 C54.519,59.502 54.663,59.751 54.695,60.025 L54.933,62.071 L57.978,62.074 L58.22,60.011 C58.252,59.736 58.398,59.486 58.623,59.321 L59.657,58.564 C59.883,58.399 60.171,58.335 60.444,58.39 L62.492,58.801 L63.435,55.905 Z M65.613,55.677 L64.119,60.266 C63.961,60.749 63.462,61.034 62.971,60.937 L60.483,60.438 L60.156,60.677 L59.861,63.192 C59.802,63.695 59.375,64.075 58.868,64.075 L58.867,64.075 L54.042,64.07 C53.535,64.07 53.108,63.69 53.049,63.186 L52.758,60.687 L52.417,60.433 L49.948,60.927 C49.446,61.026 48.957,60.738 48.8,60.255 L47.313,55.664 C47.157,55.182 47.386,54.659 47.847,54.447 L50.16,53.386 L50.281,53.015 L49.037,50.799 C48.789,50.357 48.911,49.799 49.322,49.5 L53.228,46.667 C53.634,46.37 54.207,46.424 54.55,46.799 L56.258,48.653 L56.684,48.65 L58.387,46.802 C58.732,46.428 59.299,46.373 59.71,46.672 L63.612,49.51 C64.022,49.809 64.144,50.367 63.896,50.809 L62.654,53.019 L62.776,53.402 L65.079,54.459 C65.541,54.671 65.77,55.195 65.613,55.677 L65.613,55.677 Z M39.832,57.57 C32.268,57.57 25.11,53.13 21.597,46.258 L19.816,47.169 C23.668,54.702 31.524,59.57 39.832,59.57 C41.65,59.57 43.887,59.245 45.969,58.678 L45.444,56.749 C43.554,57.263 41.457,57.57 39.832,57.57 L39.832,57.57 Z M57.306,41.513 L59.661,39.748 C59.574,41.421 59.341,42.822 58.769,44.366 L60.644,45.061 C61.315,43.251 61.578,41.603 61.667,39.684 L64.107,41.513 L65.306,39.914 L61.306,36.914 C60.951,36.647 60.462,36.647 60.107,36.914 L56.107,39.914 L57.306,41.513 Z M23.414,33.421 L19.414,37.421 C19.218,37.616 18.962,37.714 18.707,37.714 C18.451,37.714 18.195,37.616 18,37.421 L14,33.421 L15.414,32.007 L17.824,34.417 C18.956,23.36 28.192,15 39.78,15 C48.01,15 55.79,19.812 59.597,27.258 L57.816,28.169 C54.347,21.384 47.267,17 39.78,17 C29.425,17 21.154,24.334 19.892,34.113 L22,32.007 L23.414,33.421 Z" id="AWS-Managed-Services_Icon_64_Squid" fill="#FFFFFF"></path>
    </g>
</svg>