<?xml version="1.0" encoding="UTF-8" standalone="yes"?>
<svg width="80px" height="80px" viewBox="0 0 48 48" version="1.1" xmlns="http://www.w3.org/2000/svg" xmlns:xlink="http://www.w3.org/1999/xlink">
  <title>Icon-Resource/Managment-Governance/Res_AWS-Organizations_Organizational-Unit_48_Dark</title>
  <g id="Icon-Resource/Managment-Governance/Res_AWS-Organizations_Organizational-Unit_48" stroke="none" stroke-width="1" fill="none" fill-rule="evenodd">
    <path d="M9.7737,33.169 C10.0837,29.375 12.1587,25.322 16.3587,24.019 C17.2187,24.476 18.1987,24.737 19.2397,24.737 C20.2847,24.737 21.2677,24.475 22.1307,24.014 C26.5487,25.351 28.3707,29.561 28.6507,33.169 L9.7737,33.169 Z M19.2397,14.406 C21.5367,14.406 23.4057,16.275 23.4057,18.572 C23.4057,20.869 21.5367,22.737 19.2397,22.737 C16.9427,22.737 15.0747,20.869 15.0747,18.572 C15.0747,16.275 16.9427,14.406 19.2397,14.406 L19.2397,14.406 Z M30.6897,34.169 C30.6897,30.019 28.8827,24.726 23.9367,22.557 C24.8507,21.481 25.4057,20.092 25.4057,18.572 C25.4057,15.172 22.6397,12.406 19.2397,12.406 C15.8397,12.406 13.0747,15.172 13.0747,18.572 C13.0747,20.098 13.6337,21.492 14.5557,22.57 C9.8617,24.674 7.7327,29.741 7.7327,34.169 L7.7327,35.169 L30.6897,35.169 L30.6897,34.169 Z M3.9997,40.621 L43.9297,40.621 L43.9297,7 L3.9997,7 L3.9997,40.621 Z M2.0007,42.621 L45.9307,42.621 L45.9307,5 L2.0007,5 L2.0007,42.621 Z M31.8057,15.848 C33.2817,15.848 34.4817,17.048 34.4817,18.523 C34.4817,19.997 33.2817,21.197 31.8057,21.197 C30.3317,21.197 29.1317,19.997 29.1317,18.523 C29.1317,17.048 30.3317,15.848 31.8057,15.848 L31.8057,15.848 Z M26.9037,21.976 L28.0577,23.608 C28.1487,23.545 28.2417,23.483 28.3307,23.427 C28.8017,23.129 29.3067,22.908 29.8287,22.742 C30.4307,23.026 31.0957,23.197 31.8057,23.197 C32.4967,23.197 33.1467,23.037 33.7377,22.768 C36.1617,23.587 37.8677,25.826 38.2007,28.583 L31.9897,28.583 L31.9897,30.583 L40.2597,30.583 L40.2597,29.583 C40.2597,25.963 38.4027,22.829 35.5117,21.341 C36.1117,20.555 36.4817,19.585 36.4817,18.523 C36.4817,15.944 34.3837,13.848 31.8057,13.848 C29.2287,13.848 27.1317,15.944 27.1317,18.523 C27.1317,19.568 27.4887,20.524 28.0707,21.304 C27.7967,21.438 27.5227,21.572 27.2607,21.736 C27.1397,21.814 27.0197,21.893 26.9037,21.976 L26.9037,21.976 Z" id="AWS-Organizations_Organizational-unit_Resource-Icon_light-bg" fill="#FF4F8B"/>
  </g>
</svg>