<?xml version="1.0" encoding="UTF-8" standalone="yes"?>
<svg width="80px" height="80px" viewBox="0 0 48 48" version="1.1" xmlns="http://www.w3.org/2000/svg" xmlns:xlink="http://www.w3.org/1999/xlink">
  <title>Icon-Resource/Managment-Governance/Res_AWS-Organizations_Account_48_Dark</title>
  <g id="Icon-Resource/Managment-Governance/Res_AWS-Organizations_Account_48" stroke="none" stroke-width="1" fill="none" fill-rule="evenodd">
    <path d="M35.6423,43.2226 L35.6423,34.6546 L43.0693,30.4396 L43.0693,38.9216 L35.6423,43.2226 Z M26.2323,30.4496 L33.6423,34.6546 L33.6423,43.0906 L26.3173,38.8136 L26.2323,30.4496 Z M42.0803,28.7006 L34.6423,32.9226 L27.3473,28.7826 L34.8023,24.4596 L42.0803,28.7006 Z M34.8043,22.1476 L24.2093,28.2896 L24.3293,39.9676 L34.7473,46.0526 L45.0693,40.0746 L45.0693,28.1256 L34.8043,22.1476 Z M12.9553,10.7366 C12.9553,7.0216 15.9763,3.9996 19.6913,3.9996 C23.4043,3.9996 26.4253,7.0216 26.4253,10.7366 C26.4253,14.4516 23.4043,17.4726 19.6913,17.4726 C15.9763,17.4726 12.9553,14.4516 12.9553,10.7366 L12.9553,10.7366 Z M15.6523,18.4756 C16.8613,19.1096 18.2343,19.4726 19.6913,19.4726 C21.1853,19.4726 22.5923,19.0936 23.8243,18.4296 C25.1473,18.8126 26.4153,19.3796 27.5953,20.1236 C28.6853,20.8106 29.6943,21.6406 30.5923,22.5916 L32.0453,21.2186 C31.0323,20.1456 29.8933,19.2076 28.6623,18.4326 C27.7463,17.8556 26.7793,17.3776 25.7793,16.9896 C27.4093,15.4016 28.4253,13.1866 28.4253,10.7366 C28.4253,5.9186 24.5073,1.9996 19.6913,1.9996 C14.8733,1.9996 10.9553,5.9186 10.9553,10.7366 C10.9553,13.2246 12.0053,15.4666 13.6793,17.0586 C7.2313,19.6946 2.9993,26.2976 2.9993,34.0186 L2.9993,35.0186 L22.6373,35.0186 L22.6373,33.0186 L5.0263,33.0186 C5.3933,26.0866 9.5663,20.3346 15.6523,18.4756 L15.6523,18.4756 Z" id="AWS-Organizations_Account_Resource-Icon_light-bg" fill="#FF4F8B"/>
  </g>
</svg>