<?xml version="1.0" encoding="UTF-8"?>
<svg width="80px" height="80px" viewBox="0 0 80 80" version="1.1" xmlns="http://www.w3.org/2000/svg" xmlns:xlink="http://www.w3.org/1999/xlink">
    <!-- Generator: Sketch 64 (93537) - https://sketch.com -->
    <title>Icon-Architecture/64/Arch_Amazon-Pinpoint_64</title>
    <desc>Created with Sketch.</desc>
    <defs>
        <linearGradient x1="0%" y1="100%" x2="100%" y2="0%" id="linearGradient-1">
            <stop stop-color="#BD0816" offset="0%"></stop>
            <stop stop-color="#FF5252" offset="100%"></stop>
        </linearGradient>
    </defs>
    <g id="Icon-Architecture/64/Arch_Amazon-Pinpoint_64" stroke="none" stroke-width="1" fill="none" fill-rule="evenodd">
        <g id="Icon-Architecture-BG/64/Mobile" fill="url(#linearGradient-1)">
            <rect id="Rectangle" x="0" y="0" width="80" height="80"></rect>
        </g>
        <path d="M39.293,39.293 L43.473,35.114 C42.492,34.416 41.297,34 40.004,34 C36.697,34 34.007,36.69 34.007,39.997 C34.007,43.303 36.697,45.993 40.004,45.993 C43.311,45.993 46,43.303 46,39.997 C46,38.704 45.585,37.508 44.887,36.528 L40.707,40.707 L39.293,39.293 Z M50.569,30.845 L46.313,35.102 C47.366,36.456 48,38.152 48,39.997 C48,44.406 44.413,47.993 40.004,47.993 C35.595,47.993 32.007,44.406 32.007,39.997 C32.007,35.587 35.595,32 40.004,32 C41.849,32 43.544,32.634 44.898,33.688 L49.155,29.431 C46.699,27.3 43.504,26 40.004,26 C32.286,26 26.007,32.279 26.007,39.997 C26.007,47.714 32.286,53.993 40.004,53.993 C47.722,53.993 54,47.714 54,39.997 C54,36.497 52.7,33.301 50.569,30.845 L50.569,30.845 Z M53.03,23.515 C53.03,25.437 54.594,27 56.515,27 C58.437,27 60,25.437 60,23.515 C60,21.594 58.437,20.03 56.515,20.03 C54.594,20.03 53.03,21.594 53.03,23.515 L53.03,23.515 Z M50.568,28.017 L51.984,26.602 C51.383,25.722 51.03,24.659 51.03,23.515 C51.03,20.491 53.49,18.03 56.515,18.03 C59.539,18.03 62,20.491 62,23.515 C62,26.54 59.539,29 56.515,29 C55.355,29 54.281,28.636 53.395,28.02 L51.982,29.431 C54.475,32.253 56,35.946 56,39.997 C56,48.817 48.824,55.993 40.004,55.993 C31.183,55.993 24.007,48.817 24.007,39.997 C24.007,31.176 31.183,24 40.004,24 C44.055,24 47.747,25.526 50.568,28.017 L50.568,28.017 Z M64,40 C64,53.233 53.233,64 40,64 C26.767,64 16,53.233 16,40 C16,26.767 26.767,16 40,16 C43.361,16 46.614,16.684 49.669,18.032 L48.86,19.862 C46.063,18.626 43.081,18 40,18 C27.869,18 18,27.869 18,40 C18,52.131 27.869,62 40,62 C52.131,62 62,52.131 62,40 C62,36.91 61.378,33.944 60.149,31.186 L61.978,30.372 C63.319,33.389 64,36.628 64,40 L64,40 Z" id="Amazon-Pinpoint-Icon_64_Squid" fill="#FFFFFF"></path>
    </g>
</svg>