<?xml version="1.0" encoding="UTF-8"?>
<svg width="80px" height="80px" viewBox="0 0 80 80" version="1.1" xmlns="http://www.w3.org/2000/svg" xmlns:xlink="http://www.w3.org/1999/xlink">
    <!-- Generator: Sketch 64 (93537) - https://sketch.com -->
    <title>Icon-Architecture/64/Arch_Amazon-Pinpoint-Journey_64</title>
    <desc>Created with Sketch.</desc>
    <defs>
        <linearGradient x1="0%" y1="100%" x2="100%" y2="0%" id="linearGradient-1">
            <stop stop-color="#BD0816" offset="0%"></stop>
            <stop stop-color="#FF5252" offset="100%"></stop>
        </linearGradient>
    </defs>
    <g id="Icon-Architecture/64/Arch_Amazon-Pinpoint-Journey_64" stroke="none" stroke-width="1" fill="none" fill-rule="evenodd">
        <g id="Icon-Architecture-BG/64/Mobile" fill="url(#linearGradient-1)">
            <rect id="Rectangle" x="0" y="0" width="80" height="80"></rect>
        </g>
        <path d="M65.963,35.914 C65.963,34.268 64.624,32.93 62.979,32.93 C61.333,32.93 59.994,34.268 59.994,35.914 C59.994,37.56 61.333,38.898 62.979,38.898 C64.624,38.898 65.963,37.56 65.963,35.914 L65.963,35.914 Z M47.038,35.416 C47.038,33.496 45.476,31.934 43.556,31.934 C41.636,31.934 40.073,33.496 40.073,35.416 C40.073,37.336 41.636,38.898 43.556,38.898 C45.476,38.898 47.038,37.336 47.038,35.416 L47.038,35.416 Z M32.653,47.298 L27.153,52.785 L25.741,51.369 L31.172,45.951 C30.15,45.277 28.931,44.882 27.618,44.882 C24.051,44.882 21.149,47.785 21.149,51.353 C21.149,54.921 24.051,57.823 27.618,57.823 C31.187,57.823 34.089,54.921 34.089,51.353 C34.089,49.818 33.549,48.408 32.653,47.298 L32.653,47.298 Z M67.963,35.914 C67.963,38.663 65.727,40.898 62.979,40.898 C62.806,40.898 62.643,40.865 62.475,40.848 L58.607,53.42 L56.694,52.832 L60.567,40.248 C59.32,39.552 58.39,38.354 58.096,36.914 L48.825,36.914 C48.171,39.21 46.059,40.898 43.556,40.898 C42.298,40.898 41.141,40.468 40.215,39.753 L34.073,45.881 C35.328,47.358 36.089,49.268 36.089,51.353 C36.089,56.023 32.289,59.823 27.618,59.823 C22.948,59.823 19.149,56.023 19.149,51.353 C19.149,46.682 22.948,42.882 27.618,42.882 C29.484,42.882 31.204,43.496 32.606,44.521 L38.879,38.262 C38.371,37.431 38.073,36.459 38.073,35.416 C38.073,32.393 40.532,29.934 43.556,29.934 C46.41,29.934 48.758,32.126 49.013,34.914 L58.096,34.914 C58.56,32.643 60.573,30.93 62.979,30.93 C65.727,30.93 67.963,33.165 67.963,35.914 L67.963,35.914 Z M58.99,57.827 C58.99,56.182 57.651,54.843 56.006,54.843 C54.36,54.843 53.023,56.182 53.023,57.827 C53.023,59.473 54.36,60.811 56.006,60.811 C57.651,60.811 58.99,59.473 58.99,57.827 L58.99,57.827 Z M60.99,57.827 C60.99,60.576 58.754,62.811 56.006,62.811 C53.258,62.811 51.023,60.576 51.023,57.827 C51.023,55.079 53.258,52.843 56.006,52.843 C58.754,52.843 60.99,55.079 60.99,57.827 L60.99,57.827 Z M33.101,18.483 C33.101,20.403 34.663,21.965 36.583,21.965 C38.503,21.965 40.066,20.403 40.066,18.483 C40.066,16.562 38.503,15 36.583,15 C34.663,15 33.101,16.562 33.101,18.483 L33.101,18.483 Z M31.101,18.483 C31.101,15.46 33.56,13 36.583,13 C39.607,13 42.066,15.46 42.066,18.483 C42.066,20.583 40.877,22.41 39.138,23.33 L41.939,29.865 L40.101,30.653 L37.217,23.926 C37.009,23.95 36.798,23.965 36.583,23.965 C33.56,23.965 31.101,21.506 31.101,18.483 L31.101,18.483 Z M40.768,44.519 C41.876,46.679 42.439,49.015 42.439,51.46 C42.439,59.852 35.611,66.68 27.22,66.68 C18.827,66.68 12,59.852 12,51.46 C12,43.068 18.827,36.241 27.22,36.241 C29.632,36.241 32.033,36.819 34.165,37.914 L33.251,39.693 C31.374,38.729 29.345,38.241 27.22,38.241 C19.931,38.241 14,44.171 14,51.46 C14,58.749 19.931,64.68 27.22,64.68 C34.509,64.68 40.439,58.749 40.439,51.46 C40.439,49.335 39.95,47.308 38.988,45.433 L40.768,44.519 Z" id="Amazon-Pinpoint-Journey_Icon_64_Squid" fill="#FFFFFF"></path>
    </g>
</svg>