<?xml version="1.0" encoding="UTF-8"?>
<svg width="80px" height="80px" viewBox="0 0 80 80" version="1.1" xmlns="http://www.w3.org/2000/svg" xmlns:xlink="http://www.w3.org/1999/xlink">
    <title>Icon-Architecture/64/Arch_Standard-Storage-Class_64</title>
    <defs>
        <linearGradient x1="0%" y1="100%" x2="100%" y2="0%" id="linearGradient-1">
            <stop stop-color="#1B660F" offset="0%"></stop>
            <stop stop-color="#6CAE3E" offset="100%"></stop>
        </linearGradient>
    </defs>
    <g id="Icon-Architecture/64/Arch_Standard-Storage-Class_64" stroke="none" stroke-width="1" fill="none" fill-rule="evenodd">
        <g id="Rectangle" fill="url(#linearGradient-1)">
            <rect x="0" y="0" width="80" height="80"></rect>
        </g>
        <g id="Icon-Service/64/Standard-Storage-Class_64" transform="translate(8.000000, 8.000000)" fill="#FFFFFF">
            <path d="M52.836,34.893 L53.22,32.189 C56.761,34.31 56.807,35.186 56.8060132,35.21 C56.8,35.215 56.196,35.719 52.836,34.893 L52.836,34.893 Z M50.893,34.353 C44.773,32.501 36.25,28.591 32.801,26.961 C32.801,26.947 32.805,26.934 32.805,26.92 C32.805,25.595 31.727,24.517 30.401,24.517 C29.077,24.517 27.999,25.595 27.999,26.92 C27.999,28.245 29.077,29.323 30.401,29.323 C30.983,29.323 31.511,29.106 31.928,28.761 C35.986,30.682 44.443,34.535 50.608,36.355 L48.17,53.561 C48.163,53.608 48.16,53.655 48.16,53.702 C48.16,55.217 41.453,58 30.494,58 C19.419,58 12.641,55.217 12.641,53.702 C12.641,53.656 12.638,53.611 12.632,53.566 L7.538,16.359 C11.947,19.394 21.43,21 30.5,21 C39.556,21 49.023,19.4 53.441,16.374 L50.893,34.353 Z M7,12.478 C7.072,11.162 14.634,6 30.5,6 C46.364,6 53.927,11.161 54,12.478 L54,12.927 C53.13,15.878 43.33,19 30.5,19 C17.648,19 7.843,15.868 7,12.913 L7,12.478 Z M56,12.5 C56,9.035 46.066,4 30.5,4 C14.934,4 5,9.035 5,12.5 L5.094,13.254 L10.642,53.778 C10.775,58.31 22.861,60 30.494,60 C39.966,60 50.029,57.822 50.159,53.781 L52.555,36.884 C53.888,37.203 54.985,37.366 55.866,37.366 C57.049,37.366 57.849,37.077 58.334,36.499 C58.732,36.025 58.884,35.451 58.77,34.84 C58.511,33.456 56.868,31.964 53.522,30.055 L55.898,13.293 L56,12.5 Z" id="Amazon-Standard-Storage-Class-Icon_64_Squid"></path>
        </g>
    </g>
</svg>