<?xml version="1.0" encoding="UTF-8" standalone="yes"?>
<svg width="80px" height="80px" viewBox="0 0 80 80" version="1.1" xmlns="http://www.w3.org/2000/svg" xmlns:xlink="http://www.w3.org/1999/xlink">
  <title>Icon-Architecture/64/Arch_Amazon-WorkDocs_64</title>
  <desc>Created with Sketch.</desc>
  <defs>
    <linearGradient x1="0%" y1="100%" x2="100%" y2="0%" id="linearGradient-1">
      <stop stop-color="#BD0816" offset="0%"/>
      <stop stop-color="#FF5252" offset="100%"/>
    </linearGradient>
  </defs>
  <g id="Icon-Architecture/64/Arch_Amazon-WorkDocs_64" stroke="none" stroke-width="1" fill="none" fill-rule="evenodd">
    <g id="Icon-Architecture-BG/64/Business-Applications" fill="url(#linearGradient-1)">
      <rect id="Rectangle" x="0" y="0" width="80" height="80"/>
    </g>
    <path d="M33,41 L36,41 L36,39 L33,39 L33,41 Z M39,61 L41,61 L41,58 L39,58 L39,61 Z M39,56 L41,56 L41,53 L39,53 L39,56 Z M39,46 L41,46 L41,43 L39,43 L39,46 Z M39,51 L41,51 L41,48 L39,48 L39,51 Z M28,41 L31,41 L31,39 L28,39 L28,41 Z M23,41 L26,41 L26,39 L23,39 L23,41 Z M18,41 L21,41 L21,39 L18,39 L18,41 Z M41,66 L41,63 L39,63 L39,66 L14,66 L14,41 L16,41 L16,39 L14,39 L14,14 L39,14 L39,39 L38,39 L38,41 L40,41 L41,41 L66,41 L66,66 L41,66 Z M41,15.414 L64.586,39 L41,39 L41,15.414 Z M68,40 C68,39.74 67.898,39.484 67.707,39.293 L40.707,12.293 C40.515,12.102 40.26,12 40,12 L13,12 C12.447,12 12,12.448 12,13 L12,67 C12,67.552 12.447,68 13,68 L67,68 C67.552,68 68,67.552 68,67 L68,40 Z" id="Amazon-WorkDocs_Icon_64_Squid" fill="#FFFFFF"/>
  </g>
</svg>