<?xml version="1.0" encoding="UTF-8"?>
<svg width="80px" height="80px" viewBox="0 0 80 80" version="1.1" xmlns="http://www.w3.org/2000/svg" xmlns:xlink="http://www.w3.org/1999/xlink">
    <title>data-catalog</title>
    <g id="Page-1" stroke="none" stroke-width="1" fill="none" fill-rule="evenodd">
        <g id="data-catalog" transform="translate(1.125000, 3.125000)" fill-rule="nonzero">
            <polygon id="Path" fill="#4285F4" points="0.765322581 26.5949597 10.7512097 8.80645161 23.5887097 8.80645161 23.5887097 16.6693548 15.2540323 16.6693548 9.70806452 26.4979839 13.1153226 32.2012097 6.41612903 36.0645161"></polygon>
            <path d="M49.7983871,42.1320565 L60.2822581,36.077621 L70.766129,42.1320565 L70.766129,54.2409274 L60.2822581,60.290121 L49.7983871,54.2356855 L49.7983871,42.1320565 Z M7.86290323,42.1320565 L18.3467742,36.077621 L28.8306452,42.1320565 L28.8306452,54.2409274 L18.3467742,60.290121 L7.86290323,54.2356855 L7.86290323,42.1320565 Z M28.8306452,6.55241935 L39.3145161,0.503225806 L49.7983871,6.55766129 L49.7983871,18.6612903 L39.3145161,24.7157258 L28.8306452,18.6612903 L28.8306452,6.55241935 Z" id="Shape" fill="#669DF6"></path>
            <path d="M60.2822581,36.0802419 L70.766129,42.1346774 L70.766129,54.2383065 L60.2822581,60.2927419 L60.2822581,36.0802419 Z M18.3467742,36.0802419 L28.8306452,42.1346774 L28.8306452,54.2383065 L18.3467742,60.2927419 L18.3467742,36.0802419 Z M39.3145161,0.503225806 L49.7983871,6.55766129 L49.7983871,18.6612903 L39.3145161,24.7157258 L39.3145161,0.503225806 Z M65.4979839,32.2012097 L68.9157258,26.5058468 L63.3802419,16.6693548 L55.0403226,16.6693548 L55.0403226,8.80645161 L67.8883065,8.80645161 L77.8637097,26.6211694 L72.1971774,36.0671371 L65.4979839,32.2012097 Z M29.2893145,74.3306452 L23.0985887,64.0040323 L29.7925403,60.1328629 L33.6794355,66.4677419 L44.8185484,66.4677419 L48.7578629,60.0987903 L55.4518145,63.9647177 L49.1955645,74.3306452 L29.2893145,74.3306452 Z" id="Shape" fill="#4285F4"></path>
        </g>
    </g>
</svg>