<?xml version="1.0" encoding="UTF-8" standalone="yes"?>
<svg id="Product_Icons" data-name="Product Icons" xmlns="http://www.w3.org/2000/svg" viewBox="0 0 24 24" width="80px" height="80px">
  <defs>
    <style>.cls-1{fill:#4285f4;}.cls-2{fill:#669df6;fill-opacity:0.8;}.cls-3{fill:#aecbfa;fill-opacity:0.6;}</style>
  </defs>
  <title>Icon_24px_Color_AutoML</title>
  <polygon id="Shape" class="cls-1" points="4.5 16.72 9.5 8.14 11.17 8.14 12.83 5.57 11.15 3 7 3 2 11.58 4.5 16.72"/>
  <polygon class="cls-2" points="14.5 5.57 12.83 8.14 16.17 8.14 17.83 5.57 16.17 3 12.83 3 14.5 5.57"/>
  <polygon class="cls-3" points="19.5 7.28 14.5 15.86 12.83 15.86 11.17 18.43 12.85 21 17 21 22 12.42 19.5 7.28"/>
  <polygon class="cls-2" points="11.17 21 9.5 18.43 11.17 15.86 7.83 15.86 6.17 18.43 7.83 21 11.17 21"/>
</svg>