<?xml version="1.0" encoding="UTF-8" standalone="yes"?>
<svg id="Product_Icons" data-name="Product Icons" xmlns="http://www.w3.org/2000/svg" viewBox="0 0 24 24" width="80px" height="80px">
  <defs>
    <style>.cls-1{fill:#aecbfa;}.cls-2{fill:#669df6;}.cls-3{fill:#4285f4;}</style>
  </defs>
  <title>Icon_24px_Color_Debugger</title>
  <g id="Page-1">
    <g id="icon_debug" data-name="icon debug">
      <g id="DEBUG_SECTION" data-name="DEBUG SECTION">
        <path id="Shape" class="cls-1" d="M16,4V6h2V8h2V4H16ZM3.88,8H6V6H8V4H4V8Z"/>
        <path class="cls-2" d="M20,8V4L18,6V8Zm-2,3L10,22V11Z"/>
        <polygon class="cls-3" points="14 13 10 18.03 10 10.12 14 13"/>
        <polygon class="cls-1" points="14 13 6 13 14 2 14 13"/>
        <polygon class="cls-3" points="20 20 16 20 16 18 18 18 18 16 20 16 20 20"/>
      </g>
    </g>
  </g>
  <polygon class="cls-2" points="8 20 8 18 6 18 6 16 4 16 4 20 8.13 20 8 20"/>
  <polygon class="cls-1" points="4 16 4 20 6 18 6 16 4 16"/>
</svg>