<?xml version="1.0" encoding="UTF-8" standalone="yes"?>
<svg id="Product_Icons" data-name="Product Icons" xmlns="http://www.w3.org/2000/svg" viewBox="0 0 24 24" width="80px" height="80px">
  <defs>
    <style>.cls-1{fill:#669df6;}.cls-2{fill:#4285f4;}</style>
  </defs>
  <title>Icon_24px_Color_DataStudio</title>
  <g id="Data_Studio" data-name="Data Studio">
    <g id="bottom">
      <path class="cls-1" d="M19.5,16.17H12.24a2.53,2.53,0,0,0-2.74,2.5,2.5,2.5,0,0,0,2.74,2.5H19.5Z"/>
      <circle class="cls-2" cx="19.5" cy="18.67" r="2.5"/>
    </g>
    <g id="middle">
      <path class="cls-1" d="M12,9.5H4.74A2.53,2.53,0,0,0,2,12a2.5,2.5,0,0,0,2.74,2.5H12Z"/>
      <circle class="cls-2" cx="12" cy="12" r="2.5"/>
    </g>
    <g id="top">
      <path class="cls-1" d="M19.5,2.83H12.24A2.54,2.54,0,0,0,9.5,5.33a2.5,2.5,0,0,0,2.74,2.5H19.5Z"/>
      <circle class="cls-2" cx="19.5" cy="5.33" r="2.5"/>
    </g>
  </g>
</svg>