<?xml version="1.0" encoding="UTF-8" standalone="yes"?>
<svg width="80px" height="80px" viewBox="0 0 512 512" version="1.1" xmlns="http://www.w3.org/2000/svg" xmlns:xlink="http://www.w3.org/1999/xlink">
  <title>512x512_colored</title>
  <desc>Created with Sketch.</desc>
  <g id="512x512_colored" stroke="none" stroke-width="1" fill="none" fill-rule="evenodd">
    <path d="M317.377879,189.768973 C319.037078,189.768973 320.391828,191.066509 320.483286,192.702739 L320.488207,192.879302 L320.488207,209.986109 C320.488207,211.643807 319.190671,212.999955 317.554441,213.091511 L317.377879,213.096438 L304.936564,213.096438 L304.936564,243.745616 C304.936564,244.97303 305.233201,246.180842 305.798923,247.267233 L305.959862,247.560434 L389.854756,391.822142 C392.519,396.436315 392.579551,402.096123 390.036409,406.757824 L389.854756,407.081414 L359.423301,460.367565 C356.756363,464.986403 351.876348,467.869902 346.562401,467.993089 L346.207515,467.997201 L165.691816,467.997201 C160.357941,467.997201 155.421437,465.214111 152.657083,460.672905 L152.47603,460.367565 L122.044575,407.081414 C119.380331,402.467242 119.31978,396.807433 121.862922,392.145732 L122.044575,391.822142 L205.718636,247.560434 C206.33959,246.48315 206.878748,245.271772 206.952603,244.032139 L206.961212,243.745616 L206.961212,213.096438 L194.519897,213.096438 C192.862199,213.096438 191.506052,211.797452 191.414495,210.162522 L191.409569,209.986109 L191.409569,192.879302 C191.409569,191.220102 192.708554,189.865353 194.343485,189.773894 L194.519897,189.768973 L317.377879,189.768973 Z M281.609099,213.096438 L230.288677,213.096438 L230.288677,248.501309 C230.288677,251.031993 229.660289,253.519675 228.46247,255.742948 L228.245191,256.1325 L148.032925,395.895117 C146.719256,398.170045 146.672339,400.95688 147.89357,403.269767 L148.034481,403.524754 L168.775707,439.445939 C170.091054,441.725274 172.485024,443.159398 175.102356,443.255593 L175.3836,443.260757 L200.955922,443.260683 L178.35132,404.107474 C177.037651,401.831046 176.990734,399.045604 178.21057,396.732819 L178.35132,396.477837 L198.03037,362.391746 L344.635922,362.391683 L332.987922,342.094683 L278.728935,342.095296 L269.908043,326.817362 L324.219922,326.816683 L307.886922,298.356683 L253.106514,298.356766 L244.285622,283.078832 L299.118922,283.078683 L283.65414,256.1325 C282.389532,253.941101 281.689502,251.472268 281.615624,248.947409 L281.609099,248.501309 L281.609099,213.096438 Z M354.452922,379.497683 L300.271538,379.498553 L309.09243,395.050197 L363.377922,395.049683 L354.452922,379.497683 Z M224.921494,124.789542 C233.348929,124.789542 240.180766,131.622934 240.180766,140.05037 C240.180766,148.477805 233.348929,155.309642 224.921494,155.309642 C216.494058,155.309642 209.662221,148.477805 209.662221,140.05037 C209.662221,131.622934 216.494058,124.789542 224.921494,124.789542 Z M282.49632,92.0464906 C295.138251,92.0464906 305.386784,102.293468 305.386784,114.935399 C305.386784,127.575775 295.138251,137.824308 282.49632,137.824308 C269.85439,137.824308 259.607412,127.575775 259.607412,114.935399 C259.607412,102.293468 269.85439,92.0464906 282.49632,92.0464906 Z M247.809935,44.9946831 C256.237371,44.9946831 263.070763,51.8280751 263.070763,60.2555106 C263.070763,68.682946 256.237371,75.5147829 247.809935,75.5147829 C239.384055,75.5147829 232.550663,68.682946 232.550663,60.2555106 C232.550663,51.8280751 239.384055,44.9946831 247.809935,44.9946831 Z" id="Combined-Shape" fill="#4285F4"/>
  </g>
</svg>