<?xml version="1.0" encoding="UTF-8" standalone="yes"?>
<svg id="Product_Icons" data-name="Product Icons" xmlns="http://www.w3.org/2000/svg" viewBox="0 0 24 24" width="80px" height="80px">
  <defs>
    <style>.cls-1{fill:#669df6;}.cls-1,.cls-2{fill-rule:evenodd;}.cls-2{fill:#4285f4;}</style>
  </defs>
  <title>Icon_24px_Color_ErrorReporting</title>
  <g id="Shape">
    <polygon id="Fill-1" class="cls-1" points="7 2 2 7 2 17 7 22 12 22 9.5 19.14 8.25 19.14 4.86 15.75 4.86 8.25 8.25 4.86 9.5 4.86 12 2 7 2"/>
    <polygon id="Fill-2" class="cls-1" points="14.5 2 12 4.86 15.75 4.86 19.14 8.25 19.14 15.75 15.75 19.14 12 19.14 14.5 22 17 22 22 17 22 7 17 2 14.5 2"/>
    <polygon id="Fill-3" class="cls-2" points="12 17 9.5 14.5 12 12 9.5 9.5 12 7 9.5 7 7 9.5 7 14.5 9.5 17 12 17"/>
    <polygon id="Fill-4" class="cls-2" points="14.5 7 12 9.5 14.5 12 12 14.5 14.5 17 17 14.5 17 9.5 14.5 7"/>
  </g>
</svg>