<?xml version="1.0" encoding="UTF-8" standalone="yes"?>
<svg id="Product_Icons" data-name="Product Icons" xmlns="http://www.w3.org/2000/svg" viewBox="0 0 24 24" width="80px" height="80px">
  <defs>
    <style>.cls-1{fill:#669df6;}.cls-2{fill:#4285f4;}</style>
  </defs>
  <title>Icon_24px_Color_ExternalIPAddresses</title>
  <g id="art">
    <path class="cls-1" d="M17.49,12.4v6.7a.4.4,0,0,1-.4.4H4.9a.4.4,0,0,1-.4-.4V6.9a.4.4,0,0,1,.4-.4h6.7a.4.4,0,0,0,.4-.4V4.4a.4.4,0,0,0-.4-.4H2.4a.4.4,0,0,0-.4.4V21.6a.4.4,0,0,0,.4.4H19.6a.4.4,0,0,0,.4-.4V12.4a.4.4,0,0,0-.4-.4H17.89A.4.4,0,0,0,17.49,12.4Z"/>
    <path class="cls-2" d="M14,2.4V9.6a.4.4,0,0,0,.4.4h7.2a.4.4,0,0,0,.4-.4V2.4a.4.4,0,0,0-.4-.4H14.4A.4.4,0,0,0,14,2.4Zm5.6,4.1H17.89a.4.4,0,0,1-.4-.4V4.4a.4.4,0,0,1,.4-.4H19.6a.4.4,0,0,1,.4.4V6.1A.4.4,0,0,1,19.6,6.5Z"/>
  </g>
</svg>