<?xml version="1.0" encoding="UTF-8" standalone="yes"?>
<svg width="80px" height="80px" viewBox="0 0 512 512" version="1.1" xmlns="http://www.w3.org/2000/svg" xmlns:xlink="http://www.w3.org/1999/xlink">
  <title>512 color</title>
  <desc>Created with Sketch.</desc>
  <g id="512-color" stroke="none" stroke-width="1" fill="none" fill-rule="evenodd">
    <path d="M468,44 L468,468 L44,468 L44,44 L468,44 Z M256,141.846154 C218.116151,141.846154 185.835551,165.836514 173.521604,199.453832 L173.521604,199.453832 L170.118729,199.454849 C127.484748,199.454849 92.9230769,234.01652 92.9230769,276.650502 C92.9230769,319.284483 127.484748,353.846154 170.118729,353.846154 L170.118729,353.846154 L341.881271,353.846154 C384.515252,353.846154 419.076923,319.284483 419.076923,276.650502 C419.076923,234.01652 384.515252,199.454849 341.881271,199.454849 L341.881271,199.454849 L338.478396,199.453832 C326.164449,165.836514 293.883849,141.846154 256,141.846154 Z" id="Combined-Shape" fill="#4285F4"/>
  </g>
</svg>