<?xml version="1.0" encoding="UTF-8" standalone="yes"?>
<svg id="Artwork" xmlns="http://www.w3.org/2000/svg" viewBox="0 0 512 512" width="80px" height="80px">
  <path id="Path" d="M421,140c-19.05,0-36,16.82-36,35.76,0,12.62,8.46,25.24,19.05,31.55V354.61L294,419.82l16.93,27.35,118.51-69.42c4.24-2.1,8.47-8.41,8.47-14.73V207.35C450.62,201,457,188.42,457,175.8,459.08,156.86,442.15,140,421,140Z" style="fill:#aecbfa"/>
  <path id="Path-2" data-name="Path" d="M382.89,116.9,264.38,49.58c-4.24-2.11-10.59-2.11-16.93,0L112,127.41a36,36,0,0,0-21.17-6.31c-19,0-36,16.83-36,35.76s16.93,35.77,36,35.77,36-16.83,36-35.77l129.1-73.62,110,63.11Z" style="fill:#aecbfa"/>
  <path id="Path-3" data-name="Path" d="M239,394.58q-9.53,0-19,6.31l-110-63.11V211.56H76V346.19c0,6.32,4.23,12.63,8.46,14.73L203,426.13v2.11c0,18.93,16.93,35.76,36,35.76s36-16.83,36-35.76S258,394.58,239,394.58Z" style="fill:#aecbfa"/>
  <path d="M258,264.12v50.56l112.16-65.29V199Zm92-20a8.16,8.16,0,1,1,8.16-8.16A8.19,8.19,0,0,1,350,244.12Z" style="fill:#4285f4"/>
  <path d="M258,335.64V379.8l112.16-65.12V270.52Zm92-22.88a8.16,8.16,0,1,1,8.16-8.16A8.19,8.19,0,0,1,350,312.76Z" style="fill:#4285f4"/>
  <polygon id="Path-4" data-name="Path" points="361.73 184.21 258.03 123.21 152.21 184.21 258.03 243.12 361.73 184.21" style="fill:#669df6"/>
  <polygon points="258.03 264.15 145.86 198.94 145.86 251.53 258.03 314.64 258.03 264.15" style="fill:#669df6"/>
  <polygon points="258.03 335.68 145.86 270.46 145.86 314.64 258.03 379.85 258.03 335.68" style="fill:#669df6"/>
</svg>