<?xml version="1.0" encoding="UTF-8" standalone="yes"?>
<svg width="80px" height="80px" viewBox="0 0 60 60" version="1.1" xmlns="http://www.w3.org/2000/svg" xmlns:xlink="http://www.w3.org/1999/xlink">
  <title>Untitled</title>
  <g id="Page-1" stroke="none" stroke-width="1" fill="none" fill-rule="evenodd">
    <g id="GKE" transform="translate(4.938513, 1.000000)">
      <polygon id="Path" fill="#669DF6" points="6.99525055 41.1444342 13.6586206 37.25437 23.7934426 43.3254274 23.7934426 30.0604562 12.7163497 23.4456751 12.7163497 34.8113507 5.48829369 38.9675658 5.48829369 40.2837996"/>
      <polygon id="Path" fill="#AECBFA" transform="translate(26.972644, 16.801439) rotate(120.000000) translate(-26.972644, -16.801439) " points="19.3270262 24.560322 25.9903963 20.6702579 36.1252183 26.7413153 36.1252183 13.476344 25.0481254 6.8615629 25.0481254 18.2272386 17.8200694 22.3834536 17.8200694 23.6996875"/>
      <polygon id="Path" fill="#4285F4" transform="translate(36.052083, 33.521065) scale(-1, 1) translate(-36.052083, -33.521065) " points="28.4064655 41.2799482 35.0698356 37.389884 45.2046576 43.4609414 45.2046576 30.1959702 34.1275646 23.5811891 34.1275646 34.9468647 26.8995086 39.1030798 26.8995086 40.4193136"/>
      <path d="M25.3494539,0 L50.6989078,14.5 L50.6989078,43.5 L25.3494539,58 L2.66453526e-15,43.5 L-4.4408921e-16,14.5 L25.3494539,0 Z M25.3494539,6.5046729 L5.51585339,17.7523364 L5.51585339,40.2476636 L25.3494539,51.4953271 L45.1830544,40.2476636 L45.1830544,17.7523364 L25.3494539,6.5046729 Z" id="Exterion" fill="#AECBFA"/>
    </g>
  </g>
</svg>