<?xml version="1.0" encoding="UTF-8" standalone="yes"?>
<svg id="Product_Icons" data-name="Product Icons" xmlns="http://www.w3.org/2000/svg" viewBox="0 0 24 24" width="80px" height="80px">
  <defs>
    <style>.cls-1{fill:#4285f4;}.cls-2{fill:#669df6;}</style>
  </defs>
  <title>Icon_24px_Color_Routes</title>
  <g id="art">
    <polygon class="cls-1" points="16.68 18.94 12.81 18.94 4.43 8.45 2 8.45 2 5.02 5.94 5.02 14.34 15.51 16.68 15.51 16.68 12.79 22 17.22 16.68 21.65 16.68 18.94"/>
    <polygon class="cls-2" points="12.46 10.84 14.34 8.49 16.68 8.49 16.68 11.21 22 6.78 16.68 2.35 16.68 5.06 12.81 5.06 10.33 8.17 12.46 10.84"/>
    <polygon class="cls-2" points="6.33 13.16 4.43 15.55 2 15.55 2 18.98 5.94 18.98 8.46 15.83 6.33 13.16"/>
  </g>
</svg>