<?xml version="1.0" encoding="UTF-8" standalone="yes"?>
<svg width="80px" height="80px" viewBox="0 0 512 512" version="1.1" xmlns="http://www.w3.org/2000/svg" xmlns:xlink="http://www.w3.org/1999/xlink">
  <title>512x512_colored</title>
  <desc>Created with Sketch.</desc>
  <g id="512x512_colored" stroke="none" stroke-width="1" fill="none" fill-rule="evenodd">
    <path d="M143.430548,175.853519 L143.804458,176.142868 L249.562903,259.350668 C251.126253,259.132802 252.700388,259.003095 254.27786,258.962089 L255.06684,258.948981 C272.478063,258.945462 288.084564,269.707354 294.289945,285.997702 C300.495326,302.288051 296.010655,320.723156 283.018501,332.33115 C270.026347,343.939144 251.225336,346.308907 235.765411,338.287139 C220.460086,330.345589 211.576668,313.852361 213.321502,296.71573 L213.377634,296.19625 L213.351533,296.166137 L131.700335,187.976452 C122.219814,175.414115 131.12533,166.490243 143.430548,175.853519 Z M450.268242,303.579456 C460.061222,303.579456 468,311.528605 468,321.334378 C468,331.14015 460.061222,339.089299 450.268242,339.089299 C440.475263,339.089299 432.536485,331.14015 432.536485,321.334378 C432.536485,311.528605 440.475263,303.579456 450.268242,303.579456 Z M104.24136,197.797054 L124.664373,226.117432 C101.068061,254.099887 84.9270099,287.60606 77.7441566,323.516103 C76.5933171,329.55964 72.2791117,334.513132 66.4561027,336.476842 C60.6330937,338.440552 54.2051189,337.109674 49.637403,332.994621 C45.069687,328.879568 43.0712231,322.619072 44.4084521,316.614125 C53.2253768,272.309115 73.9074329,231.238384 104.24136,197.797054 Z M427.003041,239.105513 C436.796021,239.105513 444.734799,247.054662 444.734799,256.860434 C444.734799,266.666206 436.796021,274.615356 427.003041,274.615356 C417.210062,274.615356 409.271284,266.666206 409.271284,256.860434 C409.271284,247.054662 417.210062,239.105513 427.003041,239.105513 Z M385.374549,184.011281 C395.167528,184.011281 403.106306,191.96043 403.106306,201.766202 C403.106306,211.571975 395.167528,219.521124 385.374549,219.521124 C375.581569,219.521124 367.642791,211.571975 367.642791,201.766202 C367.642791,191.96043 375.581569,184.011281 385.374549,184.011281 Z M327.582069,145.032268 C337.375048,145.032268 345.313827,152.981417 345.313827,162.78719 C345.313827,172.592962 337.375048,180.542111 327.582069,180.542111 C317.78909,180.542111 309.850311,172.592962 309.850311,162.78719 C309.850311,152.981417 317.78909,145.032268 327.582069,145.032268 Z M194.507639,140.705749 C204.300618,140.705749 212.239397,148.654898 212.239397,158.46067 C212.239397,168.266443 204.300618,176.215592 194.507639,176.215592 C184.71466,176.215592 176.775881,168.266443 176.775881,158.46067 C176.775881,148.654898 184.71466,140.705749 194.507639,140.705749 Z M261.357217,129 C271.150196,129 279.088974,136.949149 279.088974,146.754922 C279.088974,156.560694 271.150196,164.509843 261.357217,164.509843 C251.564237,164.509843 243.625459,156.560694 243.625459,146.754922 C243.625459,136.949149 251.564237,129 261.357217,129 Z" id="Combined-Shape" fill="#4285F4" fill-rule="nonzero"/>
  </g>
</svg>