<?xml version="1.0" encoding="UTF-8" standalone="yes"?>
<svg id="Product_Icons" data-name="Product Icons" xmlns="http://www.w3.org/2000/svg" viewBox="0 0 24 24" width="80px" height="80px">
  <defs>
    <style>.cls-1{fill:#4285f4;}.cls-2{fill:#669df6;fill-rule:evenodd;}</style>
  </defs>
  <title>Icon_24px_Color_Translation</title>
  <g id="Group">
    <path id="Shape" class="cls-1" d="M17.91,10.2H16.09L12,21h1.82l1-2.7h4.32l1,2.7H22Zm-2.39,6.3L17,12.6l1.48,3.9Z"/>
    <path id="Path" class="cls-2" d="M12.79,14.77l-2.31-2.26,0,0A15.62,15.62,0,0,0,13.88,6.6h2.67V4.8H10.18V3H8.36V4.8H2V6.59H12.15a14.06,14.06,0,0,1-2.88,4.82,14.55,14.55,0,0,1-2.1-3H5.35a16,16,0,0,0,2.71,4.1L3.44,17,4.73,18.3l4.54-4.5,2.83,2.8Z"/>
  </g>
</svg>