<?xml version="1.0" encoding="UTF-8" standalone="yes"?>
<svg id="Product_Icons" data-name="Product Icons" xmlns="http://www.w3.org/2000/svg" viewBox="0 0 24 24" width="80px" height="80px">
  <defs>
    <style>.cls-1{fill:#669df6;}.cls-2{fill:#4285f4;}</style>
  </defs>
  <title>Icon_24px_Color_VideoIntelli</title>
  <g id="Cloud-Video-Intelligence-API">
    <polygon id="Shape" class="cls-1" points="16.33 4.83 10.81 4.83 12.28 7.16 14.33 7.16 14.33 8.49 11.41 8.49 9.08 4.83 2.01 4.83 2.01 9.16 4 9.16 5.26 6.83 7.83 6.83 8.69 8.16 6.12 8.16 4.86 10.49 2.01 10.49 2.01 13.08 4.86 13.08 6.12 15.49 8.69 15.49 7.83 16.83 5.26 16.83 4 14.49 2.01 14.49 2.01 18.83 9.08 18.83 11.41 15.16 14.33 15.16 14.33 16.49 12.28 16.49 10.81 18.83 16.33 18.83 16.33 12.49 9.92 12.49 9.09 13.83 7.25 13.83 8.51 11.83 7.25 9.83 9.09 9.83 9.89 11.16 16.33 11.16 16.33 4.83"/>
    <polygon class="cls-2" points="22 5.93 18 8.84 18 14.94 22 17.89 22 5.93"/>
  </g>
</svg>