<?xml version="1.0" encoding="UTF-8" standalone="yes"?>
<svg id="Product_Icons" data-name="Product Icons" xmlns="http://www.w3.org/2000/svg" viewBox="0 0 24 24" width="80px" height="80px">
  <defs>
    <style>.cls-1{fill:#aecbfa;}.cls-2{fill:#669df6;}.cls-3{fill:#4285f4;}</style>
  </defs>
  <title>Icon_24px_Color_VirtualPrivateCloud</title>
  <rect class="cls-1" x="16" y="2" width="6" height="6"/>
  <rect class="cls-2" x="19" y="2" width="3" height="6"/>
  <rect class="cls-1" x="16" y="16" width="6" height="6"/>
  <rect class="cls-2" x="19" y="16" width="3" height="6"/>
  <rect class="cls-1" x="2" y="2" width="6" height="6"/>
  <rect class="cls-2" x="5" y="2" width="3" height="6"/>
  <rect class="cls-1" x="2" y="16" width="6" height="6"/>
  <rect class="cls-2" x="5" y="16" width="3" height="6"/>
  <rect class="cls-2" x="8" y="4" width="8" height="2"/>
  <rect class="cls-2" x="8" y="18" width="8" height="2"/>
  <rect class="cls-2" x="18" y="8" width="2" height="8"/>
  <rect class="cls-2" x="4" y="8" width="2" height="8"/>
  <rect class="cls-3" x="4" y="8" width="2" height="2"/>
  <rect class="cls-3" x="18" y="8" width="2" height="2"/>
  <rect class="cls-3" x="8" y="4" width="2" height="2"/>
  <rect class="cls-3" x="8" y="18" width="2" height="2"/>
</svg>