<?xml version="1.0" encoding="utf-8"?>
<!-- Generator: Adobe Illustrator 24.0.1, SVG Export Plug-In . SVG Version: 6.00 Build 0)  -->
<svg version="1.1" id="Layer_1" xmlns="http://www.w3.org/2000/svg" xmlns:xlink="http://www.w3.org/1999/xlink" x="0px" y="0px"
	 viewBox="0 0 18 18" style="enable-background:new 0 0 18 18;" xml:space="preserve">
<style type="text/css">.st0{fill:url(#SVGID_1_);} .st1{fill:#FFFFFF;}</style>
<title>MsPortalFx.base.images-76</title>
<g id="b8796109-74b3-4e41-9593-a5e3ee23b931">
	<g>
		
			<linearGradient id="SVGID_1_" gradientUnits="userSpaceOnUse" x1="9" y1="2.5" x2="9" y2="19.5" gradientTransform="matrix(1 0 0 -1 0 20)">
			<stop  offset="0" style="stop-color:#32BEDD"/>
			<stop  offset="0.226" style="stop-color:#32C9E9"/>
			<stop  offset="0.547" style="stop-color:#32D1F2"/>
			<stop  offset="1" style="stop-color:#32D4F5"/>
		</linearGradient>
		<path class="st0" d="M17.5,9.9V8l-0.3-0.1l-2.1-0.7l-0.5-1.3l1.1-2.2l-1.4-1.4L14,2.4l-1.9,1l-1.3-0.5L9.9,0.5H8L7.9,0.8L7.2,2.8
			L5.9,3.4L3.7,2.3L2.3,3.7L2.4,4l1,1.9L2.9,7.2L0.5,8.1V10l0.3,0.1l2.1,0.7l0.5,1.3l-1.1,2.2l1.4,1.4L4,15.6l1.9-1l1.3,0.5l0.9,2.3
			H10l0.1-0.3l0.7-2.1l1.3-0.5l2.2,1.1l1.4-1.4L15.6,14l-1-1.9l0.5-1.3L17.5,9.9z"/>
		<path class="st1" d="M12.3,6.5l-0.8,0.7c1.1,1.2,1,3.1-0.3,4.2s-3.1,1-4.2-0.3c-1-1.1-1-2.8,0-3.9c0,0,0.1,0,0.1,0l0,0l0.6,0.5
			c0,0,0.1,0,0.1,0c0,0,0,0,0-0.1L7.6,5.6c0-0.1-0.1-0.1-0.2-0.1L5.5,5.8c0,0-0.1,0-0.1,0.1c0,0,0,0,0,0l0.6,0.5l0,0
			c0,0,0,0.1,0,0.1h0c-1.4,1.7-1.2,4.2,0.5,5.6s4.2,1.2,5.6-0.5C13.6,10.1,13.6,7.9,12.3,6.5z"/>
	</g>
</g>
<metadata>
   <rdf:RDF xmlns:rdf="http://www.w3.org/1999/02/22-rdf-syntax-ns#">
      <rdf:li>public:true</rdf:li>
      <rdf:li>sdk: MsPortalFx.Base.Images.Polychromatic.Gear()</rdf:li>
      <rdf:li>category: General</rdf:li>
   </rdf:RDF>
</metadata>
</svg>
